<?xml version="1.0" encoding="UTF-8" standalone="no"?><!DOCTYPE svg PUBLIC "-//W3C//DTD SVG 1.1//EN" "http://www.w3.org/Graphics/SVG/1.1/DTD/svg11.dtd"><svg width="100%" height="100%" viewBox="0 0 514 132" version="1.1" xmlns="http://www.w3.org/2000/svg" xmlns:xlink="http://www.w3.org/1999/xlink" xml:space="preserve" xmlns:serif="http://www.serif.com/" style="fill-rule:evenodd;clip-rule:evenodd;stroke-linecap:round;stroke-linejoin:round;stroke-miterlimit:1.5;"><g id="Artboard1"><g><path d="M221.003,2.439l-0,118.58c-32.745,0 -59.29,-26.545 -59.29,-59.29c-0,-32.745 26.545,-59.29 59.29,-59.29Z"/><path d="M208.285,13.207c-0,0 4.602,-0.839 10.494,-1.913c6.19,-1.128 12.562,0.55 17.393,4.581c4.832,4.03 7.625,9.998 7.625,16.29l0,0.64c0,0.052 -0.005,0.105 -0.015,0.156c-3.046,15.123 -9.075,13.571 -15.469,9.981c-0.654,-0.366 -1.174,-0.932 -1.483,-1.614c-0.001,-0 -0.001,-0 -0.001,-0c-1.608,-3.554 -1.477,-7.652 0.357,-11.095c1.833,-3.443 5.16,-5.84 9.007,-6.488c2.357,-0.398 4.609,-0.778 6.461,-1.09c2.969,-0.5 6.019,0.129 8.548,1.763c0.123,0.079 0.231,0.149 0.321,0.207c0.184,0.119 0.309,0.308 0.347,0.524c0.33,1.868 1.943,10.997 2.612,14.786c0.194,1.099 0.28,2.215 0.257,3.331c-0.003,0.159 -0.007,0.327 -0.01,0.503c-0.187,9.052 -6.845,16.664 -15.791,18.054c-1.347,0.209 -2.646,0.411 -3.829,0.595c-3.677,0.572 -7.431,-0.341 -10.434,-2.538l-0,0c-1.677,-1.226 -2.394,-3.379 -1.787,-5.366c0.606,-1.987 2.404,-3.372 4.48,-3.452c1.772,-0.068 3.038,-0.117 3.218,-0.124c0.014,-0 0.029,-0 0.044,0.001c0.182,0.009 1.489,0.079 3.134,0.167c4.603,0.246 8.559,3.345 9.899,7.755c0.788,2.593 1.688,5.555 2.532,8.333c1.903,6.261 0.525,13.06 -3.664,18.087c-0.805,0.965 -1.623,1.946 -2.416,2.898c-3.596,4.315 -9.499,5.934 -14.793,4.058c-2.568,-0.91 -4.833,-1.712 -5.365,-1.901c-0.078,-0.028 -0.152,-0.067 -0.217,-0.118c-0.332,-0.255 -1.461,-1.125 -2.89,-2.226c-4.926,-3.794 -6.313,-10.632 -3.256,-16.046c0.549,-0.972 0.977,-1.729 1.168,-2.068c0.073,-0.128 0.165,-0.245 0.274,-0.344c0.543,-0.498 2.379,-2.181 4.666,-4.278c2.214,-2.029 5.419,-2.559 8.168,-1.35c2.75,1.21 4.525,3.93 4.525,6.934l0,0.436c0,0.053 0.006,0.105 0.016,0.157c0.133,0.657 1.092,5.381 1.94,9.562c0.868,4.276 0.07,8.723 -2.23,12.43c-1.363,2.197 -2.862,4.612 -4.003,6.452c-1.165,1.877 -3.207,3.029 -5.415,3.056c-1.242,0.015 -2.681,0.032 -4.099,0.049c-1.616,0.02 -3.149,-0.715 -4.147,-1.986c-0.998,-1.272 -1.346,-2.936 -0.942,-4.501c0.024,-0.095 0.049,-0.191 0.074,-0.287c2.298,-8.907 11.225,-14.406 20.214,-12.452c2.888,0.628 5.463,1.188 6.993,1.521c1.553,0.338 3.026,0.973 4.336,1.872c4.538,3.109 5.191,7.772 3.108,15.803c-0.185,0.712 -0.336,1.432 -0.452,2.159c-1.466,9.31 -9.198,10.766 -18.249,9.61c-3.636,-0.461 -6.889,-2.486 -8.909,-5.543c-2.02,-3.057 -2.606,-6.844 -1.605,-10.369c0.036,-0.128 0.062,-0.219 0.076,-0.267c0.007,-0.026 0.017,-0.051 0.028,-0.075c0.25,-0.522 3.117,-6.525 4.944,-10.351c0.993,-2.078 2.442,-3.905 4.24,-5.343c1.172,-0.938 2.622,-2.097 4.147,-3.318c6.363,-5.09 15.014,-6.256 22.498,-3.033c0.563,0.243 0.948,0.409 1.073,0.463c0.029,0.012 0.059,0.023 0.09,0.032c0.427,0.125 3.717,1.088 5.491,1.607c0.7,0.206 1.246,0.756 1.446,1.457c0.366,1.281 0.995,3.487 1.635,5.729c1.17,4.104 -1.186,8.385 -5.28,9.592c-0,0 -0.001,0 -0.001,0.001c-2.829,0.834 -5.865,-0.339 -7.399,-2.857c-1.535,-2.519 -1.184,-5.754 0.855,-7.886c1.479,-1.546 2.65,-2.77 3.269,-3.417c0.315,-0.33 0.721,-0.56 1.166,-0.661c0.766,-0.174 2.136,-0.485 3.912,-0.888c3.245,-0.736 5.528,-3.648 5.468,-6.974c-0.059,-3.327 -2.444,-6.156 -5.713,-6.776c-0.979,-0.186 -1.622,-0.308 -1.822,-0.346c-0.044,-0.008 -0.088,-0.013 -0.133,-0.013c-0.717,-0.012 -6.996,-0.117 -10.702,-0.178c-1.737,-0.029 -3.418,0.611 -4.696,1.787c-0.074,0.068 -0.149,0.137 -0.224,0.206c-1.938,1.784 -2.2,4.75 -0.603,6.845c1.018,1.336 2.17,2.848 3.2,4.2c1.922,2.521 4.593,4.366 7.631,5.271c0.489,0.145 0.946,0.281 1.325,0.394c0.701,0.209 1.429,0.315 2.16,0.315l5.823,0c2.464,0 4.821,-1.009 6.521,-2.793c0.622,-0.653 1.311,-1.376 2.019,-2.119c3.745,-3.93 4.439,-9.864 1.703,-14.553c-0.774,-1.325 -1.55,-2.655 -2.246,-3.847c-1.486,-2.545 -4.531,-3.729 -7.346,-2.856c-0.63,0.195 -1.158,0.359 -1.452,0.45c-0.162,0.05 -0.303,0.152 -0.403,0.289c-0.416,0.572 -1.625,2.234 -2.98,4.098c-3.07,4.222 -8.23,6.392 -13.395,5.632c-3.286,-0.483 -6.399,-0.941 -6.924,-1.018c-0.052,-0.008 -0.103,-0.016 -0.155,-0.024c-0.871,-0.137 -8.884,-1.397 -12.681,-1.995c-1.3,-0.204 -2.535,-0.711 -3.603,-1.48c-0.19,-0.136 -0.39,-0.281 -0.599,-0.431c-3.416,-2.458 -4.41,-7.105 -2.3,-10.746c0.685,-1.181 1.294,-2.231 1.646,-2.838c0.209,-0.36 0.5,-0.665 0.849,-0.891c0.535,-0.346 1.442,-0.933 2.573,-1.663c2.951,-1.908 6.719,-2.013 9.772,-0.273c3.053,1.74 4.883,5.036 4.745,8.547c-0.012,0.31 -0.021,0.545 -0.027,0.688c-0.004,0.108 -0.024,0.216 -0.06,0.318c-0.251,0.717 -1.327,3.798 -2.235,6.396c-0.87,2.491 -2.587,4.596 -4.85,5.951c-1.724,1.031 -3.643,2.179 -4.646,2.779c-0.464,0.278 -0.95,0.519 -1.452,0.721c-0.273,0.11 -0.606,0.244 -0.974,0.392c-3.058,1.229 -6.559,0.338 -8.657,-2.204c-0.106,-0.128 -0.212,-0.257 -0.318,-0.386c-2.599,-3.148 -2.696,-7.669 -0.234,-10.926c0.05,-0.065 0.088,-0.116 0.113,-0.149c0.024,-0.031 0.051,-0.059 0.081,-0.084c0.432,-0.349 3.843,-3.108 6.109,-4.94c1.323,-1.071 2.329,-2.483 2.908,-4.084c0.19,-0.526 0.399,-1.105 0.615,-1.703c1.323,-3.66 -0.012,-7.75 -3.239,-9.926c-1.525,-1.028 -3.029,-2.041 -4.002,-2.698c-0.711,-0.479 -1.552,-0.728 -2.409,-0.713c-0.67,0.012 -1.543,0.028 -2.493,0.045c-4.219,0.075 -7.723,3.278 -8.175,7.474l0,0c-0.186,1.727 0.428,3.444 1.666,4.663c1.238,1.218 2.964,1.804 4.688,1.591c0.658,-0.081 1.243,-0.154 1.685,-0.208c0.54,-0.067 1.017,-0.387 1.283,-0.863c0.692,-1.237 2.06,-3.681 2.762,-4.937c0.285,-0.509 0.393,-1.099 0.307,-1.675c-0.298,-1.996 -1.041,-6.982 -1.662,-11.146c-0.599,-4.011 -3.319,-7.386 -7.112,-8.822c-0.051,-0.02 -0.079,-0.03 -0.079,-0.03c0,0 -3.054,-1.477 -5.557,-2.686c-0.728,-0.352 -1.236,-1.039 -1.361,-1.838c-0.125,-0.799 0.15,-1.608 0.736,-2.165c-0,-0 -0,-0.001 0,-0.001c1.566,-1.489 3.696,-2.236 5.85,-2.049c2.154,0.187 4.124,1.289 5.41,3.026c0.245,0.33 0.484,0.654 0.716,0.967c0.097,0.131 0.076,0.315 -0.047,0.421c-0.124,0.107 -0.308,0.1 -0.424,-0.016c-0.001,-0.001 -0.002,-0.001 -0.002,-0.002c-0.802,-0.802 -1.244,-1.895 -1.224,-3.029c0.02,-1.134 0.499,-2.211 1.329,-2.984c1.487,-1.387 3.117,-2.908 3.966,-3.699c0.39,-0.363 0.837,-0.659 1.323,-0.875c0.001,-0 0.001,-0.001 0.001,-0.001c3.901,-1.733 8.464,-0.929 11.537,2.034c3.074,2.963 4.045,7.493 2.455,11.455c-0.147,0.366 -0.228,0.568 -0.228,0.569c-0.006,0.012 -0.011,0.025 -0.016,0.038c-1.185,2.884 -2.595,4.972 -4.089,6.413c-2.224,2.137 -5.717,2.209 -8.027,0.165c-2.31,-2.043 -2.665,-5.518 -0.815,-7.987c0.325,-0.435 0.639,-0.854 0.928,-1.24c0.764,-1.018 1.951,-1.633 3.223,-1.669c1.544,-0.04 2.997,-1.136 4.383,-2.805c2.535,-3.053 6.449,-4.607 10.388,-4.127c3.939,0.48 7.364,2.929 9.092,6.502c0.162,0.332 0.281,0.579 0.351,0.723c0.047,0.098 0.079,0.202 0.096,0.309c0.131,0.844 0.761,4.896 1.504,9.679c0.437,2.815 -0.938,5.602 -3.439,6.967c-2.501,1.364 -5.589,1.013 -7.72,-0.879c-0.478,-0.424 -0.898,-0.797 -1.241,-1.102c-0.65,-0.577 -1.042,-1.39 -1.089,-2.258c-0.104,-1.946 -0.296,-5.555 -0.423,-7.928c-0.076,-1.427 0.641,-2.779 1.864,-3.517c1.233,-0.745 2.646,-1.598 2.991,-1.806c0.052,-0.032 0.11,-0.053 0.17,-0.063c0.829,-0.135 7.102,-1.156 9.947,-1.62c0.915,-0.149 1.852,-0.06 2.723,0.257c0.45,0.164 0.995,0.363 1.602,0.584c2.444,0.891 4.278,2.949 4.884,5.478c0.605,2.53 -0.098,5.195 -1.873,7.096c-0.267,0.286 -0.514,0.551 -0.736,0.789c-0.727,0.778 -0.977,1.887 -0.654,2.901c0.109,0.341 0.23,0.723 0.361,1.134c0.6,1.884 0.303,3.94 -0.805,5.577c-1.109,1.638 -2.906,2.678 -4.879,2.821c-3.556,0.25 -6.996,1.469 -8.737,4.569c-0.636,1.138 -1.691,1.983 -2.94,2.356c-0.664,0.199 -1.441,0.431 -2.282,0.682c-2.297,0.685 -4.785,0.079 -6.509,-1.587c-1.724,-1.666 -2.417,-4.131 -1.811,-6.451c0.227,-0.869 0.447,-1.714 0.653,-2.502c0.774,-2.961 3.193,-5.206 6.203,-5.757c3.677,-0.672 8.853,-1.618 13.558,-2.478c6.847,-1.251 13.671,2.301 16.574,8.627c0.175,0.382 0.333,0.726 0.468,1.019c0.31,0.676 0.278,1.459 -0.085,2.108c-0.846,1.509 -2.457,4.382 -3.714,6.625c-1.095,1.954 -3.14,3.184 -5.379,3.235c-0.982,0.022 -2.082,0.048 -3.192,0.073c-1.718,0.039 -3.35,-0.747 -4.39,-2.115c-1.04,-1.368 -1.361,-3.151 -0.863,-4.796c0.027,-0.089 0.051,-0.169 0.072,-0.238c0.052,-0.171 0.16,-0.319 0.308,-0.42c2.546,-1.718 -1.902,-13.095 7.624,-6.295c0.923,0.659 1.909,1.225 2.944,1.689c1.674,0.751 4.318,1.936 6.735,3.02c3.439,1.542 5.641,4.971 5.614,8.739c-0.001,0.138 -0.002,0.273 -0.003,0.403c-0.009,1.184 -0.806,2.217 -1.949,2.525c-2.695,0.727 -7.461,2.013 -9.348,2.522c-0.527,0.142 -1.079,0.167 -1.618,0.073c-0.357,-0.063 -0.815,-0.142 -1.334,-0.233c-1.745,-0.305 -3.524,0.315 -4.701,1.639c-1.178,1.324 -1.586,3.163 -1.08,4.861c0,-0 0,0 0.001,0c0.783,2.626 2.65,4.792 5.132,5.954c2.481,1.162 5.34,1.209 7.859,0.13c1.035,-0.444 1.771,-0.759 1.923,-0.825c0.02,-0.008 0.04,-0.015 0.061,-0.021c0.334,-0.093 3.321,-0.923 6.201,-1.723c3.102,-0.862 4.963,-4.028 4.207,-7.157c-0.04,-0.166 -0.074,-0.308 -0.101,-0.419c-0.043,-0.176 -0.145,-0.332 -0.289,-0.441c-1.011,-0.768 -5.236,-3.978 -7.941,-6.033c-1.534,-1.165 -3.3,-1.986 -5.179,-2.408c-1.133,-0.255 -2.418,-0.543 -3.481,-0.782c-1.459,-0.328 -2.977,-0.278 -4.411,0.143c-1.227,0.361 -2.837,0.835 -4.475,1.317c-4.658,1.37 -8.362,4.915 -9.934,9.508c-0.181,0.528 -0.366,1.068 -0.553,1.614c-2.671,7.802 -0.552,16.445 5.423,22.127c0.386,0.367 0.699,0.665 0.913,0.868c0.208,0.198 0.464,0.341 0.743,0.414c2.419,0.637 14.351,3.779 14.351,3.779c0,-0 0.041,0.013 0.117,0.038c1.655,0.539 3.021,1.727 3.784,3.291c0.763,1.565 0.859,3.373 0.265,5.009c-0.266,0.731 -0.537,1.477 -0.802,2.209c-1.471,4.049 -4.414,7.395 -8.242,9.37c-0.303,0.157 -0.606,0.313 -0.907,0.468c-3.344,1.725 -7.249,2.003 -10.803,0.767c-1.31,-0.455 -2.724,-0.947 -4.089,-1.422c-4.497,-1.563 -8.142,-4.923 -10.065,-9.278c-0.057,-0.128 -0.098,-0.22 -0.12,-0.269c-0.011,-0.027 -0.021,-0.055 -0.027,-0.083c-0.055,-0.232 -0.329,-1.387 -0.683,-2.879c-1.204,-5.081 1.051,-10.353 5.557,-12.992c0.229,-0.134 0.453,-0.265 0.667,-0.391c1.64,-0.96 3.477,-1.534 5.372,-1.677c1.42,-0.108 3.194,-0.242 4.924,-0.373c4.108,-0.311 7.754,-2.748 9.612,-6.425c0.405,-0.802 0.814,-1.611 1.201,-2.376c1.314,-2.601 1.018,-5.725 -0.762,-8.033c-2.11,-2.736 -4.933,-6.396 -6.94,-8.998c-1.635,-2.121 -2.677,-4.638 -3.018,-7.294c-0.222,-1.727 -0.488,-3.8 -0.744,-5.792c-0.516,-4.015 -2.778,-7.598 -6.181,-9.791c-3.403,-2.193 -7.601,-2.772 -11.471,-1.583c-2.707,0.842 -5.387,2.196 -7.917,3.858c-2.887,1.89 -6.74,1.254 -8.866,-1.464c-0.982,-1.251 -1.972,-2.517 -2.755,-3.518c-0.932,-1.192 -1.009,-2.842 -0.192,-4.115c0.087,-0.135 0.176,-0.275 0.269,-0.42c2.145,-3.342 5.808,-5.402 9.778,-5.499c3.97,-0.096 7.73,1.784 10.034,5.019c1.896,2.681 3.805,5.313 5.725,7.893c1.028,1.371 1.187,3.207 0.408,4.734c-0.778,1.526 -2.358,2.477 -4.071,2.449c-0.001,0.002 -0.001,0.002 -0.002,0.002c-1.855,-0.03 -3.58,0.955 -4.497,2.568c-0.917,1.614 -0.881,3.599 0.093,5.178c1.543,2.5 3.242,5.254 4.764,7.72c2.754,4.464 2.428,10.173 -0.817,14.294c-0.993,1.261 -2.039,2.59 -3.06,3.886c-1.365,1.733 -3.538,2.623 -5.726,2.343c-2.188,-0.279 -4.069,-1.686 -4.954,-3.706c-0,0 -0,-0 -0.001,-0c-0.704,-1.606 -0.372,-3.477 0.841,-4.742c1.213,-1.266 3.069,-1.676 4.703,-1.041c3.375,1.313 7.13,2.774 10.398,4.045c5.106,1.986 8.439,6.938 8.357,12.416c-0.057,3.877 -0.125,8.452 -0.187,12.6c-0.035,2.382 -1.376,4.552 -3.489,5.651c-2.114,1.099 -4.661,0.949 -6.631,-0.391c-0,0 -0,0 -0,-0c-1.726,-1.174 -2.591,-3.259 -2.203,-5.309c0.388,-2.051 1.956,-3.676 3.992,-4.137c3.904,-0.884 8.032,-1.819 11.1,-2.514c2.912,-0.66 5.945,0.42 7.784,2.773l0,-0c2.251,2.879 2.718,6.769 1.212,10.099c-1.506,3.33 -4.736,5.549 -8.384,5.76c-1.045,0.06 -2.071,0.119 -3.059,0.177c-4.721,0.273 -8.83,3.319 -10.464,7.757c-1.393,3.779 -4.233,4.498 -7.217,3.26c-2.577,-1.074 -4.548,-3.232 -5.384,-5.896c-1.109,-3.536 -3.117,-9.938 -4.281,-13.649c-0.572,-1.826 -1.901,-3.319 -3.648,-4.099c0,-0 0,-0 0,-0c-0.699,-0.313 -1.497,-0.312 -2.196,0.001c-0.698,0.313 -1.23,0.909 -1.462,1.638c-0.199,0.625 -0.421,1.324 -0.657,2.066c-0.86,2.702 -0.348,5.653 1.37,7.908c1.719,2.255 4.428,3.531 7.262,3.42c0.383,-0.015 0.647,-0.026 0.754,-0.03c0.036,-0.001 0.071,-0.007 0.105,-0.016c12.989,-3.477 29.94,-4.327 39.42,-9.383c2.781,-1.483 4.712,-4.177 5.225,-7.286c0.512,-3.11 -0.453,-6.281 -2.611,-8.578c-6.572,-6.995 -18.036,-19.198 -18.036,-19.198" style="fill-opacity:0;stroke:#000;stroke-width:2.81px;"/></g><path d="M0.068,2.718l30.536,0l-0,41.902l0.339,-0l4.072,-41.902l30.366,0l-7.295,54.286l8.652,64.294l-31.045,0l-4.75,-51.571l-0.339,0l-0,51.571l-30.536,0l0,-118.58Z" style="fill-rule:nonzero;"/><path d="M285.569,10.357c0,0 0.722,0.719 1.792,1.785c1.541,1.536 2.019,3.843 1.215,5.865c-0.804,2.022 -2.735,3.37 -4.91,3.428c-0.71,0.019 -1.345,0.036 -1.869,0.05c-0.974,0.025 -1.921,-0.321 -2.648,-0.97c-1.084,-0.967 -2.687,-2.398 -3.611,-3.222c-0.465,-0.415 -0.744,-1 -0.774,-1.623c-0.002,-0.031 -0.003,-0.063 -0.005,-0.095c-0.084,-1.747 0.681,-3.428 2.053,-4.513c1.373,-1.085 3.185,-1.441 4.866,-0.955c2.076,0.599 4.068,1.174 5.155,1.488c0.567,0.164 1.124,0.363 1.666,0.595c0.639,0.274 1.588,0.68 2.601,1.114c3.078,1.318 5.119,4.293 5.243,7.638c0.029,0.775 0.058,1.545 0.084,2.246c0.067,1.832 -0.812,3.57 -2.328,4.601c-0.669,0.455 -1.349,0.917 -1.855,1.261c-0.521,0.354 -1.164,0.482 -1.781,0.353c-1.485,-0.309 -4.505,-0.937 -7.787,-1.62c-2.439,-0.508 -4.381,-2.349 -5.018,-4.757c-0.637,-2.408 0.141,-4.969 2.01,-6.615c0.125,-0.111 0.237,-0.209 0.333,-0.294c0.279,-0.245 0.494,-0.553 0.629,-0.899c0.226,-0.579 0.61,-1.561 1.001,-2.563c0.798,-2.043 2.767,-3.387 4.96,-3.387c3.317,-0 8.336,-0 12.606,-0c4.744,-0 8.843,3.314 9.837,7.952c0.081,0.378 0.13,0.604 0.13,0.604c-0,0 -1.278,5.799 -2.246,10.194c-0.649,2.945 -2.961,5.24 -5.912,5.866c-0.095,0.02 -0.191,0.04 -0.287,0.061c-3.778,0.802 -7.525,-1.49 -8.533,-5.219c-0.478,-1.77 -0.962,-3.558 -1.322,-4.891c-0.373,-1.38 -0.175,-2.852 0.549,-4.086c0.705,-1.201 1.594,-2.714 2.212,-3.767c0.482,-0.821 1.253,-1.432 2.161,-1.715c2.59,-0.807 8.261,-2.574 12.918,-4.025c4.366,-1.36 9.124,-0.05 12.18,3.352c0.364,0.406 0.593,0.66 0.593,0.66c-0,-0 0.474,3.308 0.849,5.927c0.291,2.032 -0.105,4.103 -1.123,5.885c-0.254,0.444 -0.508,0.889 -0.736,1.288c-0.538,0.941 -1.45,1.609 -2.509,1.839c-1.466,0.319 -3.696,0.803 -5.828,1.267c-3.804,0.826 -7.775,-0.177 -10.73,-2.711c-0.001,-0.001 -0.002,-0.002 -0.002,-0.002c-0.65,-0.557 -0.987,-1.396 -0.904,-2.248c0.083,-0.852 0.576,-1.609 1.321,-2.03c0.504,-0.285 0.862,-0.487 0.862,-0.487c-0,0 0.977,0.131 2.34,0.314c4.769,0.639 8.352,4.676 8.42,9.488c-0,0.03 0,0.045 0,0.045c0,0 -0.049,2.639 -0.104,5.634c-0.089,4.817 -3.784,8.798 -8.582,9.245c-0.089,0.008 -0.173,0.016 -0.253,0.024c-0.565,0.052 -1.129,-0.103 -1.587,-0.437c-0.639,-0.468 -1.637,-1.196 -2.682,-1.959c-2.502,-1.826 -3.315,-5.196 -1.92,-7.962c0.087,-0.174 0.169,-0.336 0.243,-0.483c0.242,-0.48 0.734,-0.783 1.272,-0.783c0.653,-0 1.591,-0 2.532,-0c2.123,-0 4.043,1.261 4.887,3.209c0.334,0.772 0.689,1.591 1.015,2.343c0.791,1.827 1.008,3.852 0.623,5.805c-0.306,1.552 -0.625,3.171 -0.67,3.396c-0.003,0.018 -0.007,0.036 -0.011,0.053c-0.051,0.251 -0.46,2.242 -0.902,4.393c-0.72,3.504 -3.381,6.287 -6.849,7.163c-0.614,0.155 -1.216,0.308 -1.769,0.447c-1.679,0.425 -3.46,0.006 -4.774,-1.123c-1.056,-0.907 -2.355,-2.023 -3.515,-3.02c-1.841,-1.581 -2.595,-4.086 -1.933,-6.42c0.045,-0.159 0.09,-0.316 0.133,-0.47c0.395,-1.391 1.705,-2.319 3.148,-2.23c1.199,0.074 2.705,0.166 4.221,0.26c4.165,0.256 7.714,3.116 8.85,7.131c0.482,1.703 0.961,3.398 1.312,4.637c0.359,1.269 0.541,2.581 0.541,3.9c0,2.249 0,6.01 0,9.157c0,3.449 -1.646,6.692 -4.432,8.727c-0.19,0.139 -0.379,0.277 -0.566,0.414c-1.829,1.337 -4.305,1.369 -6.169,0.08c-0.406,-0.28 -0.826,-0.57 -1.245,-0.86c-2.299,-1.589 -2.885,-4.737 -1.31,-7.046c0.296,-0.435 0.576,-0.846 0.817,-1.199c0.481,-0.707 1.312,-1.092 2.163,-1.003c0.801,0.083 1.853,0.193 2.886,0.301c2.276,0.238 4.146,1.904 4.644,4.138c0.164,0.738 0.342,1.536 0.522,2.345c1.01,4.529 -0.236,9.265 -3.344,12.711c-0.509,0.564 -1.025,1.137 -1.533,1.7c-2.834,3.142 -7.464,3.91 -11.161,1.85c-0.183,-0.102 -0.356,-0.198 -0.517,-0.288c-0.747,-0.416 -1.205,-1.208 -1.193,-2.063c0.017,-1.253 0.043,-3.116 0.063,-4.557c0.018,-1.322 0.718,-2.541 1.85,-3.223c1.142,-0.689 2.4,-1.447 2.4,-1.447c0,0 3.301,-1.037 5.816,-1.827c1.827,-0.574 3.782,-0.601 5.624,-0.079c1.351,0.383 2.998,0.85 4.498,1.275c2.754,0.781 5.124,2.55 6.655,4.97c0.433,0.685 0.89,1.407 1.337,2.114c1.772,2.8 1.713,6.385 -0.149,9.127c-0.516,0.761 -0.999,1.472 -1.353,1.993c-0.371,0.546 -0.955,0.908 -1.609,0.998c-1.191,0.163 -3.266,0.446 -5.385,0.736c-4.16,0.568 -8.169,-1.786 -9.7,-5.696c-0.128,-0.328 -0.205,-0.525 -0.205,-0.525c-0,0 0.056,-0.66 0.131,-1.535c0.208,-2.423 2.221,-4.294 4.653,-4.322c2.131,-0.025 4.42,-0.052 5.222,-0.061c0.198,-0.003 0.396,0.01 0.592,0.037c0.04,0.006 0.084,0.012 0.132,0.018c2.039,0.282 3.49,2.128 3.282,4.176c-0.099,0.968 -0.206,2.023 -0.308,3.027c-0.289,2.843 -1.643,5.472 -3.789,7.359c-1.06,0.931 -2.249,1.977 -3.374,2.966c-2.759,2.425 -6.587,3.226 -10.087,2.111c-0.349,-0.111 -0.697,-0.222 -1.04,-0.332c-2.701,-0.86 -4.588,-3.301 -4.743,-6.131c-0.039,-0.713 -0.079,-1.464 -0.121,-2.22c-0.242,-4.457 2.55,-8.518 6.799,-9.886c0.182,-0.059 0.36,-0.116 0.533,-0.172c1.563,-0.503 3.272,0.047 4.248,1.367c1.708,2.309 4.488,6.068 7.025,9.499c1.415,1.914 1.887,4.367 1.282,6.669c-0.605,2.303 -2.221,4.207 -4.395,5.178c-0.106,0.048 -0.164,0.074 -0.164,0.074c-0,-0 -0.818,0.26 -2.053,0.652c-2.338,0.744 -4.896,0.161 -6.681,-1.521c-1.786,-1.683 -2.519,-4.202 -1.915,-6.58c0.079,-0.31 0.15,-0.588 0.21,-0.825c0.146,-0.576 0.507,-1.074 1.009,-1.392c1.205,-0.764 3.63,-2.301 6.022,-3.817c3.995,-2.532 6.389,-6.955 6.325,-11.683c-0.01,-0.703 -0.019,-1.401 -0.028,-2.067c-0.041,-2.965 -1.655,-5.686 -4.24,-7.141c-1.526,-0.859 -2.886,-1.625 -2.886,-1.625l-5.104,-0c-1.001,-0 -1.939,0.489 -2.512,1.31c-0.572,0.821 -0.707,1.87 -0.361,2.81c0.017,0.047 0.035,0.094 0.052,0.142c1.349,3.659 5.343,5.605 9.056,4.41c1.76,-0.567 3.693,-1.189 5.564,-1.792c5.43,-1.747 8.964,-6.977 8.56,-12.667c-0.012,-0.176 -0.024,-0.338 -0.034,-0.487c-0.044,-0.612 -0.327,-1.182 -0.79,-1.586c-1.024,-0.895 -2.985,-2.609 -4.879,-4.263c-3.032,-2.649 -7.158,-3.669 -11.076,-2.738c-0.452,0.108 -0.906,0.216 -1.353,0.322c-3.193,0.759 -5.454,3.602 -5.476,6.884c-0.003,0.384 -0.005,0.744 -0.007,1.061c-0.006,0.801 0.402,1.55 1.08,1.979c1.134,0.719 2.957,1.875 4.495,2.85c1.76,1.115 3.931,1.366 5.898,0.681c1.237,-0.431 2.69,-0.937 4.063,-1.415c3.012,-1.048 5.16,-3.725 5.531,-6.892c0.122,-1.034 0.247,-2.104 0.362,-3.085c0.281,-2.398 -0.726,-4.766 -2.648,-6.227c-1.463,-1.112 -3.246,-2.468 -4.9,-3.726c-2.873,-2.184 -6.948,-1.762 -9.313,0.964c-0,-0 -0,0 -0.001,0c-1.026,1.183 -1.465,2.766 -1.196,4.309c0.269,1.543 1.219,2.882 2.585,3.648c0.468,0.262 0.94,0.526 1.408,0.788c3.325,1.863 7.49,1.23 10.112,-1.537c0.752,-0.794 1.543,-1.629 2.327,-2.455c3.521,-3.716 4.111,-9.332 1.44,-13.699c-0.894,-1.461 -1.799,-2.942 -2.592,-4.238c-1.524,-2.491 -4.242,-4.002 -7.163,-3.981c-1.626,0.012 -3.471,0.026 -5.182,0.038c-1.464,0.011 -2.847,0.673 -3.773,1.807c-0.926,1.133 -1.3,2.621 -1.018,4.057c-0,0.001 -0,0.001 0,0.002c0.249,1.272 1.131,2.329 2.339,2.803c1.207,0.473 2.573,0.296 3.62,-0.469c1.907,-1.391 4.146,-3.026 6.266,-4.574c4.565,-3.331 6.411,-9.259 4.545,-14.593c-0.065,-0.184 -0.129,-0.369 -0.194,-0.554c-1.084,-3.098 -3.403,-5.608 -6.406,-6.932c-3.003,-1.324 -6.42,-1.344 -9.438,-0.055c-1.993,0.851 -3.434,1.467 -3.434,1.467c-8.372,4.107 -7.324,6.25 -4.268,7.974c3.718,2.132 8.307,2.046 11.943,-0.223c3.643,-2.257 8.422,-5.24 12.244,-7.625c3.947,-2.464 6.04,-7.048 5.315,-11.644c-0.059,-0.374 -0.095,-0.598 -0.095,-0.598c0,-0 -0.955,-1.268 -2.191,-2.908c-1.291,-1.714 -3.312,-2.723 -5.458,-2.727c-2.146,-0.004 -4.17,0.999 -5.468,2.709c-0.142,0.187 -0.274,0.362 -0.394,0.519c-0.434,0.573 -0.58,1.314 -0.393,2.008c0.334,1.248 0.887,3.31 1.303,4.86c0.344,1.282 1.328,2.294 2.6,2.674c3.079,0.92 8.878,2.651 12.017,3.589c1.428,0.426 2.905,0.663 4.394,0.705c0.476,0.013 1.002,0.028 1.549,0.043c3.801,0.107 7.191,-2.375 8.237,-6.03c0.184,-0.642 0.34,-1.19 0.443,-1.546c0.083,-0.293 0.109,-0.599 0.075,-0.901c-0.058,-0.512 -0.159,-1.403 -0.272,-2.408c-0.382,-3.383 -2.719,-6.225 -5.964,-7.254c-0.585,-0.185 -0.975,-0.309 -0.975,-0.309l-0.31,0c-3.282,0 -5.943,2.661 -5.943,5.943c0,0.622 0,1.231 0,1.79c0,1.808 0.433,3.59 1.263,5.197c0.967,1.873 2.305,4.462 3.324,6.435c0.951,1.842 2.606,3.22 4.588,3.823c0.001,0.001 0.001,0.001 0.001,0.001c1.025,0.312 2.133,0.176 3.052,-0.374c0.919,-0.549 1.563,-1.462 1.773,-2.512c0.267,-1.338 0.497,-2.487 0.497,-2.487c-0,0 -0.324,-1.145 -0.674,-2.385c-0.548,-1.939 -1.926,-3.537 -3.763,-4.365c-2.301,-1.038 -5.134,-2.315 -5.134,-2.315" style="fill:none;stroke:#000;stroke-width:3px;stroke-linecap:square;"/><path d="M340.283,10.017c0,0 -0.054,-0.127 -0.15,-0.348c-0.479,-1.114 -0.237,-2.407 0.613,-3.272c0.849,-0.865 2.138,-1.13 3.26,-0.671c0.696,0.285 1.341,0.549 1.872,0.766c0.91,0.373 1.642,1.082 2.043,1.98c0.437,0.979 1.028,2.303 1.517,3.397c0.582,1.303 0.65,2.778 0.189,4.129c-0.02,0.059 -0.04,0.119 -0.061,0.179c-0.77,2.262 -2.954,3.734 -5.34,3.599c-0.829,-0.046 -1.708,-0.096 -2.557,-0.144c-2.631,-0.148 -4.689,-2.325 -4.689,-4.96l0,-0.141c0,-1.506 1.143,-2.766 2.642,-2.912c2.035,-0.198 4.606,-0.449 5.247,-0.511c0.1,-0.01 0.2,-0.021 0.299,-0.035c0.886,-0.119 5.546,-0.744 9.316,-1.25c3.07,-0.412 6.107,0.967 7.817,3.55c0.001,0.002 0.002,0.003 0.003,0.004c0.945,1.428 1.14,3.227 0.52,4.824c-0.619,1.597 -1.974,2.795 -3.635,3.212c-0.088,0.022 -0.172,0.043 -0.251,0.063c-0.504,0.127 -1.037,0.081 -1.513,-0.131c-0.384,-0.171 -0.896,-0.399 -1.477,-0.659c-3.828,-1.706 -5.603,-6.147 -4.007,-10.022c0.072,-0.175 0.14,-0.341 0.204,-0.496c0.319,-0.773 1.029,-1.316 1.858,-1.421c1.393,-0.176 3.575,-0.452 5.103,-0.645c1.155,-0.146 2.328,-0.048 3.443,0.288c1.267,0.381 3.025,0.91 4.476,1.347c1.562,0.47 2.631,1.908 2.631,3.539l-0,0.345c-0,0.777 -0.521,1.459 -1.271,1.664c-1.542,0.421 -4.182,1.143 -6.176,1.687c-1.632,0.446 -3.376,-0.058 -4.518,-1.306c-0.034,-0.037 -0.067,-0.073 -0.099,-0.109c-0.394,-0.43 -0.446,-1.073 -0.125,-1.561c0.498,-0.757 1.278,-1.944 2.088,-3.177c1.977,-3.01 5.444,-4.696 9.033,-4.395c0.592,0.05 1.201,0.101 1.815,0.153c4.916,0.413 8.701,4.514 8.72,9.447c0.002,0.547 0.004,1.037 0.005,1.438c0.003,0.721 -0.198,1.428 -0.58,2.04c-0.474,0.759 -1.173,1.879 -1.856,2.972c-1.331,2.132 -3.725,3.36 -6.233,3.196c-1.41,-0.091 -2.967,-0.193 -4.287,-0.279c-1.816,-0.118 -3.304,-1.485 -3.575,-3.285c-0.018,-0.117 -0.035,-0.232 -0.052,-0.342c-0.103,-0.684 0.252,-1.355 0.876,-1.654c0.738,-0.354 1.77,-0.85 2.78,-1.334c2.164,-1.038 4.669,-1.092 6.875,-0.148c0.871,0.372 1.781,0.761 2.569,1.098c1.433,0.613 2.7,1.558 3.695,2.757c0.322,0.388 0.672,0.809 1.023,1.232c1.658,1.996 2.022,4.767 0.937,7.124c-0.254,0.55 -0.512,1.109 -0.756,1.64c-0.845,1.835 -2.657,3.034 -4.676,3.095c-1.342,0.04 -2.876,0.086 -4.163,0.125c-1.706,0.052 -3.283,-0.905 -4.025,-2.442c-0.005,-0.011 -0.011,-0.022 -0.016,-0.033c-1.03,-2.131 -0.153,-4.693 1.965,-5.747c1.155,-0.575 2.274,-1.131 2.868,-1.427c0.289,-0.144 0.606,-0.226 0.929,-0.241c1.224,-0.056 4.464,-0.203 6.532,-0.298c1.208,-0.055 2.416,0.114 3.563,0.497c0.315,0.105 0.647,0.217 0.973,0.325c1.381,0.462 2.513,1.47 3.132,2.789c0.268,0.57 0.552,1.175 0.796,1.697c0.429,0.914 0.65,1.912 0.647,2.922c-0.004,1.217 -0.01,2.995 -0.016,4.72c-0.011,3.34 -1.718,6.446 -4.532,8.245c-0.035,0.023 -0.071,0.045 -0.106,0.068c-1.601,1.024 -3.465,1.561 -5.366,1.547c-1.742,-0.013 -3.938,-0.029 -5.633,-0.042c-0.702,-0.005 -1.373,-0.292 -1.862,-0.796c-0.488,-0.504 -0.755,-1.183 -0.738,-1.885c0,-0.012 0,-0.023 0.001,-0.035c0.026,-1.124 0.945,-2.022 2.069,-2.022c0.595,0 1.24,0 1.815,0c1.024,0 1.928,0.672 2.222,1.654c0.093,0.308 0.194,0.644 0.299,0.994c0.362,1.204 0.197,2.506 -0.452,3.582c-0.65,1.077 -1.724,1.829 -2.958,2.071c-0.175,0.034 -0.348,0.068 -0.515,0.101c-1.393,0.273 -2.792,-0.443 -3.385,-1.733c-0.68,-1.477 -1.534,-3.335 -2.007,-4.363c-0.23,-0.5 -0.275,-1.065 -0.128,-1.596c0.352,-1.263 1.043,-3.743 1.589,-5.7c0.51,-1.831 1.54,-3.474 2.965,-4.731c0.152,-0.134 0.306,-0.269 0.459,-0.405c1.622,-1.43 3.738,-2.174 5.898,-2.072c0.003,0 0.007,0 0.01,0c2.244,0.106 4.349,1.113 5.839,2.794c0.35,0.395 0.694,0.783 0.996,1.124c0.652,0.735 1.008,1.684 1.002,2.666c-0.001,0.142 -0.002,0.29 -0.003,0.441c-0.015,2.17 -1.653,3.985 -3.811,4.221c-0.786,0.086 -1.582,0.173 -2.261,0.247c-1.177,0.129 -2.346,-0.295 -3.168,-1.146c-0.818,-0.847 -1.854,-1.922 -2.601,-2.695c-0.629,-0.652 -1.006,-1.507 -1.064,-2.411c-0.155,-2.402 -0.467,-7.268 -0.613,-9.536c-0.052,-0.808 -0.004,-1.619 0.143,-2.415c0.069,-0.369 0.148,-0.798 0.232,-1.251c0.495,-2.683 2.273,-4.952 4.759,-6.075c0.427,-0.193 0.838,-0.379 1.205,-0.544c0.961,-0.434 2.003,-0.659 3.057,-0.659c0.311,0 0.651,0 1.003,0c2.423,0 4.541,1.636 5.152,3.981c0.209,0.802 0.427,1.638 0.631,2.419c0.582,2.23 0.361,4.594 -0.624,6.678c-0.382,0.808 -0.784,1.66 -1.142,2.417c-0.729,1.541 -1.846,2.867 -3.242,3.846c-0.673,0.472 -1.357,0.952 -1.805,1.266c-0.338,0.237 -0.696,0.442 -1.07,0.614c-0.996,0.457 -3.13,1.438 -4.899,2.25c-1.807,0.83 -3.263,2.272 -4.11,4.071c-0.184,0.391 -0.371,0.788 -0.547,1.162c-0.598,1.27 -0.452,2.766 0.38,3.897c0.371,0.504 0.769,1.046 1.125,1.529c0.697,0.947 1.79,1.52 2.965,1.556c0.451,0.014 0.949,0.029 1.454,0.044c2.265,0.069 4.325,-1.304 5.135,-3.42c0.299,-0.784 0.588,-1.54 0.793,-2.074c0.189,-0.496 0.204,-1.042 0.04,-1.547c-0.027,-0.084 -0.056,-0.173 -0.086,-0.266c-0.901,-2.78 -3.873,-4.315 -6.66,-3.44c-1.984,0.623 -4.2,1.318 -5.941,1.864c-2.008,0.63 -3.762,1.89 -5.001,3.592c-1.196,1.643 -2.699,3.707 -3.717,5.105c-0.763,1.048 -1.311,2.237 -1.613,3.498c-0.185,0.775 -0.404,1.69 -0.611,2.556c-0.469,1.95 -0.016,4.009 1.228,5.583c0.946,1.191 2.207,1.97 5.204,0.489c1.005,-0.486 2.085,-0.797 3.194,-0.92c0.327,-0.045 0.693,-0.086 1.092,-0.13c3.411,-0.377 6.109,-3.061 6.503,-6.47c0.395,-3.409 -1.619,-6.638 -4.854,-7.784c-0.193,-0.068 -0.34,-0.12 -0.437,-0.155c-0.089,-0.031 -0.184,-0.044 -0.279,-0.036c-0.608,0.048 -3.027,0.242 -4.937,0.394c-1.61,0.129 -3.148,0.723 -4.427,1.711c-0.91,0.703 -2.018,1.56 -3.059,2.364c-2.151,1.662 -3.41,4.226 -3.41,6.944c-0,0.133 -0,0.258 -0,0.373c-0,0.474 0.145,0.937 0.416,1.327c0.055,0.079 0.112,0.161 0.167,0.24c0.245,0.353 0.693,0.504 1.102,0.371c2.069,-0.672 8.091,-2.629 8.091,-2.629c0,0 0.2,-0.268 0.542,-0.73c1.966,-2.649 5.205,-4.035 8.478,-3.631c3.274,0.405 6.077,2.538 7.339,5.586c0.339,0.818 0.64,1.545 0.884,2.134c0.416,1.007 0.384,2.143 -0.089,3.124c-0.482,1.001 -1.119,2.324 -1.664,3.454c-0.715,1.484 -2.075,2.553 -3.685,2.897c-1.335,0.285 -3.003,0.641 -4.52,0.964c-2.568,0.549 -5.229,-0.374 -6.906,-2.395c-0.068,-0.083 -0.132,-0.159 -0.19,-0.229c-0.216,-0.26 -0.281,-0.614 -0.174,-0.934c0.248,-0.734 0.672,-1.994 0.672,-1.994c-0,-0 2.645,-0.594 4.593,-1.031c1.327,-0.298 2.713,-0.193 3.979,0.302c1,0.391 2.192,0.857 3.089,1.207c0.889,0.347 1.712,0.845 2.432,1.472c0.501,0.435 1.107,0.963 1.673,1.455c1.133,0.985 1.705,2.465 1.53,3.955c-0.036,0.305 -0.073,0.619 -0.109,0.928c-0.185,1.569 -1.314,2.863 -2.844,3.257c-1,0.258 -2.176,0.562 -3.292,0.85c-2.385,0.615 -4.866,-0.581 -5.87,-2.83c-0.065,-0.145 -0.109,-0.243 -0.124,-0.278c-0.004,-0.009 -0.006,-0.019 -0.007,-0.029c-0.001,-0.049 -0.004,-0.212 -0.009,-0.441c-0.034,-1.636 1.218,-3.012 2.85,-3.132c2.904,-0.212 7.174,-0.523 8.909,-0.65c0.517,-0.038 1.035,-0.034 1.551,0.01c0.126,0.01 0.262,0.022 0.405,0.034c1.52,0.13 2.818,1.151 3.302,2.598c0.333,0.996 0.722,2.158 1.065,3.184c0.587,1.753 0.667,3.636 0.231,5.432c-0.09,0.373 -0.185,0.765 -0.282,1.164c-0.752,3.101 -3.527,5.284 -6.717,5.284c-0.091,-0 -0.157,-0 -0.195,-0c-0.024,-0 -0.047,-0.003 -0.071,-0.009c-0.216,-0.053 -1.406,-0.343 -2.667,-0.651c-1.942,-0.473 -3.308,-2.213 -3.308,-4.211l0,-0.059c0,-1.638 1.043,-3.094 2.594,-3.622c0.786,-0.267 1.659,-0.564 2.48,-0.843c1.959,-0.666 4.126,-0.137 5.558,1.357c0.936,0.976 1.997,2.083 2.873,2.997c1.15,1.199 1.674,2.866 1.418,4.507c-0.193,1.231 -0.425,2.718 -0.632,4.042c-0.345,2.21 -1.595,4.175 -3.45,5.425c-0.454,0.307 -0.909,0.614 -1.323,0.893c-1.046,0.705 -2.373,0.849 -3.546,0.384c-0.703,-0.278 -1.526,-0.604 -2.324,-0.919c-2.041,-0.808 -3.377,-2.786 -3.365,-4.982c0.006,-1.022 0.011,-1.86 0.011,-1.86c-0,0 0.805,-1.191 1.691,-2.504c1.367,-2.024 3.886,-2.934 6.232,-2.252c0.331,0.096 0.662,0.192 0.982,0.285c1.641,0.477 2.766,1.985 2.757,3.694c-0.001,0.237 -0.002,0.464 -0.004,0.67c-0.003,0.594 -0.373,1.123 -0.93,1.329c-1.196,0.443 -3.308,1.225 -4.858,1.798c-1.262,0.467 -2.618,0.622 -3.953,0.45c-1.661,-0.214 -4.026,-0.518 -5.852,-0.753c-1.766,-0.227 -3.409,-1.025 -4.681,-2.271c-0.256,-0.251 -0.515,-0.505 -0.761,-0.746c-0.917,-0.898 -1.322,-2.195 -1.079,-3.455c0.057,-0.296 0.116,-0.607 0.176,-0.918c0.344,-1.784 1.894,-3.08 3.711,-3.102c0.217,-0.002 0.422,-0.005 0.603,-0.007c0.48,-0.005 0.922,0.258 1.144,0.683c0.363,0.691 0.916,1.743 1.26,2.399c0.205,0.39 0.295,0.831 0.259,1.271c-0.095,1.157 -0.297,3.615 -0.479,5.834c-0.226,2.757 -1.842,5.208 -4.287,6.502c-0.493,0.26 -0.983,0.52 -1.44,0.761c-0.589,0.312 -1.283,0.355 -1.906,0.12c-0.624,-0.236 -1.116,-0.728 -1.351,-1.351c-0.001,-0 -0.001,-0 -0.001,-0.001c-0.21,-0.556 -0.14,-1.18 0.19,-1.675c0.329,-0.496 0.877,-0.802 1.472,-0.823c1.389,-0.05 3.1,-0.111 4.489,-0.16c1.674,-0.06 3.33,0.367 4.766,1.23c0.38,0.228 0.777,0.467 1.166,0.7c1.603,0.963 2.584,2.696 2.584,4.565c-0,1.659 -0,3.384 -0,3.384c-0,0 -0.432,0.821 -1.034,1.963c-0.954,1.81 -2.603,3.156 -4.568,3.726c-1.966,0.571 -4.079,0.317 -5.854,-0.701c-0.33,-0.19 -0.641,-0.368 -0.923,-0.53c-0.924,-0.53 -1.487,-1.521 -1.469,-2.586c0.002,-0.093 0.003,-0.188 0.005,-0.285c0.026,-1.505 0.754,-2.911 1.969,-3.8c1.215,-0.889 2.777,-1.158 4.219,-0.727c1.037,0.31 2.016,0.603 2.752,0.823c0.868,0.259 1.768,0.398 2.673,0.411c1.06,0.015 2.58,0.037 3.98,0.057c0.753,0.011 1.445,0.418 1.821,1.071c0.375,0.653 0.379,1.456 0.009,2.112c-0.053,0.095 -0.104,0.187 -0.154,0.274c-0.305,0.541 -0.925,0.823 -1.533,0.695c-6.286,-1.33 -11.345,-0.177 -15.586,2.626c-2.204,1.436 -4.894,1.922 -7.462,1.35c-0.517,-0.065 -1.039,-0.181 -1.56,-0.297c-3.474,-0.774 -6.185,-3.493 -6.947,-6.97c-0.056,-0.253 -0.098,-0.446 -0.122,-0.555c-0.015,-0.067 -0.017,-0.136 -0.007,-0.204c0.031,-0.204 0.106,-0.695 0.202,-1.33c0.509,-3.359 3.411,-5.832 6.809,-5.801c1.119,0.01 2.196,0.019 3.024,0.027c0.974,0.008 1.89,0.467 2.482,1.241c-0,0.001 0,0.001 0.001,0.002c1.205,1.579 1.702,3.588 1.372,5.547c-0.33,1.959 -1.457,3.694 -3.114,4.792c-0.723,0.48 -1.355,0.898 -1.788,1.185c-0.395,0.262 -0.86,0.397 -1.334,0.386c-1.71,-0.036 -6.137,-0.132 -10.092,-0.217c-4.314,-0.093 -8.063,-2.99 -9.24,-7.142c-0.594,-2.094 -1.091,-3.845 -1.091,-3.845c-0,-0 0.029,-0.26 0.076,-0.692c0.463,-4.185 3.893,-7.417 8.097,-7.631c1.447,-0.06 2.529,-0.381 3.277,-0.931c2.806,-2.061 6.713,-1.684 9.073,0.877c0.047,0.071 0.108,0.129 0.17,0.187c2.907,3.147 3.237,7.892 0.793,11.411c-2.444,3.52 -7.005,4.868 -10.969,3.242c-1.806,-0.712 -3.161,-1.268 -3.919,-1.578c-0.446,-0.183 -0.824,-0.5 -1.082,-0.908c-0.97,-1.53 -3.513,-5.546 -5.341,-8.433c-1.302,-2.056 -1.753,-4.538 -1.258,-6.92c0.123,-0.596 0.253,-1.219 0.38,-1.832c0.573,-2.755 2.778,-4.877 5.553,-5.343c1.542,-0.258 2.877,-0.482 2.877,-0.482c-0,-0 7.321,0.564 7.443,0.574c0.001,-0 0.002,0 0.003,0.001c0.024,0.012 0.359,0.19 0.933,0.493c3.193,1.69 4.935,5.243 4.317,8.803c-0.619,3.559 -3.457,6.316 -7.033,6.829c-0.067,0.01 -0.134,0.02 -0.2,0.029c-4.497,0.646 -8.703,-2.368 -9.537,-6.833c-0.724,-3.879 -1.554,-8.324 -2.102,-11.264c-0.394,-2.107 -0.052,-4.286 0.968,-6.171c0.358,-0.664 0.737,-1.364 1.087,-2.011c0.859,-1.588 2.464,-2.633 4.264,-2.775c1.025,-0.081 2.17,-0.172 3.164,-0.25c1.65,-0.131 3.298,0.272 4.702,1.147c0.203,0.127 0.414,0.259 0.629,0.392c2.624,1.637 3.82,4.835 2.913,7.792c-0.277,0.903 -0.479,1.563 -0.479,1.563c-0,0 -0.026,0.054 -0.075,0.156c-1.053,2.199 -3.269,3.604 -5.707,3.621c-2.439,0.016 -4.673,-1.36 -5.756,-3.544c-1.303,-2.628 -2.656,-5.357 -3.862,-7.79c-2.195,-4.427 -0.446,-9.795 3.935,-12.08c0.408,-0.213 0.654,-0.341 0.654,-0.341l3.857,-0c1.757,-0 3.429,0.761 4.582,2.087c0.264,0.303 0.531,0.61 0.782,0.898c0.805,0.925 1.117,2.179 0.841,3.374c-0.314,1.356 -0.733,3.163 -1.035,4.468c-0.248,1.072 -0.95,1.984 -1.922,2.498c-0.035,0.019 -0.071,0.038 -0.107,0.057c-2.581,1.365 -5.779,0.465 -7.269,-2.046c-1.079,-1.82 -2.339,-3.944 -3.485,-5.874c-1.985,-3.347 -1.358,-7.627 1.505,-10.264c0.022,-0.02 0.044,-0.04 0.065,-0.059c0.428,-0.394 0.989,-0.614 1.571,-0.615c1.045,-0.001 2.796,-0.004 4.167,-0.006c1.315,-0.002 2.604,0.36 3.726,1.045c0.103,0.063 0.203,0.124 0.297,0.182c0.423,0.258 0.752,0.644 0.939,1.102c0.29,0.707 0.748,1.823 1.13,2.754c0.405,0.99 0.142,2.129 -0.658,2.84c-0.532,0.473 -1.146,1.019 -1.69,1.502c-0.383,0.341 -0.888,0.512 -1.4,0.474c-0.511,-0.037 -0.985,-0.28 -1.315,-0.673c-0,-0.001 -0.001,-0.002 -0.002,-0.002c-1.195,-1.426 -1.613,-3.348 -1.117,-5.142c0.495,-1.793 1.841,-3.228 3.598,-3.838c1.367,-0.475 2.636,-0.915 3.531,-1.226c0.841,-0.292 1.758,-0.281 2.593,0.031c0.835,0.311 1.952,0.729 2.974,1.111c1.521,0.568 2.362,2.199 1.942,3.769c0,0 -0,0.001 -0,0.001c-0.28,1.044 -0.988,1.92 -1.949,2.413c-0.962,0.492 -2.087,0.554 -3.097,0.171c-1.365,-0.518 -2.852,-1.082 -4.059,-1.54c-1.598,-0.606 -3.009,-1.618 -4.096,-2.937c-1.549,-1.879 -3.867,-4.691 -5.539,-6.719c-1.344,-1.631 -2.079,-3.677 -2.079,-5.79l0,-1.668c0,-3.248 2.152,-6.102 5.274,-6.995c0.605,-0.173 1.205,-0.345 1.766,-0.505c1.873,-0.536 3.889,-0.006 5.257,1.381c0.756,0.767 1.586,1.609 2.283,2.315c1.046,1.061 1.837,2.345 2.313,3.756c0.64,1.894 1.548,4.584 2.061,6.104c0.251,0.742 0.186,1.555 -0.178,2.248c-0,0.001 -0.001,0.002 -0.001,0.003c-1.136,2.162 -3.544,3.337 -5.947,2.902c-2.403,-0.436 -4.246,-2.381 -4.55,-4.805c-0.4,-3.185 -0.776,-6.184 -1.051,-8.371c-0.284,-2.263 0.257,-4.552 1.525,-6.447c0.114,-0.171 0.23,-0.344 0.346,-0.518c0.724,-1.082 1.878,-1.801 3.168,-1.974c1.291,-0.173 2.593,0.217 3.576,1.071c0.346,0.3 0.569,0.493 0.569,0.493c0,0 0.122,0.679 0.326,1.812c0.651,3.611 -1.012,7.246 -4.169,9.115c-3.157,1.869 -7.143,1.578 -9.996,-0.729c-0.253,-0.204 -0.391,-0.316 -0.391,-0.316c-0,0 -1.787,-0.953 -3.693,-1.97c-2.77,-1.478 -4.487,-4.374 -4.455,-7.513c0.004,-0.461 0.009,-0.928 0.014,-1.388c0.03,-3.008 2.025,-5.641 4.913,-6.483c0.863,-0.252 1.636,-0.478 2.108,-0.616c0.318,-0.092 0.652,-0.116 0.98,-0.069c0.326,0.046 0.791,0.112 1.328,0.189c1.288,0.184 2.4,0.994 2.97,2.163c0.57,1.169 0.522,2.545 -0.126,3.672c-0.095,0.164 -0.185,0.32 -0.269,0.467c-0.423,0.735 -1.213,1.182 -2.061,1.165c-0.939,-0.018 -2.229,-0.044 -3.455,-0.068c-2.153,-0.042 -3.988,-1.569 -4.422,-3.678c-0.014,-0.067 -0.028,-0.135 -0.042,-0.203c-0.605,-2.946 1.212,-5.846 4.127,-6.586c1.48,-0.375 3.02,-0.766 4.245,-1.076c1.525,-0.387 3.142,-0.08 4.419,0.838c1.066,0.767 2.36,1.697 3.363,2.419c1.011,0.727 1.558,1.937 1.436,3.176c0,0 0,0.001 0,0.001c-0.135,1.378 -0.885,2.621 -2.041,3.382c-1.156,0.762 -2.594,0.961 -3.914,0.541c-0.387,-0.123 -0.772,-0.246 -1.146,-0.364c-2.159,-0.687 -3.647,-2.665 -3.709,-4.93c-0.019,-0.682 -0.039,-1.417 -0.059,-2.17c-0.058,-2.14 0.793,-4.205 2.343,-5.683c1.55,-1.477 3.654,-2.228 5.789,-2.067c0.151,0.011 0.301,0.023 0.451,0.034c1.782,0.134 3.425,1.014 4.524,2.423c1.099,1.409 1.553,3.217 1.249,4.978c-0.027,0.155 -0.053,0.306 -0.078,0.454c-0.25,1.453 -1.497,2.524 -2.97,2.553c-2.146,0.042 -5.143,0.1 -6.894,0.134c-0.923,0.018 -1.821,-0.298 -2.529,-0.89c-2.6,-2.175 -8.915,-7.458 -8.915,-7.458" style="fill:none;stroke:#000;stroke-width:3px;stroke-linecap:square;"/><path d="M406.907,7.229c-0,-0 0.439,1.098 0.893,2.23c0.598,1.493 0.28,3.197 -0.815,4.375c-0.249,0.268 -0.507,0.545 -0.762,0.819c-1.288,1.385 -3.315,1.798 -5.043,1.027c-0.266,-0.118 -0.527,-0.235 -0.771,-0.344c-0.878,-0.392 -1.45,-1.258 -1.466,-2.22c-0.009,-0.555 -0.019,-1.177 -0.027,-1.726c-0.015,-0.912 0.506,-1.749 1.331,-2.139c1.404,-0.663 3.657,-1.729 5.578,-2.637c2.326,-1.099 4.951,-1.393 7.462,-0.835c0.297,0.066 0.585,0.13 0.853,0.19c1.041,0.231 1.938,0.886 2.475,1.807c0.477,0.818 1.064,1.826 1.504,2.581c0.423,0.725 0.646,1.549 0.646,2.388c-0,0.217 -0,0.454 -0,0.706c-0,3.861 -2.655,7.215 -6.412,8.102c-0.36,0.085 -0.685,0.162 -0.958,0.227c-0.558,0.131 -1.145,0.052 -1.648,-0.222c-0.967,-0.527 -2.487,-1.356 -2.487,-1.356c0,-0 -0.007,-0.004 -0.023,-0.012c-2.612,-1.343 -3.866,-4.382 -2.961,-7.177c0.905,-2.795 3.702,-4.522 6.606,-4.079c4.208,0.642 7.033,1.073 7.033,1.073c0,-0 0.317,0.054 0.779,0.132c2.087,0.356 3.631,2.14 3.681,4.257c0.011,0.478 0.023,0.959 0.034,1.413c0.039,1.635 -0.405,3.246 -1.276,4.631c-1.084,1.722 -2.594,4.123 -3.619,5.752c-0.745,1.184 -1.747,2.186 -2.932,2.932c-0.395,0.248 -0.838,0.527 -1.307,0.822c-1.836,1.156 -4.076,1.477 -6.164,0.885c-2.087,-0.592 -3.825,-2.042 -4.781,-3.989c-0.137,-0.279 -0.265,-0.54 -0.38,-0.774c-0.375,-0.764 -0.303,-1.673 0.189,-2.368c0.641,-0.907 1.619,-2.288 2.74,-3.873c1.815,-2.565 4.871,-3.955 7.998,-3.635c3.126,0.319 5.838,2.298 7.097,5.177c0.15,0.344 0.235,0.539 0.235,0.539c0,-0 0.303,1.669 0.578,3.185c0.28,1.541 -0.087,3.13 -1.014,4.392c-0.782,1.064 -1.797,2.446 -2.839,3.864c-2.924,3.981 -8.341,5.185 -12.676,2.819c-0.001,-0.001 -0.001,-0.001 -0.002,-0.002c-1.25,-0.682 -2.036,-1.984 -2.057,-3.407c-0.021,-1.424 0.726,-2.749 1.955,-3.468c1.595,-0.933 3.123,-1.827 4.028,-2.357c0.538,-0.315 1.179,-0.4 1.78,-0.238c1.112,0.299 2.961,0.798 4.144,1.117c0.702,0.189 1.274,0.695 1.548,1.368c0.776,1.903 2.349,5.766 2.706,6.642c0.048,0.119 0.095,0.239 0.139,0.361c0.115,0.32 0.375,1.037 0.705,1.949c1.674,4.622 -0.425,9.76 -4.856,11.888c-0.429,0.207 -0.81,0.389 -1.116,0.536c-0.516,0.248 -1.104,0.297 -1.654,0.138c-1.275,-0.37 -3.785,-1.098 -6.184,-1.793c-1.333,-0.387 -2.393,-1.401 -2.838,-2.716c-0.445,-1.315 -0.218,-2.765 0.607,-3.881c0.027,-0.038 0.054,-0.074 0.08,-0.109c0.372,-0.504 0.931,-0.836 1.551,-0.922c0.898,-0.124 2.309,-0.319 3.758,-0.52c3.295,-0.456 6.545,1.093 8.266,3.939c0.766,1.268 1.588,2.628 2.331,3.856c1.497,2.477 1.472,5.586 -0.065,8.039c-0.158,0.251 -0.319,0.508 -0.482,0.768c-2.599,4.148 -7.993,5.532 -12.268,3.147c-0.084,-0.047 -0.168,-0.093 -0.251,-0.14c-2.273,-1.267 -3.297,-3.992 -2.421,-6.442c0.729,-2.04 1.574,-4.404 2.182,-6.106c0.502,-1.405 1.776,-2.39 3.263,-2.523c0.702,-0.062 1.446,-0.128 2.07,-0.183c0.902,-0.08 1.769,0.371 2.221,1.156c1.215,2.112 3.689,6.409 5.604,9.736c1.641,2.851 1.88,6.298 0.647,9.348c-0.087,0.215 -0.174,0.431 -0.261,0.646c-1.078,2.669 -3.715,4.374 -6.591,4.263c-1.381,-0.053 -2.833,-0.109 -4.016,-0.155c-1.53,-0.058 -2.878,-1.024 -3.425,-2.454c-0.264,-0.688 -0.499,-1.303 -0.567,-1.481c-0.013,-0.034 -0.02,-0.07 -0.02,-0.106c-0.001,-0.091 -0.001,-0.295 -0.002,-0.597c-0.014,-3.763 2.491,-7.072 6.118,-8.078c3.627,-1.007 7.479,0.537 9.407,3.769c0.549,0.921 1.02,1.711 1.388,2.328c0.573,0.96 0.829,2.076 0.732,3.189c-0.119,1.371 -0.295,3.386 -0.467,5.375c-0.348,4.001 -3.096,7.387 -6.939,8.552c-0.581,0.176 -1.181,0.358 -1.792,0.543c-3.16,0.958 -6.578,0.534 -9.408,-1.167c-2.83,-1.701 -4.808,-4.52 -5.446,-7.76c-0.108,-0.549 -0.183,-0.93 -0.211,-1.07c-0.008,-0.04 -0.01,-0.08 -0.008,-0.121c0.016,-0.304 0.089,-1.711 0.177,-3.402c0.09,-1.713 0.961,-3.291 2.363,-4.279c1.403,-0.989 3.181,-1.278 4.825,-0.786c0.5,0.149 0.996,0.298 1.476,0.441c2.695,0.807 4.619,3.185 4.845,5.99c0.149,1.844 0.325,4.021 0.493,6.116c0.391,4.842 -2.615,9.312 -7.246,10.777c-0.074,0.023 -0.147,0.046 -0.218,0.069c-1.564,0.495 -3.269,-0.062 -4.239,-1.385c-0.244,-0.332 -0.502,-0.684 -0.765,-1.043c-1.778,-2.425 -1.334,-5.82 1.008,-7.707c0.835,-0.673 1.627,-1.311 2.19,-1.764c0.526,-0.424 1.21,-0.598 1.874,-0.478c1.312,0.238 3.664,0.665 5.913,1.073c3.65,0.662 6.84,2.862 8.755,6.039c0.447,0.741 0.889,1.473 1.281,2.123c0.883,1.465 1.009,3.264 0.339,4.837c-0.513,1.204 -1.126,2.643 -1.64,3.849c-0.674,1.583 -2.072,2.742 -3.752,3.113c-1.616,0.356 -3.785,0.834 -6.003,1.323c-1.648,0.363 -3.351,-0.308 -4.307,-1.697c-0.957,-1.389 -0.977,-3.22 -0.05,-4.629c0.317,-0.483 0.51,-0.776 0.51,-0.776c-0,-0 0.773,-0.382 1.938,-0.957c2.701,-1.335 5.848,-1.431 8.625,-0.265c2.778,1.166 4.913,3.481 5.852,6.343c0.111,0.339 0.211,0.644 0.296,0.904c0.205,0.626 0.136,1.309 -0.192,1.881c-0.514,0.897 -1.319,2.302 -1.962,3.425c-0.635,1.107 -1.78,1.825 -3.053,1.914c-2.178,0.152 -5.604,0.391 -7.727,0.54c-1.256,0.087 -2.517,-0.05 -3.724,-0.407c-1.299,-0.383 -3.075,-0.908 -4.601,-1.358c-1.869,-0.552 -3.152,-2.269 -3.152,-4.218l-0,-0.002c-0,-1.645 0.677,-3.216 1.872,-4.346c1.195,-1.13 2.802,-1.718 4.444,-1.625c1.089,0.061 2.175,0.122 3.126,0.175c1.887,0.106 3.576,1.204 4.439,2.886c0.463,0.902 1.009,1.966 1.586,3.091c1.348,2.626 1.59,5.682 0.672,8.487c-0.918,2.805 -2.919,5.127 -5.558,6.449c-0.191,0.096 -0.366,0.183 -0.52,0.261c-0.512,0.255 -1.099,0.314 -1.651,0.164c-0.773,-0.21 -1.978,-0.536 -3.219,-0.873c-2.67,-0.725 -4.298,-3.422 -3.695,-6.122c0.12,-0.541 0.201,-0.902 0.201,-0.902c0,-0 1.522,-1.065 3.18,-2.226c2.616,-1.83 5.958,-2.275 8.961,-1.193c0.911,0.328 1.878,0.676 2.829,1.018c3.832,1.38 6.387,5.015 6.387,9.087c-0,0.066 -0,0.13 -0,0.192c-0,0.782 -0.393,1.511 -1.045,1.941c-0.748,0.494 -1.799,1.187 -2.817,1.859c-1.964,1.295 -4.525,1.231 -6.422,-0.159c-0.381,-0.279 -0.778,-0.569 -1.18,-0.864c-1.252,-0.918 -1.993,-2.377 -1.995,-3.93c-0.002,-1.553 0.736,-3.015 1.987,-3.935c0.109,-0.081 0.217,-0.16 0.322,-0.238c1.373,-1.01 3.249,-0.99 4.601,0.05c0.002,0.002 0.004,0.003 0.006,0.005c1.448,1.115 2.091,2.986 1.634,4.755c-0.457,1.769 -1.926,3.094 -3.733,3.367c-3.021,0.457 -6.321,0.957 -9.375,1.418c-1.818,0.276 -3.621,-0.585 -4.551,-2.172c-0.93,-1.587 -0.799,-3.581 0.331,-5.033c0,0 0,-0 0,-0" style="fill:none;stroke:#000;stroke-width:3px;stroke-linecap:square;"/><path d="M450.724,99.565c0,0 1.43,1.662 2.824,3.283c1.622,1.886 2.106,4.497 1.268,6.838c-0,0.001 -0,0.001 -0.001,0.002c-0.894,2.499 -2.995,4.375 -5.579,4.981c-2.584,0.607 -5.3,-0.139 -7.213,-1.979c-0.653,-0.629 -1.292,-1.244 -1.894,-1.824c-2.47,-2.377 -3.231,-6.026 -1.915,-9.192c0.597,-1.439 1.23,-2.963 1.775,-4.274c0.914,-2.2 2.728,-3.904 4.981,-4.679c0.624,-0.214 1.233,-0.424 1.735,-0.596c0.788,-0.271 1.648,-0.247 2.42,0.068c0.037,0.015 0.075,0.03 0.114,0.046c2.442,0.996 3.787,3.629 3.163,6.191c-0.583,2.397 -1.185,4.867 -1.185,4.867c0,0 -1.032,0.746 -2.577,1.863c-2.574,1.861 -5.982,2.095 -8.786,0.604c-2.804,-1.491 -4.515,-4.448 -4.412,-7.622c0.106,-3.226 0.204,-6.225 0.27,-8.255c0.056,-1.716 0.641,-3.373 1.675,-4.743c1.458,-1.932 3.681,-4.878 5.632,-7.464c2.293,-3.039 6.549,-3.778 9.733,-1.691c0.052,0.034 0.102,0.067 0.15,0.098c0.467,0.306 0.808,0.77 0.961,1.307c0.234,0.82 0.605,2.123 0.95,3.331c0.525,1.841 0.021,3.822 -1.318,5.188c-0.241,0.246 -0.482,0.492 -0.71,0.724c-0.873,0.891 -2.126,1.3 -3.357,1.096c-1.214,-0.201 -2.82,-0.467 -4.311,-0.714c-2.649,-0.439 -4.925,-2.129 -6.11,-4.54c-1.078,-2.193 -2.425,-4.932 -3.499,-7.117c-1.173,-2.385 -1.136,-5.187 0.099,-7.541c0.208,-0.398 0.407,-0.777 0.581,-1.108c0.541,-1.031 1.368,-1.884 2.383,-2.455c4.51,-2.539 7.926,1.563 10.333,11.79c0.081,0.342 0.183,0.679 0.306,1.008c0.678,1.816 3.089,8.259 4.944,13.214c0.607,1.623 0.543,3.42 -0.177,4.995c-0.72,1.575 -2.038,2.799 -3.662,3.401c-0.365,0.135 -0.719,0.267 -1.054,0.391c-1.498,0.555 -3.184,0.121 -4.227,-1.09c-0.959,-1.112 -2.212,-2.566 -3.483,-4.042c-1.495,-1.734 -2.21,-4.008 -1.975,-6.286c0.234,-2.278 1.397,-4.359 3.214,-5.753c1.062,-0.815 1.986,-1.524 2.536,-1.946c0.357,-0.274 0.691,-0.576 0.999,-0.904c0.868,-0.923 2.809,-2.989 4.567,-4.859c2.132,-2.269 2.82,-5.538 1.783,-8.474c-0.131,-0.371 -0.262,-0.743 -0.391,-1.107c-0.849,-2.404 -2.753,-4.286 -5.166,-5.108c-0.867,-0.295 -1.807,-0.615 -2.735,-0.931c-3.253,-1.108 -6.81,0.477 -8.161,3.637c-0.048,0.11 -0.094,0.219 -0.139,0.325c-0.5,1.168 -0.387,2.509 0.301,3.577c0.389,0.603 0.841,1.303 1.283,1.99c1.23,1.908 3.534,2.826 5.74,2.288c0.46,-0.113 0.938,-0.23 1.419,-0.347c3.197,-0.781 5.381,-3.733 5.194,-7.018c-0.094,-1.641 -0.193,-3.391 -0.278,-4.881c-0.136,-2.376 -1.282,-4.581 -3.148,-6.057c-0.552,-0.436 -1.102,-0.871 -1.57,-1.241c-0.856,-0.677 -1.837,-1.179 -2.886,-1.477c-0.573,-0.163 -1.252,-0.356 -1.955,-0.556c-2.788,-0.793 -4.668,-3.396 -4.544,-6.292c0.012,-0.263 0.023,-0.519 0.033,-0.764c0.058,-1.358 0.833,-2.583 2.035,-3.218c0.197,-0.104 0.403,-0.213 0.615,-0.325c1.276,-0.674 2.771,-0.8 4.142,-0.351c1.371,0.45 2.5,1.437 3.129,2.736c0.416,0.858 0.718,1.481 0.718,1.481c5.481,4.905 4.544,9.865 0.779,14.85c-1.685,2.32 -4.88,2.936 -7.308,1.411c-0.014,0.018 -0.016,0.017 -0.018,0.016c-2.52,-1.584 -3.313,-4.89 -1.786,-7.445c0.836,-1.398 1.695,-2.834 2.305,-3.856c0.545,-0.912 1.445,-1.556 2.484,-1.778c0.57,-0.122 1.24,-0.265 1.926,-0.412c2.716,-0.58 4.964,-2.477 5.993,-5.057c0.073,-0.184 0.148,-0.372 0.224,-0.562c0.992,-2.488 0.726,-5.301 -0.713,-7.559c-1.44,-2.258 -3.878,-3.686 -6.552,-3.837c-0.781,-0.044 -1.47,-0.082 -2.01,-0.113c-0.808,-0.045 -1.615,0.121 -2.339,0.483c-0.32,0.16 -0.685,0.342 -1.062,0.531c-1.674,0.836 -2.437,2.809 -1.762,4.555c0.087,0.224 0.172,0.445 0.254,0.657c0.391,1.011 1.364,1.677 2.448,1.677c0.666,0 1.452,0 2.248,0c2.583,0 4.815,-1.805 5.354,-4.331c0.281,-1.316 0.585,-2.738 0.849,-3.973c0.429,-2.009 -0.336,-4.085 -1.966,-5.336c-1.49,-1.144 -3.051,-2.342 -3.051,-2.342c-0,-0 -0.655,0.042 -1.617,0.105c-1.643,0.107 -3.116,1.051 -3.899,2.499c-0.784,1.449 -0.767,3.198 0.043,4.632c0.033,0.059 0.066,0.117 0.099,0.175c1.671,2.958 5.369,4.085 8.407,2.563c0.618,-0.31 1.245,-0.624 1.856,-0.93c2.959,-1.484 4.759,-4.58 4.582,-7.886c-0.055,-1.046 -0.108,-2.037 -0.147,-2.753c-0.039,-0.734 -0.175,-1.459 -0.404,-2.157c-0.073,-0.22 -0.153,-0.465 -0.24,-0.729c-1.124,-3.416 -4.313,-5.725 -7.909,-5.725c-0.154,0 -0.307,0 -0.46,0c-2.564,0 -4.642,2.079 -4.642,4.643c-0,0.18 -0,0.286 -0,0.286c-0,0 0.351,0.936 0.823,2.195c0.583,1.554 1.861,2.744 3.451,3.217c1.591,0.473 3.311,0.173 4.648,-0.811c0.084,-0.061 0.129,-0.095 0.129,-0.095c0,0 3.831,-3.67 6.713,-6.432c0.668,-0.641 0.956,-1.582 0.759,-2.487c-0.196,-0.904 -0.849,-1.641 -1.722,-1.947c-0.001,0 -0.002,-0 -0.002,-0c-1.076,-0.376 -2.259,-0.291 -3.269,0.235c-1.011,0.525 -1.76,1.445 -2.069,2.541c-0.272,0.962 -0.543,1.922 -0.757,2.679c-0.257,0.908 0.06,1.88 0.802,2.462c1.242,0.974 3.196,2.507 4.749,3.725c1.554,1.219 3.491,1.846 5.464,1.769c0.714,-0.028 1.483,-0.058 2.224,-0.088c2.374,-0.093 4.552,-1.345 5.826,-3.351c0.282,-0.443 0.559,-0.879 0.808,-1.27c0.601,-0.947 0.757,-2.11 0.425,-3.182c-0.297,-0.961 -0.681,-2.203 -1.043,-3.372c-0.661,-2.138 -2.638,-3.596 -4.876,-3.596c-0.149,-0 -0.299,-0 -0.449,-0c-2.842,-0 -5.212,2.174 -5.455,5.006c-0.157,1.823 -0.313,3.638 -0.383,4.461c-0.027,0.306 -0.07,0.61 -0.129,0.91c-0.066,0.331 -0.166,0.832 -0.292,1.466c-0.658,3.311 0.868,6.674 3.794,8.36c2.925,1.685 6.599,1.319 9.134,-0.911c0.008,-0.007 0.015,-0.013 0.022,-0.02c0.495,-0.435 0.782,-1.06 0.79,-1.719c0.014,-1.341 0.039,-3.508 0.039,-3.508c-0,-0 -0.125,-0.158 -0.341,-0.432c-1.579,-2.005 -4.048,-3.098 -6.594,-2.918c-2.546,0.179 -4.837,1.608 -6.119,3.815c-1.646,2.833 -3.007,5.176 -3.007,5.176c-0,0 -0.024,0.162 -0.068,0.453c-0.406,2.704 0.765,5.402 3.018,6.951c2.252,1.549 5.191,1.676 7.57,0.329c0.68,-0.385 1.261,-0.714 1.696,-0.96c0.564,-0.319 1.057,-0.749 1.451,-1.263c0.418,-0.547 0.997,-1.303 1.533,-2.003c0.848,-1.108 0.814,-2.656 -0.083,-3.725c-0,-0.001 -0.001,-0.002 -0.002,-0.003c-0.413,-0.492 -1.065,-0.716 -1.694,-0.581c-0.628,0.136 -1.13,0.608 -1.304,1.227c-0.463,1.648 -1,3.56 -1.33,4.736c-0.207,0.736 -0.311,1.496 -0.31,2.261c0.001,0.756 0.002,1.792 0.003,2.821c0.003,2.11 1.714,3.819 3.824,3.819c0.253,0 0.41,0 0.41,0c0,0 0.968,-0.541 2.084,-1.165c0.848,-0.474 1.457,-1.285 1.675,-2.233c0.218,-0.947 0.026,-1.943 -0.53,-2.741c-0.06,-0.086 -0.119,-0.171 -0.177,-0.254c-0.607,-0.872 -1.727,-1.221 -2.722,-0.85c-2.645,0.988 -7.463,2.787 -7.463,2.787c0,0 -0.181,-0.007 -0.491,-0.018c-1.485,-0.057 -2.866,0.759 -3.534,2.087c-0.668,1.327 -0.499,2.923 0.432,4.081c1.182,1.473 2.336,2.909 3.175,3.954c0.853,1.061 1.953,1.898 3.203,2.435c0.382,0.164 0.78,0.335 1.153,0.495c1.069,0.46 2.274,0.495 3.368,0.098c0.447,-0.163 0.936,-0.34 1.41,-0.512c1.406,-0.51 2.325,-1.866 2.278,-3.36c0,-0.001 0,-0.001 0,-0.002c-0.019,-0.619 -0.292,-1.203 -0.755,-1.615c-0.462,-0.412 -1.074,-0.616 -1.692,-0.563c-0.212,0.018 -0.421,0.036 -0.617,0.053c-0.693,0.059 -1.242,0.61 -1.299,1.303c-0.113,1.379 -0.301,3.67 -0.44,5.375c-0.119,1.443 0.194,2.89 0.898,4.155c0.118,0.213 0.243,0.438 0.372,0.669c0.754,1.356 2.106,2.273 3.644,2.474c1.538,0.2 3.08,-0.341 4.156,-1.458c0.028,-0.029 0.055,-0.057 0.082,-0.085c0.419,-0.435 0.652,-1.015 0.651,-1.618c-0.001,-0.485 -0.002,-1.115 -0.004,-1.781c-0.004,-2.422 -1.644,-4.536 -3.988,-5.144c-0.29,-0.075 -0.587,-0.152 -0.888,-0.23c-1.926,-0.499 -3.974,-0.152 -5.627,0.955c-1.653,1.108 -2.754,2.869 -3.026,4.84c-0.11,0.802 -0.183,1.33 -0.183,1.33c0,0 0.114,0.909 0.26,2.072c0.382,3.047 2.411,5.636 5.278,6.736c1.159,0.445 2.286,0.877 3.044,1.168c0.609,0.234 1.281,0.247 1.899,0.039c0,-0 0.001,-0.001 0.001,-0.001c0.986,-0.333 1.797,-1.048 2.251,-1.985c0.454,-0.936 0.512,-2.016 0.161,-2.996c-0.156,-0.436 -0.313,-0.877 -0.466,-1.305c-0.684,-1.911 -2.495,-3.186 -4.524,-3.186c-0.082,-0 -0.148,-0 -0.193,-0c-0.046,-0 -0.091,0.01 -0.132,0.03c-0.185,0.091 -0.76,0.372 -1.437,0.703c-1.826,0.894 -2.984,2.75 -2.984,4.783c0,0.995 0,2.079 0,3.052c0,1.945 0.681,3.828 1.924,5.323c0.029,0.035 0.059,0.07 0.088,0.105c1.437,1.729 3.643,2.626 5.879,2.392c0.371,-0.039 0.744,-0.078 1.106,-0.116c1.663,-0.174 2.969,-1.502 3.117,-3.167c0.006,-0.063 0.011,-0.124 0.016,-0.184c0.051,-0.574 -0.289,-1.111 -0.829,-1.31c-0.819,-0.301 -2.045,-0.752 -3.07,-1.129c-1.169,-0.43 -2.474,-0.265 -3.498,0.444c-0.769,0.533 -1.718,1.19 -2.639,1.827c-2.204,1.526 -3.539,4.021 -3.585,6.701c-0.007,0.414 -0.014,0.814 -0.021,1.176c-0.018,1.068 0.204,2.126 0.649,3.096c0.197,0.428 0.417,0.907 0.633,1.378c0.691,1.505 2.188,2.475 3.843,2.492c0.502,0.004 0.993,0.009 1.39,0.013c0.563,0.006 1.092,-0.263 1.42,-0.72c0.607,-0.848 1.645,-2.297 2.581,-3.604c0.527,-0.735 0.731,-1.653 0.567,-2.542c-0.164,-0.889 -0.683,-1.673 -1.438,-2.172c-0,0 -0.001,-0 -0.001,-0c-1.132,-0.748 -2.564,-0.872 -3.808,-0.332c-1.244,0.54 -2.13,1.673 -2.356,3.01c-0.384,2.279 -0.773,4.582 -0.957,5.671c-0.073,0.432 -0.112,0.869 -0.116,1.307c-0.006,0.614 -0.015,1.583 -0.024,2.578c-0.021,2.172 1.46,4.07 3.572,4.577c0.225,0.055 0.363,0.088 0.363,0.088c0,-0 1.942,-0.45 3.921,-0.908c2.531,-0.586 4.49,-2.591 5.018,-5.135c0.058,-0.28 0.094,-0.454 0.094,-0.454c-0,-0 -0.088,-0.227 -0.239,-0.615c-0.628,-1.618 -2.182,-2.687 -3.918,-2.696c-1.736,-0.008 -3.299,1.047 -3.943,2.659c-0.199,0.5 -0.319,0.799 -0.319,0.799c0,0 0.187,2.939 0.366,5.759c0.199,3.131 2.141,5.883 5.023,7.121c0.233,0.1 0.441,0.19 0.613,0.263c0.338,0.145 0.698,0.232 1.064,0.257c0.001,-0 0.002,-0 0.003,-0c2.084,0.139 4.008,-1.117 4.719,-3.081c0.711,-1.964 0.036,-4.161 -1.654,-5.388c-0.21,-0.151 -0.325,-0.235 -0.325,-0.235c-0,-0 -2.172,-1.153 -3.451,-1.832c-0.602,-0.319 -1.262,-0.512 -1.941,-0.569c-0.298,-0.024 -0.644,-0.053 -1.016,-0.084c-2.905,-0.24 -5.642,1.391 -6.813,4.06c-0.177,0.403 -0.348,0.793 -0.505,1.151c-0.517,1.177 -0.754,2.458 -0.692,3.743c0.006,0.133 0.013,0.271 0.02,0.41c0.113,2.362 1.441,4.498 3.51,5.644c0.735,0.407 1.465,0.811 2.043,1.131c0.752,0.417 1.621,0.572 2.471,0.441c0.228,-0.035 0.477,-0.073 0.741,-0.114c3.352,-0.515 5.726,-3.546 5.423,-6.923c-0,-0.001 -0,-0.002 -0,-0.003c-0.086,-0.951 -0.65,-1.793 -1.497,-2.234c-0.848,-0.44 -1.861,-0.418 -2.689,0.058c-0.704,0.406 -1.293,0.745 -1.525,0.879c-0.07,0.041 -0.13,0.097 -0.175,0.164c-0.138,0.208 -0.471,0.707 -0.854,1.284c-1.095,1.644 -1.189,3.759 -0.246,5.494c0.33,0.607 0.684,1.258 1.03,1.895c1.258,2.313 3.712,3.719 6.344,3.633c0.112,-0.004 0.224,-0.008 0.335,-0.011c2.178,-0.071 3.906,-1.858 3.905,-4.037c0,-0.124 0,-0.243 -0,-0.353c-0,-0.501 -0.295,-0.956 -0.752,-1.162c-0.916,-0.412 -2.492,-1.12 -3.722,-1.673c-1.113,-0.501 -2.398,-0.44 -3.459,0.163c-1.752,0.996 -4.557,2.59 -6.871,3.905c-2.362,1.342 -3.609,4.036 -3.106,6.705c0.04,0.211 0.079,0.421 0.119,0.628c0.407,2.162 2.102,3.85 4.266,4.25c1.307,0.241 2.745,0.506 3.897,0.719c1.226,0.226 2.408,-0.568 2.662,-1.789c0.079,-0.381 0.136,-0.657 0.136,-0.657c0,-0 -1.798,-1.999 -3.363,-3.739c-0.422,-0.469 -1.076,-0.656 -1.682,-0.48c-0.606,0.175 -1.058,0.682 -1.164,1.304c-0,0.001 -0,0.002 -0,0.003c-0.283,1.663 0.198,3.364 1.31,4.632c1.112,1.268 2.736,1.968 4.422,1.904c1.359,-0.051 2.742,-0.103 3.964,-0.149c2.352,-0.088 4.367,-1.71 4.956,-3.989c0.08,-0.312 0.154,-0.595 0.213,-0.826c0.1,-0.388 0.013,-0.8 -0.236,-1.113c-0.463,-0.58 -1.254,-1.575 -1.96,-2.463c-0.293,-0.367 -0.763,-0.545 -1.226,-0.463c-0.462,0.083 -0.842,0.412 -0.99,0.858c-0,0.001 -0.001,0.002 -0.001,0.003c-0.389,1.175 -0.278,2.46 0.308,3.551c0.585,1.091 1.593,1.894 2.788,2.221c2.148,0.586 4.513,1.232 5.808,1.586c0.651,0.178 1.322,0.276 1.998,0.291c0.977,0.023 2.486,0.059 3.739,0.088c1.38,0.032 2.689,-0.608 3.511,-1.718c0.08,-0.108 0.161,-0.218 0.244,-0.329c1.324,-1.788 1.114,-4.282 -0.49,-5.824c-0.78,-0.749 -1.444,-1.387 -1.542,-1.482c-0.008,-0.008 -0.015,-0.017 -0.019,-0.028c-0.047,-0.132 -0.38,-1.052 -0.89,-2.464c-0.707,-1.956 -2.71,-3.128 -4.761,-2.788c-2.052,0.34 -3.569,2.096 -3.607,4.175c0,0.002 0,0.005 0,0.007c-0.026,1.391 0.509,2.733 1.483,3.725c0.974,0.993 2.307,1.552 3.697,1.552c0.579,-0 1.157,-0 1.706,-0c2.024,-0 3.77,-1.419 4.184,-3.4c0.719,-3.434 1.723,-8.234 1.723,-8.234c0,-0 0.125,-0.275 0.346,-0.76c1.392,-3.053 0.741,-6.648 -1.632,-9.019c-2.373,-2.371 -5.968,-3.019 -9.02,-1.625c-0.604,0.276 -1.206,0.551 -1.804,0.824c-2.093,0.956 -3.536,2.936 -3.805,5.222c-0.268,2.285 0.675,4.546 2.49,5.961c0.029,-0.023 0.036,-0.017 0.042,-0.012c1.466,1.147 3.377,1.557 5.184,1.113c1.807,-0.444 3.31,-1.694 4.077,-3.39c1.214,-2.608 2.377,-5.182 3.095,-6.771c0.475,-1.052 0.727,-2.192 0.738,-3.347c0.039,-4.04 0.132,-13.67 0.132,-13.67c0,-0 -0.245,-0.273 -0.646,-0.72c-1.366,-1.523 -3.452,-2.182 -5.445,-1.721c-1.993,0.461 -3.577,1.97 -4.136,3.938c-0.665,2.346 -1.288,4.541 -1.651,5.822c-0.218,0.769 -0.324,1.565 -0.315,2.364c0.02,1.879 0.058,5.294 0.058,5.294c-0,0 0.007,0.051 0.021,0.149c0.273,1.902 1.87,3.335 3.79,3.401c1.92,0.066 3.611,-1.254 4.014,-3.133c0.417,-1.946 0.817,-3.81 1.176,-5.486c0.4,-1.867 -0.013,-3.816 -1.135,-5.361c-1.122,-1.545 -2.848,-2.54 -4.747,-2.737c-0.001,0 -0.002,0 -0.003,0c-1.741,-0.18 -3.338,-1.051 -4.432,-2.418c-1.094,-1.366 -1.595,-3.114 -1.39,-4.853c0.123,-1.045 0.241,-2.053 0.339,-2.881c0.149,-1.271 0.924,-2.383 2.065,-2.963c2.083,-1.058 5.479,-2.785 7.643,-3.884c1.199,-0.61 2.657,-0.346 3.566,0.646c-0,0 0,0.001 0.001,0.001c1.588,1.734 2.186,4.157 1.585,6.43c-0.6,2.274 -2.317,4.085 -4.554,4.808c-0.646,0.209 -1.217,0.393 -1.67,0.539c-0.685,0.221 -1.434,0.113 -2.028,-0.294c-0.707,-0.485 -1.714,-1.174 -2.668,-1.828c-1.678,-1.149 -2.554,-3.152 -2.26,-5.164c0.263,-1.799 0.537,-3.666 0.537,-3.666c-0,0 1.543,-2.27 3.7,-5.443c1.534,-2.257 4.406,-3.181 6.968,-2.243c2.562,0.938 4.159,3.498 3.874,6.211c-0.001,0.003 -0.001,0.005 -0.001,0.007c-0.175,1.66 -1.309,3.063 -2.897,3.58c-1.587,0.517 -3.331,0.052 -4.449,-1.187c-1.951,-2.161 -3.844,-4.258 -4.836,-5.356c-0.453,-0.502 -1.103,-0.782 -1.779,-0.766c-0.369,0.008 -0.81,0.019 -1.284,0.03c-2.728,0.063 -5.063,-1.947 -5.406,-4.654c-0.077,-0.607 -0.156,-1.233 -0.235,-1.851c-0.407,-3.21 1.496,-6.264 4.556,-7.314c0.862,-0.296 1.723,-0.591 2.487,-0.853c1.739,-0.597 3.626,-0.601 5.367,-0.012c1.78,0.601 4.124,1.394 5.998,2.027c1.911,0.646 3.213,2.417 3.261,4.432c0,0.002 0,0.004 0,0.006c0.092,3.848 -2.713,7.155 -6.525,7.69c-3.812,0.536 -7.42,-1.869 -8.392,-5.594c-0.159,-0.61 -0.314,-1.21 -0.466,-1.8c-0.007,-0.027 -0.011,-0.056 -0.013,-0.084c-0.04,-0.648 -0.514,-8.395 -0.595,-9.714c-0.01,-0.154 -0.024,-0.309 -0.042,-0.463c-0.13,-1.082 -0.203,-2.127 -0.227,-3.139c-0.07,-4.145 3.187,-7.586 7.33,-7.743c4.142,-0.158 7.651,3.026 7.896,7.164c0.059,0.182 0.069,0.351 0.078,0.502c0.035,0.588 0.007,1.179 -0.083,1.762c-0.181,1.168 -0.504,3.261 -0.732,4.742c-0.199,1.29 -0.698,2.515 -1.457,3.576c-6.856,9.718 -11.919,1.79 -16.674,-9.191c-0.67,-1.539 -0.86,-3.244 -0.543,-4.892c0.116,-0.631 0.24,-1.276 0.34,-1.798c0.14,-0.731 0.134,-1.482 -0.018,-2.211c-0.06,-0.289 -0.13,-0.623 -0.206,-0.986c-0.75,-3.591 1.292,-7.179 4.763,-8.369c0.227,-0.078 0.455,-0.156 0.683,-0.234c3.155,-1.081 6.637,0.17 8.382,3.012c3.236,5.452 6.42,0.61 7.607,10.319c-0,0.001 0,0.003 0,0.004c0,-0 0,0.002 0.001,0.005c0.332,3.279 -1.602,6.366 -4.698,7.498c-3.095,1.132 -6.564,0.021 -8.426,-2.699c-2.371,-3.463 -4.432,-6.473 -5.669,-8.281c-0.808,-1.179 -1.298,-2.546 -1.424,-3.969c-0.16,-1.817 -0.403,-4.563 -0.656,-7.421c-0.24,-2.715 0.864,-5.376 2.956,-7.123c2.092,-1.748 4.907,-2.36 7.536,-1.64c0.524,0.144 1.045,0.287 1.558,0.427c1.883,0.516 3.384,1.937 4.001,3.789c0.618,1.852 0.27,3.89 -0.927,5.432c-0.07,0.091 -0.108,0.14 -0.108,0.14c-0,0 -0.61,1.11 -1.601,2.912c-1.163,2.117 -3.7,3.065 -5.967,2.23c-2.267,-0.834 -3.583,-3.201 -3.097,-5.567c0.021,-0.101 0.032,-0.154 0.032,-0.154c1.242,-3.871 2.834,-7.81 6.648,-8.45" style="fill:none;stroke:#000;stroke-width:3px;stroke-linecap:square;"/><path d="M116.464,2.718l11.875,91.777l0.679,-0l-4.75,-51.911l-2.714,-39.866l30.535,0l0,118.58l-41.053,0l-10.688,-91.776l-0.678,-0l6.785,91.776l-30.535,0l-0,-118.58l40.544,0Z" style="fill-rule:nonzero;"/></g></svg>