<svg xmlns="http://www.w3.org/2000/svg" xmlns:xlink="http://www.w3.org/1999/xlink" xmlns:serif="http://www.serif.com/" version="1.1" xml:space="preserve" style="fill-rule:evenodd;clip-rule:evenodd;stroke-linecap:round;stroke-linejoin:round;stroke-miterlimit:1.5;" viewBox="0.14 14.88 3543.81 829.67"><g id="Artboard1"><g><path d="M1542.33,14.879l-0,827.719c-228.569,-0 -413.859,-185.292 -413.859,-413.86c-0,-228.568 185.29,-413.859 413.859,-413.859Z"></path><path d="M1453.55,90.042c0,0 32.127,-5.855 73.25,-13.351c43.209,-7.876 87.686,3.837 121.413,31.971c33.728,28.135 53.224,69.791 53.224,113.713l0,4.468c0,0.363 -0.035,0.727 -0.107,1.084c-21.262,105.565 -63.348,94.73 -107.98,69.673c-4.565,-2.555 -8.192,-6.505 -10.349,-11.27c-0.004,0.001 -0.004,0.001 -0.005,0c-11.229,-24.803 -10.31,-53.413 2.487,-77.446c12.798,-24.032 36.025,-40.762 62.873,-45.288c16.452,-2.774 32.177,-5.424 45.098,-7.603c20.729,-3.493 42.015,0.895 59.672,12.302c0.856,0.553 1.611,1.041 2.239,1.448c1.281,0.827 2.16,2.151 2.425,3.653c2.303,13.042 13.558,76.765 18.229,103.212c1.356,7.673 1.957,15.462 1.796,23.253c-0.023,1.108 -0.047,2.281 -0.072,3.512c-1.306,63.184 -47.776,116.315 -110.224,126.021c-9.403,1.461 -18.469,2.87 -26.729,4.154c-25.666,3.989 -51.866,-2.384 -72.832,-17.715l-0.002,-0c-11.705,-8.56 -16.711,-23.591 -12.474,-37.458c4.236,-13.869 16.786,-23.537 31.276,-24.095c12.367,-0.476 21.205,-0.816 22.459,-0.865c0.102,-0.003 0.204,-0.002 0.306,0.003c1.276,0.068 10.397,0.555 21.881,1.167c32.125,1.716 59.743,23.352 69.096,54.134c5.501,18.101 11.784,38.778 17.675,58.164c13.28,43.706 3.666,91.16 -25.578,126.25c-5.617,6.74 -11.324,13.587 -16.863,20.232c-25.101,30.119 -66.302,41.422 -103.258,28.327c-17.926,-6.352 -33.736,-11.953 -37.452,-13.27c-0.545,-0.193 -1.056,-0.472 -1.514,-0.824c-2.314,-1.783 -10.197,-7.854 -20.173,-15.539c-34.381,-26.483 -44.066,-74.212 -22.726,-112.002c3.834,-6.789 6.819,-12.073 8.153,-14.438c0.507,-0.896 1.15,-1.707 1.91,-2.402c3.79,-3.475 16.606,-15.224 32.569,-29.857c15.458,-14.169 37.827,-17.866 57.02,-9.424c19.194,8.444 31.584,27.432 31.584,48.399l0,3.045c0,0.367 0.038,0.733 0.11,1.091c0.932,4.588 7.622,37.56 13.544,66.748c6.058,29.849 0.489,60.886 -15.569,86.767c-9.514,15.333 -19.972,32.188 -27.942,45.035c-8.129,13.1 -22.382,21.143 -37.796,21.329c-8.669,0.106 -18.717,0.227 -28.609,0.347c-11.283,0.136 -21.986,-4.991 -28.95,-13.868c-6.965,-8.878 -9.396,-20.494 -6.578,-31.419c0.171,-0.662 0.343,-1.328 0.515,-1.997c16.042,-62.179 78.356,-100.564 141.105,-86.919c20.155,4.383 38.128,8.291 48.814,10.615c10.839,2.357 21.117,6.794 30.266,13.065c31.675,21.704 36.231,54.252 21.689,110.31c-1.288,4.969 -2.34,9.998 -3.152,15.068c-10.232,64.993 -64.206,75.155 -127.385,67.083c-25.376,-3.221 -48.084,-17.35 -62.185,-38.691c-14.102,-21.341 -18.192,-47.772 -11.202,-72.378c0.253,-0.897 0.434,-1.532 0.528,-1.865c0.051,-0.181 0.118,-0.357 0.198,-0.526c1.741,-3.642 21.754,-45.546 34.509,-72.251c6.928,-14.504 17.046,-27.254 29.599,-37.296c8.18,-6.542 18.299,-14.637 28.945,-23.155c44.414,-35.53 104.801,-43.671 157.038,-21.171c3.935,1.694 6.619,2.85 7.492,3.225c0.204,0.088 0.414,0.165 0.628,0.227c2.979,0.873 25.945,7.595 38.327,11.22c4.889,1.432 8.702,5.27 10.099,10.169c2.551,8.942 6.942,24.335 11.407,39.986c8.172,28.649 -8.274,58.533 -36.852,66.958c-0.002,0.001 -0.005,0.001 -0.007,0.002c-19.746,5.823 -40.939,-2.36 -51.649,-19.941c-10.711,-17.581 -8.261,-40.166 5.969,-55.042c10.321,-10.792 18.496,-19.338 22.817,-23.854c2.203,-2.303 5.035,-3.908 8.142,-4.614c5.344,-1.212 14.911,-3.382 27.307,-6.196c22.649,-5.139 38.584,-25.464 38.17,-48.685c-0.413,-23.221 -17.063,-42.966 -39.88,-47.296c-6.834,-1.297 -11.325,-2.149 -12.718,-2.414c-0.306,-0.058 -0.618,-0.09 -0.931,-0.095c-5.006,-0.083 -48.836,-0.813 -74.7,-1.242c-12.123,-0.202 -23.859,4.265 -32.78,12.475c-0.518,0.476 -1.04,0.958 -1.567,1.443c-13.528,12.45 -15.352,33.153 -4.207,47.776c7.109,9.329 15.151,19.883 22.34,29.316c13.41,17.596 32.059,30.478 53.261,36.792c3.417,1.018 6.604,1.966 9.255,2.756c4.892,1.457 9.97,2.196 15.073,2.196l40.647,0c17.202,0 33.652,-7.047 45.519,-19.5c4.344,-4.557 9.153,-9.604 14.091,-14.786c26.144,-27.434 30.99,-68.854 11.886,-101.583c-5.399,-9.251 -10.819,-18.536 -15.674,-26.854c-10.37,-17.767 -31.626,-26.033 -51.275,-19.939c-4.398,1.364 -8.088,2.508 -10.138,3.144c-1.131,0.351 -2.117,1.056 -2.813,2.014c-2.903,3.992 -11.344,15.598 -20.8,28.604c-21.433,29.473 -57.451,44.618 -93.505,39.316c-22.931,-3.371 -44.666,-6.567 -48.329,-7.105c-0.361,-0.054 -0.721,-0.109 -1.081,-0.165c-6.083,-0.957 -62.012,-9.756 -88.515,-13.926c-9.079,-1.427 -17.695,-4.968 -25.155,-10.335c-1.321,-0.95 -2.72,-1.957 -4.177,-3.006c-23.845,-17.156 -30.788,-49.599 -16.054,-75.012c4.779,-8.24 9.031,-15.573 11.488,-19.81c1.456,-2.512 3.487,-4.644 5.926,-6.22c3.737,-2.416 10.069,-6.509 17.957,-11.608c20.601,-13.317 46.902,-14.05 68.213,-1.904c21.31,12.145 34.083,35.15 33.124,59.659c-0.085,2.166 -0.149,3.802 -0.188,4.804c-0.029,0.756 -0.171,1.505 -0.422,2.22c-1.749,5.007 -9.262,26.51 -15.6,44.647c-6.074,17.383 -18.055,32.082 -33.855,41.536c-12.032,7.199 -25.425,15.212 -32.426,19.401c-3.242,1.941 -6.631,3.623 -10.136,5.032c-1.907,0.767 -4.232,1.7 -6.8,2.733c-21.344,8.58 -45.785,2.359 -60.429,-15.381c-0.737,-0.894 -1.479,-1.792 -2.222,-2.692c-18.14,-21.977 -18.815,-53.536 -1.63,-76.268c0.346,-0.457 0.613,-0.81 0.79,-1.043c0.163,-0.216 0.352,-0.411 0.562,-0.582c3.013,-2.436 26.829,-21.698 42.641,-34.485c9.239,-7.473 16.258,-17.331 20.297,-28.507c1.328,-3.672 2.787,-7.713 4.296,-11.888c9.232,-25.546 -0.085,-54.099 -22.608,-69.284c-10.647,-7.177 -21.141,-14.253 -27.937,-18.835c-4.96,-3.344 -10.83,-5.081 -16.813,-4.975c-4.676,0.083 -10.771,0.192 -17.401,0.309c-29.451,0.523 -53.909,22.885 -57.063,52.172l0,0.002c-1.298,12.055 2.984,24.043 11.624,32.548c8.642,8.504 20.695,12.596 32.728,11.107c4.594,-0.569 8.672,-1.073 11.76,-1.455c3.773,-0.467 7.097,-2.702 8.954,-6.019c4.831,-8.636 14.379,-25.699 19.282,-34.466c1.989,-3.554 2.741,-7.667 2.141,-11.694c-2.078,-13.932 -7.268,-48.731 -11.603,-77.796c-4.176,-28.003 -23.165,-51.559 -49.642,-61.584c-0.357,-0.135 -0.547,-0.207 -0.547,-0.207c0,0 -21.323,-10.307 -38.79,-18.751c-5.081,-2.457 -8.634,-7.25 -9.505,-12.827c-0.872,-5.576 1.049,-11.226 5.138,-15.115c0,-0.001 0.001,-0.002 0.003,-0.002c10.932,-10.4 25.801,-15.61 40.835,-14.306c15.033,1.304 28.783,8.995 37.763,21.122c1.705,2.304 3.379,4.564 4.996,6.747c0.677,0.915 0.534,2.199 -0.328,2.942c-0.863,0.743 -2.153,0.696 -2.958,-0.11c-0.006,-0.006 -0.012,-0.012 -0.018,-0.018c-5.597,-5.598 -8.68,-13.228 -8.541,-21.141c0.139,-7.915 3.486,-15.432 9.274,-20.83c10.385,-9.684 21.763,-20.295 27.688,-25.82c2.718,-2.536 5.84,-4.6 9.237,-6.109c0.001,-0.001 0.002,-0.002 0.003,-0.002c27.231,-12.103 59.081,-6.49 80.535,14.193c21.453,20.681 28.228,52.304 17.131,79.96c-1.026,2.557 -1.591,3.965 -1.593,3.969c-0.035,0.09 -0.072,0.18 -0.108,0.269c-8.275,20.13 -18.114,34.703 -28.542,44.765c-15.526,14.919 -39.904,15.421 -56.03,1.154c-16.128,-14.266 -18.603,-38.523 -5.69,-55.753c2.268,-3.036 4.462,-5.964 6.478,-8.654c5.331,-7.112 13.615,-11.404 22.5,-11.656c10.773,-0.277 20.917,-7.926 30.59,-19.578c17.699,-21.308 45.015,-32.16 72.512,-28.807c27.497,3.352 51.406,20.448 63.469,45.383c1.124,2.32 1.957,4.045 2.446,5.052c0.329,0.681 0.555,1.407 0.671,2.154c0.916,5.894 5.311,34.18 10.498,67.563c3.054,19.651 -6.551,39.104 -24.007,48.628c-17.457,9.525 -39.012,7.073 -53.883,-6.129c-3.337,-2.963 -6.268,-5.565 -8.669,-7.696c-4.537,-4.029 -7.273,-9.705 -7.596,-15.763c-0.725,-13.579 -2.069,-38.77 -2.953,-55.337c-0.532,-9.958 4.47,-19.399 13.008,-24.553c8.607,-5.194 18.473,-11.149 20.882,-12.603c0.364,-0.221 0.767,-0.368 1.186,-0.437c5.787,-0.942 49.575,-8.074 69.432,-11.308c6.385,-1.04 12.929,-0.422 19.006,1.793c3.143,1.146 6.945,2.532 11.183,4.077c17.059,6.219 29.861,20.579 34.089,38.237c4.229,17.658 -0.68,36.26 -13.071,49.53c-1.862,1.994 -3.589,3.844 -5.142,5.506c-5.069,5.43 -6.813,13.173 -4.559,20.251c0.757,2.381 1.606,5.048 2.519,7.915c4.186,13.154 2.114,27.5 -5.622,38.932c-7.737,11.432 -20.285,18.688 -34.053,19.691c-24.826,1.742 -48.834,10.252 -60.987,31.89c-4.44,7.945 -11.804,13.845 -20.526,16.447c-4.632,1.391 -10.057,3.01 -15.924,4.761c-16.036,4.783 -33.405,0.549 -45.44,-11.078c-12.035,-11.626 -16.866,-28.839 -12.638,-45.03c1.583,-6.066 3.122,-11.961 4.559,-17.465c5.398,-20.671 22.284,-36.342 43.299,-40.183c25.663,-4.69 61.793,-11.295 94.637,-17.298c47.794,-8.736 95.428,16.057 115.691,60.216c1.224,2.667 2.326,5.066 3.266,7.114c2.164,4.718 1.943,10.187 -0.595,14.716c-5.905,10.535 -17.145,30.589 -25.92,46.243c-7.645,13.638 -21.923,22.224 -37.552,22.581c-6.853,0.157 -14.531,0.333 -22.278,0.509c-11.991,0.275 -23.386,-5.215 -30.643,-14.763c-7.258,-9.549 -9.499,-21.997 -6.027,-33.477c0.189,-0.621 0.356,-1.177 0.503,-1.658c0.361,-1.195 1.12,-2.231 2.151,-2.937c17.772,-11.988 -13.273,-91.402 53.219,-43.94c6.442,4.6 13.326,8.55 20.549,11.788c11.687,5.242 30.142,13.519 47.012,21.083c24.003,10.765 39.377,34.697 39.186,61.004c-0.007,0.962 -0.014,1.901 -0.021,2.813c-0.06,8.263 -5.624,15.473 -13.602,17.625c-18.813,5.074 -52.083,14.048 -65.251,17.598c-3.682,0.994 -7.537,1.168 -11.293,0.512c-2.497,-0.436 -5.688,-0.994 -9.314,-1.627c-12.184,-2.129 -24.6,2.201 -32.818,11.441c-8.219,9.242 -11.069,22.078 -7.533,33.929c0,0.002 0,0.003 0.001,0.006c5.469,18.327 18.502,33.448 35.823,41.559c17.321,8.111 37.281,8.439 54.861,0.904c7.227,-3.098 12.36,-5.299 13.426,-5.756c0.136,-0.059 0.277,-0.109 0.421,-0.149c2.331,-0.647 23.182,-6.441 43.286,-12.028c21.653,-6.017 34.641,-28.112 29.365,-49.958c-0.278,-1.156 -0.517,-2.145 -0.704,-2.92c-0.297,-1.227 -1.009,-2.316 -2.015,-3.081c-7.058,-5.362 -36.55,-27.766 -55.435,-42.113c-10.702,-8.13 -23.03,-13.863 -36.144,-16.809c-7.914,-1.777 -16.882,-3.791 -24.302,-5.457c-10.181,-2.287 -20.778,-1.942 -30.789,1.002c-8.566,2.52 -19.807,5.827 -31.241,9.19c-32.513,9.564 -58.364,34.307 -69.34,66.371c-1.261,3.682 -2.551,7.451 -3.857,11.266c-18.643,54.459 -3.857,114.788 37.856,154.453c2.691,2.559 4.874,4.636 6.366,6.055c1.458,1.386 3.242,2.382 5.188,2.894c16.888,4.445 100.176,26.374 100.176,26.374c-0,-0 0.286,0.094 0.813,0.265c11.556,3.762 21.089,12.054 26.417,22.977c5.328,10.923 5.994,23.539 1.847,34.962c-1.854,5.102 -3.745,10.31 -5.599,15.417c-10.265,28.265 -30.807,51.621 -57.53,65.409c-2.114,1.091 -4.229,2.182 -6.327,3.264c-23.342,12.043 -50.603,13.979 -75.412,5.354c-9.145,-3.179 -19.01,-6.609 -28.543,-9.923c-31.387,-10.911 -56.832,-34.368 -70.257,-64.763c-0.395,-0.896 -0.681,-1.542 -0.831,-1.884c-0.083,-0.187 -0.148,-0.38 -0.195,-0.578c-0.384,-1.62 -2.293,-9.676 -4.763,-20.093c-8.408,-35.468 7.331,-72.269 38.786,-90.69c1.603,-0.938 3.161,-1.85 4.657,-2.726c11.448,-6.705 24.272,-10.709 37.5,-11.711c9.907,-0.749 22.296,-1.686 34.367,-2.599c28.676,-2.171 54.127,-19.183 67.096,-44.85c2.829,-5.596 5.684,-11.248 8.381,-16.586c9.174,-18.154 7.106,-39.963 -5.315,-56.07c-14.729,-19.097 -34.433,-44.647 -48.442,-62.813c-11.415,-14.8 -18.686,-32.371 -21.068,-50.909c-1.55,-12.057 -3.41,-26.526 -5.197,-40.429c-3.601,-28.028 -19.39,-53.039 -43.145,-68.346c-23.753,-15.307 -53.053,-19.349 -80.065,-11.047c-18.898,5.877 -37.608,15.325 -55.264,26.923c-20.15,13.198 -47.051,8.756 -61.889,-10.219c-6.854,-8.728 -13.761,-17.562 -19.23,-24.555c-6.503,-8.318 -7.041,-19.836 -1.339,-28.723c0.604,-0.941 1.231,-1.918 1.878,-2.928c14.97,-23.331 40.541,-37.713 68.254,-38.385c27.712,-0.672 53.952,12.452 70.034,35.031c13.237,18.713 26.561,37.088 39.963,55.095c7.179,9.568 8.285,22.388 2.852,33.044c-5.434,10.656 -16.459,17.289 -28.419,17.099c-0.004,0.009 -0.007,0.009 -0.011,0.009c-12.953,-0.207 -24.988,6.667 -31.39,17.929c-6.403,11.263 -6.154,25.121 0.649,36.146c10.767,17.448 22.628,36.668 33.251,53.883c19.227,31.16 16.95,71.01 -5.701,99.776c-6.933,8.804 -14.236,18.078 -21.362,27.128c-9.524,12.095 -24.698,18.305 -39.968,16.356c-15.272,-1.948 -28.399,-11.768 -34.581,-25.869c-0.001,-0.002 -0.002,-0.004 -0.003,-0.006c-4.914,-11.206 -2.597,-24.268 5.87,-33.1c8.468,-8.833 21.42,-11.698 32.823,-7.262c23.563,9.166 49.775,19.362 72.581,28.233c35.642,13.866 58.908,48.429 58.34,86.669c-0.403,27.059 -0.878,58.994 -1.308,87.947c-0.248,16.629 -9.602,31.779 -24.357,39.449c-14.756,7.671 -32.531,6.622 -46.283,-2.729c-0.002,0 -0.003,-0.001 -0.004,-0.002c-12.046,-8.191 -18.084,-22.748 -15.374,-37.06c2.711,-14.313 13.655,-25.653 27.862,-28.872c27.253,-6.174 56.07,-12.703 77.48,-17.553c20.333,-4.606 41.498,2.934 54.339,19.357l0.001,0c15.712,20.097 18.972,47.254 8.46,70.497c-10.512,23.243 -33.057,38.73 -58.524,40.202c-7.294,0.422 -14.458,0.836 -21.353,1.234c-32.952,1.906 -61.637,23.171 -73.038,54.147c-9.727,26.379 -29.552,31.399 -50.38,22.757c-17.992,-7.493 -31.749,-22.559 -37.581,-41.157c-7.744,-24.676 -21.759,-69.37 -29.882,-95.272c-3.996,-12.745 -13.268,-23.163 -25.462,-28.612c-0,-0 -0.001,-0 -0.001,-0.001c-4.879,-2.179 -10.455,-2.177 -15.331,0.008c-4.875,2.185 -8.588,6.345 -10.208,11.437c-1.387,4.362 -2.938,9.237 -4.585,14.416c-5.998,18.86 -2.427,39.461 9.567,55.202c11.995,15.743 30.91,24.65 50.686,23.871c2.674,-0.105 4.52,-0.177 5.267,-0.208c0.247,-0.009 0.493,-0.046 0.731,-0.11c90.665,-24.272 208.992,-30.206 275.162,-65.495c19.41,-10.353 32.892,-29.155 36.469,-50.86c3.577,-21.707 -3.159,-43.84 -18.221,-59.874c-45.876,-48.832 -125.896,-134.008 -125.896,-134.008" style="fill-opacity:0;stroke:#000;stroke-width:19.64px;"></path></g><path d="M0.144,16.827l213.146,0l0,292.484l2.369,0l28.419,-292.484l211.963,0l-50.919,378.927l60.392,448.792l-216.699,0l-33.156,-359.981l-2.369,0l0,359.981l-213.146,0l-0,-827.719Z" style="fill-rule:nonzero;"></path><path d="M1993.02,70.147c-0,0 2.389,2.381 6.317,6.294c11.821,11.778 15.488,29.467 9.322,44.973c-6.166,15.507 -20.979,25.847 -37.66,26.291c-3.359,0.09 -6.278,0.167 -8.621,0.23c-4.029,0.107 -7.948,-1.328 -10.956,-4.012c-7.103,-6.337 -20.567,-18.351 -28.083,-25.056c-3.465,-3.092 -5.543,-7.447 -5.766,-12.086c0,-0 0,-0.001 0,-0.001c-0.589,-12.247 4.769,-24.026 14.389,-31.629c9.619,-7.603 22.317,-10.096 34.097,-6.694c16.988,4.906 33.134,9.569 39.2,11.321c1.683,0.486 3.334,1.076 4.944,1.765c5.459,2.338 19.248,8.244 31.849,13.642c15.116,6.474 25.145,21.083 25.754,37.516c0.292,7.869 0.608,16.405 0.891,24.045c0.542,14.632 -6.481,28.514 -18.59,36.745c-0.426,0.29 -0.852,0.579 -1.275,0.867c-9.532,6.48 -21.286,8.813 -32.571,6.464c-12.783,-2.66 -31.085,-6.468 -50.048,-10.414c-15.769,-3.282 -28.331,-15.19 -32.449,-30.762c-4.118,-15.572 0.915,-32.133 13,-42.781c0.916,-0.807 1.785,-1.573 2.602,-2.293c5.089,-4.484 9.031,-10.119 11.499,-16.436c1.008,-2.581 2.15,-5.504 3.335,-8.539c6.373,-16.314 22.097,-27.053 39.612,-27.053c29.56,-0 75.373,-0 106.725,-0c20.053,-0 37.381,14.008 41.583,33.616c1.349,6.299 2.651,12.373 3.658,17.074c1.276,5.954 1.258,12.112 -0.052,18.059c-3.345,15.189 -10.227,46.428 -15.229,69.136c-3.59,16.297 -16.379,28.988 -32.703,32.452c-5.326,1.13 -11.022,2.339 -16.666,3.536c-22.089,4.687 -43.989,-8.705 -49.881,-30.503c-3.712,-13.735 -7.701,-28.492 -10.68,-39.513c-2.98,-11.025 -1.401,-22.784 4.381,-32.631c3.59,-6.112 7.692,-13.098 11.207,-19.084c5.357,-9.123 13.922,-15.922 24.023,-19.068c25.71,-8.01 77.055,-24.005 108.29,-33.735c15.875,-4.946 33.177,-0.185 44.287,12.185c4.283,4.769 8.652,9.633 12.281,13.674c5.626,6.263 9.265,14.055 10.459,22.388c1.493,10.43 3.603,25.163 5.158,36.02c1.341,9.368 -0.48,18.916 -5.176,27.132c-1.716,3.002 -3.571,6.247 -5.367,9.39c-5.98,10.461 -16.116,17.895 -27.891,20.454c-15.896,3.454 -38.794,8.429 -55.287,12.013c-13.016,2.828 -26.605,-0.605 -36.716,-9.276c-4.43,-3.8 -9.32,-7.994 -14.043,-12.045c-5.144,-4.411 -7.814,-11.053 -7.156,-17.797c0.659,-6.744 4.563,-12.744 10.463,-16.077c0.733,-0.414 1.355,-0.766 1.837,-1.038c0.725,-0.41 1.564,-0.571 2.389,-0.461c4.567,0.612 20.707,2.776 36.655,4.913c20.888,2.8 36.575,20.476 36.873,41.549c0.142,10.073 0.267,18.926 0.302,21.41c0.006,0.462 0.005,0.924 -0.003,1.385c-0.09,4.855 -0.634,34.338 -1.101,59.657c-0.399,21.655 -17.011,39.551 -38.577,41.559c-4.49,0.418 -8.869,0.825 -12.803,1.192c-10.323,0.961 -20.641,-1.883 -29.015,-7.996c-5.299,-3.867 -11.592,-8.461 -17.636,-12.873c-13.459,-9.825 -17.83,-27.948 -10.328,-42.828c1.086,-2.156 2.139,-4.244 3.109,-6.169c3.2,-6.347 9.702,-10.35 16.81,-10.35c5.789,-0 12.909,-0 19.327,-0c10.495,-0 19.988,6.234 24.158,15.865c4.137,9.555 9.325,21.535 13.135,30.334c3.424,7.908 4.365,16.67 2.697,25.125c-2.466,12.508 -5.877,29.808 -6.246,31.679c-0.022,0.11 -0.044,0.221 -0.067,0.331c-0.447,2.174 -5.203,25.322 -9.152,44.544c-3.283,15.981 -15.419,28.674 -31.236,32.672c-7.683,1.941 -16.009,4.046 -23.374,5.907c-13.413,3.39 -27.637,0.043 -38.132,-8.972c-8.725,-7.496 -19.331,-16.606 -27.885,-23.955c-9.517,-8.176 -13.418,-21.136 -9.994,-33.207c0.385,-1.36 0.776,-2.737 1.165,-4.11c3.762,-13.263 16.254,-22.115 30.013,-21.268c12.564,0.773 28.157,1.732 41.588,2.559c18.029,1.109 33.391,13.487 38.309,30.869c5.829,20.603 13.164,46.532 16.356,57.813c1.066,3.767 1.606,7.663 1.606,11.578l0,88.61c0,13.572 -6.478,26.329 -17.436,34.336c-4.578,3.346 -9.6,7.015 -14.468,10.572c-14.557,10.638 -34.252,10.896 -49.083,0.644c-1.615,-1.117 -3.251,-2.248 -4.887,-3.379c-16.473,-11.387 -20.666,-33.935 -9.388,-50.483c1.336,-1.961 2.618,-3.843 3.802,-5.579c4.21,-6.178 11.472,-9.546 18.908,-8.768c4.133,0.432 8.961,0.936 13.881,1.451c18.179,1.9 33.11,15.204 37.087,33.044c3.016,13.533 6.515,29.227 9.265,41.566c2.996,13.443 -0.704,27.505 -9.928,37.733c-11.706,12.979 -28.291,31.368 -41.696,46.231c-13.276,14.721 -34.962,18.316 -52.278,8.668c-1.478,-0.824 -2.951,-1.644 -4.402,-2.453c-13.661,-7.611 -22.042,-22.105 -21.824,-37.741c0.034,-2.436 0.068,-4.9 0.101,-7.318c0.205,-14.695 7.982,-28.243 20.569,-35.83c2.117,-1.276 4.056,-2.445 5.604,-3.378c2.404,-1.449 4.972,-2.606 7.649,-3.447c8.86,-2.784 30.325,-9.527 43.99,-13.82c7.908,-2.484 16.369,-2.604 24.344,-0.343c14.182,4.02 37.596,10.657 53.096,15.05c10.075,2.856 18.742,9.329 24.341,18.179c6.379,10.084 15.2,24.027 22.694,35.874c9.051,14.307 8.754,32.621 -0.757,46.626c-2.911,4.286 -5.888,8.67 -8.604,12.67c-6.777,9.979 -17.473,16.611 -29.424,18.244c-12.086,1.651 -28.131,3.844 -42.318,5.782c-19.455,2.658 -38.2,-8.349 -45.358,-26.633c-1.981,-5.061 -3.824,-9.771 -5.181,-13.237c-1.489,-3.803 -2.082,-7.897 -1.734,-11.966c0.065,-0.757 0.134,-1.566 0.207,-2.416c1.55,-18.116 16.6,-32.097 34.782,-32.31c14.736,-0.173 30.012,-0.352 34.842,-0.409c1.038,-0.012 2.075,0.053 3.103,0.195c0.114,0.016 0.233,0.033 0.357,0.05c14.839,2.049 25.392,15.477 23.876,30.379c-1.158,11.391 -2.474,24.327 -3.49,34.311c-1.086,10.676 -6.169,20.548 -14.229,27.634c-12.796,11.25 -32.781,28.82 -47.284,41.571c-11.211,9.857 -26.769,13.113 -40.992,8.58c-8.483,-2.703 -18.194,-5.798 -27.074,-8.628c-16.828,-5.363 -28.59,-20.57 -29.551,-38.205c-0.666,-12.234 -1.443,-26.499 -2.129,-39.077c-1.051,-19.294 11.037,-36.871 29.429,-42.794c3.993,-1.285 8.067,-2.597 12.024,-3.871c17.371,-5.594 36.375,0.52 47.227,15.194c14.274,19.302 34.501,46.653 51.395,69.497c7.66,10.359 10.212,23.632 6.938,36.092c-3.274,12.461 -12.02,22.766 -23.783,28.021c-5.679,2.538 -10.372,4.635 -12.963,5.793c-1.454,0.649 -2.944,1.217 -4.461,1.699c-3.536,1.125 -10.896,3.465 -19.999,6.36c-14.718,4.68 -30.816,1.013 -42.055,-9.58c-11.239,-10.593 -15.852,-26.446 -12.05,-41.415c0.324,-1.277 0.638,-2.514 0.941,-3.705c2.674,-10.528 9.275,-19.634 18.45,-25.45c15.538,-9.848 40.49,-25.664 57.993,-36.759c12.477,-7.908 19.956,-21.725 19.756,-36.496c-0.216,-15.88 -0.498,-36.713 -0.716,-52.736c-0.205,-15.149 -8.454,-29.044 -21.655,-36.478c-7.537,-4.245 -15.497,-8.727 -20.988,-11.819c-4.573,-2.575 -9.732,-3.928 -14.98,-3.928c-2.215,-0 -4.792,-0 -7.606,-0c-11.551,-0 -22.372,5.647 -28.979,15.122c-6.607,9.475 -8.164,21.581 -4.17,32.42c0.021,0.057 0.041,0.114 0.062,0.171c5.714,15.506 22.639,23.749 38.37,18.685c25.564,-8.229 63.236,-20.356 89.865,-28.928c18.642,-6.001 30.775,-23.956 29.389,-43.491c-0.658,-9.277 -1.347,-18.988 -1.913,-26.958c-0.795,-11.198 -5.985,-21.628 -14.44,-29.015c-12.104,-10.576 -30.08,-26.281 -43.129,-37.682c-10.354,-9.046 -24.442,-12.528 -37.819,-9.347c-11.295,2.686 -25.392,6.038 -37.945,9.024c-18.625,4.429 -31.814,21.007 -31.944,40.15c-0.023,3.477 -0.046,6.849 -0.066,9.885c-0.055,8.045 4.041,15.551 10.836,19.858c8.471,5.37 20.374,12.915 30.144,19.108c10.961,6.948 24.494,8.511 36.75,4.244c11.852,-4.126 27.134,-9.446 39.91,-13.893c15.385,-5.356 26.358,-19.031 28.255,-35.211c1.279,-10.911 2.752,-23.468 4.001,-34.122c1.752,-14.943 -4.523,-29.7 -16.5,-38.806c-12.038,-9.152 -27.789,-21.127 -41.506,-31.555c-17.254,-13.118 -41.729,-10.586 -55.932,5.787c-0.001,0 -0.001,0 -0.001,0.001c-8.169,9.416 -11.665,22.008 -9.522,34.287c2.144,12.28 9.7,22.943 20.575,29.035c5.08,2.845 10.154,5.687 14.954,8.376c16.985,9.514 38.262,6.279 51.652,-7.853c13.46,-14.205 30.436,-32.12 43.832,-46.258c13.222,-13.954 15.439,-35.043 5.409,-51.441c-11.619,-18.995 -26.761,-43.749 -37.291,-60.965c-7.785,-12.727 -21.67,-20.444 -36.589,-20.335c-15.638,0.115 -36.237,0.265 -53.398,0.391c-8.142,0.059 -15.834,3.742 -20.985,10.047c-5.151,6.305 -7.227,14.577 -5.662,22.567c0,0.001 0.001,0.002 0.001,0.002c2.092,10.682 9.496,19.554 19.63,23.525c10.135,3.971 21.595,2.489 30.387,-3.928c21.235,-15.501 46.616,-34.029 65.104,-47.524c15.136,-11.048 21.255,-30.702 15.068,-48.39c-7.739,-22.124 -18.409,-52.625 -27.068,-77.38c-3.888,-11.114 -12.21,-20.119 -22.984,-24.87c-10.773,-4.751 -23.035,-4.822 -33.863,-0.197c-26.408,11.281 -56.618,24.185 -62.497,26.696c-0.73,0.312 -1.451,0.644 -2.162,0.995c-77.493,38.352 -36.49,51.982 -3.13,67.207c12.997,5.965 28.121,4.999 40.252,-2.572c31.576,-19.702 91.352,-57.008 124.627,-77.775c14.477,-9.035 22.151,-25.848 19.491,-42.704c-1.058,-6.706 -2.124,-13.468 -2.966,-18.802c-1.086,-6.885 -3.848,-13.398 -8.043,-18.966c-3.588,-4.761 -8.37,-11.108 -13.513,-17.932c-7.924,-10.515 -20.319,-16.709 -33.486,-16.731c-13.167,-0.022 -25.583,6.129 -33.543,16.618c-2.28,3.005 -4.378,5.77 -6.167,8.127c-3.797,5.004 -5.067,11.483 -3.44,17.55c1.731,6.458 4.09,15.253 6.287,23.449c3.823,14.257 14.765,25.512 28.908,29.735c26.937,8.044 70.034,20.913 85.054,25.398c3.565,1.065 7.255,1.657 10.975,1.761c7.21,0.203 20.317,0.571 32.958,0.925c19.415,0.546 36.733,-12.133 42.078,-30.805c1.851,-6.465 3.64,-12.716 4.985,-17.412c1.531,-5.349 1.998,-10.947 1.373,-16.477c-0.686,-6.073 -1.655,-14.659 -2.6,-23.028c-1.884,-16.682 -13.405,-30.693 -29.408,-35.766c-5.833,-1.85 -11.25,-3.567 -14.525,-4.605c-2.128,-0.675 -4.348,-1.018 -6.581,-1.018c-0,0 -0,0 -0,0c-22.246,0 -40.28,18.034 -40.28,40.28c0,8.377 0,16.495 0,22.571c0,6.79 1.626,13.482 4.742,19.515c8.094,15.67 24.494,47.422 32.719,63.347c3.157,6.113 8.651,10.69 15.233,12.693c-0,0 0,0 0,0c10.057,3.06 20.938,1.728 29.958,-3.668c9.021,-5.396 15.342,-14.353 17.402,-24.661c0.434,-2.167 0.77,-3.851 0.963,-4.814c0.118,-0.594 0.094,-1.207 -0.07,-1.79c-0.763,-2.698 -3.144,-11.123 -5.445,-19.265c-3.199,-11.316 -11.235,-20.64 -21.956,-25.474c-16.508,-7.442 -39.157,-17.653 -39.157,-17.653" style="fill:none;stroke:#000;stroke-width:19.6px;stroke-linecap:square;"></path><path d="M2374.93,67.775c0,-0 -0.436,-1.014 -1.184,-2.75c-3.325,-7.722 -1.648,-16.688 4.243,-22.685c5.891,-5.998 14.826,-7.836 22.606,-4.65c5.038,2.063 9.709,3.976 13.525,5.538c6.264,2.565 11.3,7.445 14.06,13.626c3.072,6.878 7.253,16.238 10.696,23.948c4.034,9.033 4.503,19.257 1.313,28.621c-0.652,1.913 -1.332,3.907 -2.014,5.91c-4.462,13.095 -17.102,21.614 -30.914,20.835c-7.164,-0.404 -15.18,-0.857 -22.84,-1.289c-18.264,-1.03 -32.547,-16.141 -32.547,-34.434c0,-0.419 0,-0.836 0,-1.249c0,-10.462 7.941,-19.214 18.353,-20.229c14.223,-1.387 32.24,-3.143 36.716,-3.579c0.694,-0.068 1.387,-0.148 2.079,-0.241c6.129,-0.822 38.233,-5.129 64.451,-8.647c21.789,-2.923 43.331,6.86 55.469,25.188c0.001,0.001 0.001,0.002 0.002,0.002c6.531,9.864 7.872,22.283 3.596,33.313c-4.275,11.03 -13.636,19.3 -25.109,22.184c-2.238,0.562 -4.101,1.03 -5.436,1.366c-1.482,0.372 -3.046,0.237 -4.442,-0.385c-2.555,-1.139 -7.184,-3.202 -12.795,-5.703c-26.988,-12.029 -39.509,-43.345 -28.253,-70.664c0.722,-1.751 1.388,-3.367 1.98,-4.804c1.758,-4.266 5.672,-7.259 10.249,-7.838c9.534,-1.205 26.229,-3.316 37.642,-4.758c8.024,-1.015 16.172,-0.335 23.916,1.996c7.978,2.401 18.76,5.646 28.24,8.499c12.718,3.828 21.424,15.539 21.424,28.821l-0,0.904c-0,4.429 -2.963,8.31 -7.236,9.477c-10.432,2.851 -30.053,8.212 -44.696,12.213c-11.42,3.121 -23.625,-0.409 -31.617,-9.142c-0.33,-0.361 -0.651,-0.712 -0.963,-1.052c-2.571,-2.811 -2.907,-7.008 -0.815,-10.192c3.337,-5.078 8.634,-13.14 14.198,-21.607c14.189,-21.591 39.054,-33.689 64.8,-31.527c3.567,0.3 7.219,0.607 10.895,0.915c34.683,2.913 61.389,31.848 61.519,66.653c0.018,4.877 0.034,9.074 0.045,12.089c0.012,3.266 -0.899,6.469 -2.629,9.239c-2.396,3.839 -6.162,9.871 -10.211,16.356c-11.86,18.996 -33.198,29.938 -55.545,28.484c-6.749,-0.44 -13.641,-0.888 -19.9,-1.295c-13.937,-0.907 -25.36,-11.403 -27.441,-25.213c-0.056,-0.375 -0.112,-0.742 -0.166,-1.101c-0.643,-4.268 1.575,-8.455 5.466,-10.322c5.358,-2.571 13.273,-6.368 20.915,-10.034c14.635,-7.02 31.587,-7.386 46.511,-1.003c6.695,2.864 13.782,5.895 19.735,8.441c9.308,3.981 17.535,10.119 24.003,17.907c2.263,2.725 4.748,5.717 7.263,8.746c11.945,14.384 14.569,34.348 6.747,51.33c-1.807,3.922 -3.634,7.888 -5.353,11.621c-5.608,12.174 -17.624,20.126 -31.022,20.53c-9.279,0.279 -20.039,0.603 -29.175,0.878c-12.53,0.377 -24.11,-6.649 -29.563,-17.936c-0.008,-0.017 -0.016,-0.033 -0.025,-0.05c-6.987,-14.463 -1.039,-31.857 13.342,-39.012c9.189,-4.572 18.184,-9.048 21.96,-10.926c1.224,-0.61 2.562,-0.956 3.929,-1.019c7.406,-0.338 32.932,-1.502 48.104,-2.195c7.665,-0.349 15.329,0.719 22.606,3.153c2.562,0.857 5.333,1.783 8.034,2.686c9.553,3.195 17.38,10.163 21.659,19.281c2.166,4.615 4.49,9.569 6.37,13.574c2.503,5.335 3.791,11.158 3.771,17.051c-0.027,8.253 -0.07,21.095 -0.112,33.668c-0.08,23.959 -12.326,46.236 -32.51,59.143c-0.738,0.472 -1.466,0.937 -2.18,1.394c-9.67,6.183 -20.925,9.429 -32.403,9.344c-12.565,-0.094 -29.436,-0.22 -42.193,-0.315c-4.866,-0.036 -9.514,-2.024 -12.902,-5.517c-3.388,-3.494 -5.233,-8.201 -5.12,-13.066c0.002,-0.067 0.003,-0.135 0.005,-0.202c0.184,-7.943 6.676,-14.286 14.621,-14.286c5,0 10.489,0 15.005,0c5.663,0 10.655,3.714 12.283,9.137c0.76,2.53 1.632,5.433 2.555,8.507c2.588,8.622 1.413,17.936 -3.237,25.644c-4.65,7.708 -12.341,13.091 -21.175,14.822c-1.233,0.242 -2.442,0.478 -3.617,0.709c-9.207,1.803 -18.452,-2.929 -22.373,-11.453c-4.72,-10.262 -10.793,-23.465 -14.215,-30.906c-1.714,-3.726 -2.051,-7.94 -0.95,-11.891c2.494,-8.947 7.246,-25.998 11.002,-39.475c3.547,-12.731 10.711,-24.159 20.622,-32.901c2.013,-1.775 4.075,-3.593 6.082,-5.363c9.513,-8.391 21.918,-12.75 34.588,-12.154c2.554,0.12 5.175,0.243 7.742,0.364c13.157,0.619 25.506,6.527 34.243,16.383c3.548,4.002 7.205,8.127 10.181,11.485c4.143,4.673 6.411,10.712 6.369,16.956c-0.007,1.007 -0.014,2.061 -0.021,3.149c-0.106,15.649 -11.92,28.735 -27.476,30.435c-5.851,0.64 -11.721,1.281 -16.559,1.81c-7.174,0.784 -14.307,-1.797 -19.318,-6.99c-3.949,-4.093 -8.821,-9.141 -13.281,-13.764c-8.28,-8.58 -13.244,-19.821 -14.008,-31.72c-1.147,-17.857 -2.836,-44.163 -3.704,-57.679c-0.372,-5.793 -0.027,-11.61 1.027,-17.319c0.703,-3.805 1.57,-8.498 2.454,-13.281c2.905,-15.732 13.333,-29.042 27.913,-35.628c4.67,-2.11 9.333,-4.216 13.228,-5.976c6.449,-2.913 13.444,-4.419 20.52,-4.419l7.692,-0c16.759,-0 31.404,11.315 35.633,27.531c1.42,5.445 2.903,11.129 4.297,16.475c4.173,15.998 2.589,32.953 -4.475,47.901c-2.834,5.997 -5.811,12.296 -8.386,17.746c-4.622,9.779 -11.709,18.188 -20.565,24.398c-5.478,3.842 -11.294,7.921 -14.65,10.274c-1.895,1.329 -3.906,2.484 -6.009,3.45c-6.686,3.07 -22.708,10.429 -35.659,16.377c-12.163,5.587 -21.962,15.292 -27.664,27.402c-1.425,3.026 -2.879,6.115 -4.242,9.01c-4.116,8.742 -3.113,19.035 2.614,26.818c3.455,4.695 7.261,9.866 10.258,13.939c3.429,4.66 8.81,7.484 14.592,7.659c4.929,0.149 11.25,0.341 17.421,0.528c13.75,0.417 26.258,-7.914 31.172,-20.763c2.538,-6.636 5.112,-13.367 6.817,-17.826c1.291,-3.375 1.388,-7.091 0.274,-10.53c-0.094,-0.292 -0.192,-0.593 -0.293,-0.903c-6.48,-20.005 -27.87,-31.052 -47.933,-24.756c-13.339,4.186 -28.04,8.799 -39.775,12.481c-14.411,4.522 -26.988,13.554 -35.877,25.764c-8.201,11.264 -18.359,25.216 -25.355,34.826c-5.473,7.518 -9.405,16.044 -11.568,25.088c-1.306,5.461 -2.84,11.874 -4.283,17.907c-3.001,12.545 -0.426,25.776 7.061,36.28c6.768,9.493 15.167,16.865 37.775,5.753c7.173,-3.451 14.879,-5.661 22.79,-6.536c2.161,-0.306 4.558,-0.571 7.16,-0.859c23.823,-2.634 42.665,-21.382 45.419,-45.191c2.754,-23.81 -11.311,-46.364 -33.904,-54.366c-1.205,-0.427 -2.145,-0.76 -2.796,-0.991c-0.706,-0.25 -1.456,-0.348 -2.202,-0.289c-4.609,0.369 -22.355,1.787 -35.75,2.857c-10.316,0.824 -20.168,4.632 -28.357,10.959c-6.414,4.956 -14.445,11.161 -22.008,17.004c-15.311,11.831 -24.277,30.088 -24.277,49.437l0,4.48c0,1.699 0.52,3.357 1.49,4.752c0.934,1.344 2.156,3.102 3.208,4.614c1.34,1.927 3.785,2.75 6.017,2.024c10.415,-3.383 39.674,-12.888 51.972,-16.884c3.614,-1.174 6.772,-3.444 9.037,-6.495c0.001,-0 0.001,-0 0.001,-0.001c13.785,-18.569 36.49,-28.292 59.442,-25.455c22.952,2.837 42.606,17.796 51.455,39.163c2.199,5.311 4.164,10.055 5.783,13.966c3.032,7.321 2.799,15.587 -0.64,22.725c-3.955,8.207 -9.318,19.337 -13.388,27.784c-3.734,7.75 -10.844,13.337 -19.257,15.133c-9.858,2.105 -23.659,5.051 -36.025,7.691c-17.929,3.827 -36.501,-2.615 -48.208,-16.722c-0.476,-0.573 -0.918,-1.106 -1.32,-1.59c-1.511,-1.821 -1.971,-4.294 -1.216,-6.536c1.208,-3.588 3.018,-8.964 3.996,-11.87c0.426,-1.267 1.483,-2.219 2.787,-2.512c5.162,-1.158 18.833,-4.227 29.612,-6.647c9.492,-2.13 19.404,-1.377 28.465,2.164c7.481,2.924 16.435,6.423 22.718,8.878c5.216,2.038 10.042,4.958 14.267,8.633c3.573,3.107 8.16,7.096 12.458,10.833c8.175,7.11 12.309,17.8 11.045,28.56c-0.279,2.374 -0.566,4.811 -0.844,7.18c-1.197,10.181 -8.529,18.58 -18.455,21.14c-7.132,1.839 -15.701,4.049 -23.851,6.152c-16.863,4.349 -34.404,-4.106 -41.506,-20.008c-0.241,-0.54 -0.432,-0.967 -0.561,-1.256c-0.126,-0.283 -0.195,-0.589 -0.201,-0.899c-0.015,-0.679 -0.043,-2.047 -0.08,-3.794c-0.227,-10.814 8.054,-19.911 18.841,-20.699c20.192,-1.474 50.691,-3.7 63.115,-4.607c3.703,-0.27 7.421,-0.248 11.12,0.068c0.912,0.078 1.896,0.162 2.923,0.249c10.464,0.893 19.396,7.919 22.728,17.878c2.575,7.698 5.639,16.855 8.223,24.578c3.631,10.852 4.126,22.509 1.43,33.63c-0.762,3.142 -1.584,6.534 -2.426,10.007c-5.289,21.81 -24.816,37.169 -47.258,37.169l-1.029,0c-0.186,0 -0.371,-0.022 -0.551,-0.066c-1.601,-0.391 -10.042,-2.45 -18.913,-4.615c-13.364,-3.26 -22.768,-15.234 -22.768,-28.99l0,-5.307c0,-8.703 5.542,-16.441 13.783,-19.243c6.797,-2.311 15.148,-5.15 22.745,-7.733c12.995,-4.419 27.372,-0.91 36.871,8.998c7.134,7.442 15.445,16.111 22.016,22.965c7.302,7.617 10.632,18.206 9.003,28.631c-1.274,8.151 -2.842,18.182 -4.279,27.38c-2.656,16.998 -12.273,32.121 -26.538,41.737c-3.019,2.034 -5.986,4.035 -8.641,5.824c-6.379,4.3 -14.469,5.178 -21.622,2.346c-5.574,-2.206 -12.478,-4.939 -19.046,-7.539c-13.541,-5.36 -22.404,-18.481 -22.323,-33.043c0.032,-5.757 0.061,-10.876 0.074,-13.088c0.004,-0.756 0.232,-1.493 0.655,-2.12c1.531,-2.267 5.584,-8.266 10.106,-14.961c10.171,-15.059 28.9,-21.83 46.349,-16.757c1.802,0.524 3.588,1.043 5.327,1.549c11.294,3.283 19.04,13.66 18.976,25.421c-0.012,2.2 -0.023,4.291 -0.033,6.085c-0.019,3.467 -2.184,6.559 -5.435,7.762c-8.123,3.008 -23.734,8.787 -35.028,12.968c-8.765,3.244 -18.186,4.316 -27.456,3.123c-10.998,-1.415 -26.442,-3.403 -38.895,-5.005c-13.64,-1.756 -26.336,-7.914 -36.159,-17.54c-2.181,-2.137 -4.347,-4.259 -6.302,-6.176c-4.869,-4.771 -7.022,-11.666 -5.733,-18.36c0.596,-3.092 1.267,-6.578 1.939,-10.069c2.364,-12.276 13.036,-21.196 25.536,-21.345c2.165,-0.026 4.161,-0.05 5.79,-0.069c2.565,-0.031 4.932,1.381 6.124,3.652c1.981,3.774 5.11,9.735 7.615,14.507c2.585,4.925 3.717,10.483 3.262,16.027c-0.723,8.823 -1.9,23.169 -2.984,36.401c-1.606,19.578 -13.085,36.985 -30.449,46.17c-3.336,1.765 -6.65,3.518 -9.737,5.151c-4.069,2.153 -8.867,2.454 -13.173,0.826c-4.306,-1.627 -7.706,-5.026 -9.334,-9.331c-0,-0.001 -0,-0.001 -0,-0.002c-1.485,-3.925 -0.988,-8.326 1.336,-11.821c2.324,-3.496 6.19,-5.657 10.385,-5.806c8.897,-0.317 19.644,-0.7 28.807,-1.027c13.211,-0.471 26.275,2.901 37.608,9.707c0.161,0.096 0.322,0.193 0.484,0.29c14.697,8.826 23.689,24.714 23.689,41.858l0,13.844c0,2.089 -0.509,4.147 -1.482,5.995c-1.325,2.514 -3.442,6.534 -5.967,11.326c-6.597,12.524 -18.003,21.827 -31.597,25.773c-13.594,3.945 -28.208,2.195 -40.485,-4.851c-2.487,-1.427 -4.822,-2.767 -6.924,-3.973c-6.422,-3.685 -10.332,-10.571 -10.206,-17.973c0.013,-0.787 0.027,-1.6 0.041,-2.434c0.176,-10.413 5.218,-20.144 13.624,-26.294c8.405,-6.15 19.205,-8.01 29.184,-5.026c7.262,2.171 14.136,4.227 19.337,5.782c6.226,1.861 12.679,2.853 19.176,2.947c7.197,0.103 17.328,0.249 26.78,0.385c5.412,0.078 10.383,3.002 13.081,7.694c2.699,4.692 2.725,10.459 0.071,15.176c-0.254,0.45 -0.5,0.888 -0.739,1.312c-2.109,3.747 -6.409,5.688 -10.614,4.79c-43.696,-9.224 -78.9,-1.304 -108.427,18.064c-15.89,10.36 -35.287,13.875 -53.802,9.75c-2.758,-0.588 -5.564,-1.213 -8.371,-1.839c-25.007,-5.571 -44.512,-25.141 -50.002,-50.166c-0.257,-1.17 -0.456,-2.079 -0.582,-2.652c-0.1,-0.457 -0.116,-0.93 -0.046,-1.393c0.258,-1.7 0.961,-6.335 1.841,-12.14c3.308,-21.815 22.156,-37.875 44.22,-37.679c8.726,0.078 17.312,0.155 23.769,0.212c6.939,0.062 13.462,3.326 17.672,8.843c0,0 0,0.001 0.001,0.001c8.381,10.983 11.835,24.949 9.541,38.573c-2.295,13.624 -10.133,25.688 -21.65,33.32c-5.183,3.435 -9.702,6.43 -12.759,8.456c-2.688,1.782 -5.857,2.699 -9.082,2.63c-11.642,-0.251 -41.827,-0.901 -69.164,-1.489c-30.95,-0.666 -57.842,-21.45 -66.289,-51.233c-2.438,-8.594 -4.605,-16.235 -5.917,-20.86c-0.868,-3.06 -1.134,-6.259 -0.785,-9.421c0,-0 0,-0.001 0,-0.001c3.227,-29.177 27.128,-51.713 56.444,-53.22c11.747,-0.568 20.064,-3.491 25.271,-8.538c14.503,-14.165 37.641,-14.228 52.221,-0.142c0.005,-0.005 0.005,-0.005 0.005,-0.005c22.7,21.888 26.654,56.813 9.422,83.222c-17.232,26.408 -50.793,36.855 -79.969,24.893c-10.173,-4.169 -17.356,-7.114 -20.641,-8.461c-1.31,-0.537 -2.42,-1.467 -3.177,-2.663c-5.004,-7.901 -25.065,-39.579 -39.031,-61.631c-8.994,-14.201 -12.111,-31.344 -8.692,-47.803c0.896,-4.309 1.834,-8.827 2.757,-13.267c3.969,-19.106 19.258,-33.816 38.503,-37.046c8.955,-1.503 16.949,-2.844 19.471,-3.267c0.546,-0.092 1.102,-0.117 1.654,-0.074c5.61,0.432 38.008,2.931 48.122,3.711c1.989,0.153 3.925,0.714 5.688,1.647c1.181,0.626 2.732,1.446 4.607,2.439c22.18,11.74 34.285,36.421 29.988,61.146c-4.296,24.726 -24.018,43.877 -48.858,47.446c-0.7,0.1 -1.396,0.2 -2.087,0.3c-31.476,4.522 -60.92,-16.577 -66.755,-47.836c-4.903,-26.263 -10.495,-56.216 -14.315,-76.679c-2.961,-15.864 -0.389,-32.264 7.288,-46.459c0.33,-0.61 0.661,-1.223 0.994,-1.838c9.569,-17.696 27.454,-29.337 47.509,-30.922c3.992,-0.315 7.933,-0.626 11.536,-0.911c10.566,-0.835 21.121,1.741 30.114,7.35c2.458,1.532 5.098,3.179 7.795,4.861c17.046,10.631 24.811,31.397 18.921,50.604c-2.303,7.51 -4.092,13.345 -4.092,13.345c-0,0 -0.15,0.312 -0.43,0.898c-7.372,15.386 -22.873,25.219 -39.932,25.334c-17.06,0.115 -32.691,-9.51 -40.269,-24.794c-9.009,-18.171 -18.355,-37.023 -26.708,-53.87c-15.406,-31.076 -3.128,-68.766 27.626,-84.805c1.313,-0.684 2.366,-1.233 3.095,-1.614c0.76,-0.396 1.605,-0.603 2.462,-0.603c3.61,-0 14.121,-0 24.069,-0c13.25,-0 25.851,5.739 34.548,15.735c2.097,2.409 4.188,4.813 6.073,6.98c4.592,5.277 6.376,12.435 4.798,19.249c-2.282,9.855 -5.633,24.329 -7.935,34.27c-1.636,7.066 -6.259,13.074 -12.67,16.466c-0.409,0.217 -0.825,0.437 -1.249,0.661c-18.066,9.558 -40.454,3.257 -50.883,-14.321c-7.447,-12.551 -16.119,-27.168 -24.029,-40.501c-14.004,-23.603 -9.579,-53.786 10.61,-72.376c1.095,-1.009 2.041,-1.88 2.794,-2.573c1.258,-1.158 2.904,-1.802 4.613,-1.804c6.039,-0.009 21.156,-0.032 32.585,-0.049c9.284,-0.014 18.392,2.541 26.314,7.382c0.124,0.075 0.247,0.15 0.368,0.225c3.965,2.422 7.052,6.046 8.815,10.344c2.329,5.681 5.706,13.919 8.272,20.176c2.183,5.326 0.765,11.451 -3.538,15.276c-4.108,3.651 -9.33,8.292 -13.864,12.322c-2.694,2.395 -6.242,3.597 -9.836,3.333c-3.595,-0.264 -6.929,-1.971 -9.244,-4.733c-0.001,-0.001 -0.001,-0.001 -0.002,-0.002c-8.331,-9.939 -11.244,-23.339 -7.791,-35.84c3.454,-12.501 12.832,-22.505 25.085,-26.758c9.897,-3.435 19.07,-6.619 25.356,-8.801c5.461,-1.895 11.413,-1.825 16.828,0.198c5.919,2.211 14.088,5.263 21.51,8.036c10.555,3.943 16.386,15.258 13.473,26.142c-0,0 -0,0 -0,0.001c-1.959,7.318 -6.926,13.465 -13.669,16.918c-6.744,3.454 -14.634,3.89 -21.717,1.202c-9.312,-3.533 -19.433,-7.374 -27.734,-10.524c-11.458,-4.348 -21.584,-11.609 -29.379,-21.065c-10.89,-13.21 -27.025,-32.784 -38.601,-46.827c-9.215,-11.178 -14.254,-25.214 -14.254,-39.701l0,-11.261c0,-23.132 15.33,-43.463 37.57,-49.826c5.298,-1.516 10.523,-3.01 15.191,-4.346c10.841,-3.102 22.511,-0.036 30.428,7.993c6.368,6.458 13.937,14.134 19.837,20.117c6.473,6.565 11.369,14.515 14.318,23.25c4.472,13.244 11.2,33.171 14.94,44.249c1.761,5.213 1.309,10.92 -1.249,15.792c-0.001,0.001 -0.001,0.001 -0.001,0.002c-7.924,15.09 -24.727,23.289 -41.498,20.249c-16.771,-3.04 -29.627,-16.615 -31.75,-33.526c-2.772,-22.079 -5.383,-42.875 -7.298,-58.123c-2.011,-16.016 1.823,-32.221 10.796,-45.639c0.569,-0.85 1.143,-1.709 1.721,-2.572c5.178,-7.744 13.435,-12.889 22.668,-14.126c9.233,-1.238 18.553,1.552 25.588,7.659c0.731,0.634 1.363,1.183 1.873,1.626c0.917,0.796 1.535,1.882 1.75,3.077c0.347,1.928 0.954,5.3 1.764,9.795c4.568,25.36 -7.11,50.888 -29.284,64.015c-22.174,13.127 -50.171,11.087 -70.208,-5.115c-0.89,-0.719 -1.489,-1.204 -1.764,-1.426c-0.115,-0.092 -0.238,-0.174 -0.367,-0.243c-1.698,-0.906 -14.207,-7.581 -27.079,-14.449c-18.412,-9.824 -29.829,-29.076 -29.619,-49.945c0.039,-3.842 0.078,-7.764 0.117,-11.621c0.21,-20.855 14.047,-39.113 34.068,-44.955c7.527,-2.196 14.108,-4.116 16.894,-4.929c0.933,-0.272 1.914,-0.342 2.876,-0.205c1.962,0.28 5.749,0.821 10.414,1.486c9.182,1.311 17.117,7.09 21.18,15.428c4.063,8.337 3.725,18.148 -0.901,26.186c-0.881,1.531 -1.703,2.96 -2.443,4.245c-2.333,4.056 -6.69,6.518 -11.368,6.426c-7.469,-0.147 -19.243,-0.378 -29.682,-0.584c-12.947,-0.255 -23.991,-9.441 -26.599,-22.125c-0.107,-0.518 -0.214,-1.04 -0.322,-1.565c-4.611,-22.424 9.229,-44.509 31.42,-50.137c11.081,-2.81 22.327,-5.662 30.555,-7.749c7.965,-2.02 16.415,-0.416 23.086,4.381c8.565,6.159 20.552,14.78 28.847,20.745c5.92,4.257 9.125,11.344 8.413,18.6c-0.087,0.882 -0.177,1.795 -0.269,2.735c-0.932,9.5 -6.106,18.071 -14.077,23.322c-7.971,5.252 -17.888,6.623 -26.985,3.73c-3.295,-1.048 -6.569,-2.089 -9.708,-3.087c-14.325,-4.555 -24.198,-17.677 -24.607,-32.704c-0.13,-4.785 -0.271,-9.979 -0.417,-15.325c-0.414,-15.23 5.645,-29.922 16.674,-40.433c11.029,-10.511 25.996,-15.857 41.189,-14.711c0.847,0.064 1.693,0.128 2.536,0.192c12.307,0.928 23.651,7.005 31.241,16.736c7.591,9.731 10.723,22.213 8.628,34.376c-0.199,1.155 -0.394,2.287 -0.584,3.388c-1.777,10.311 -10.621,17.911 -21.082,18.115c-15.489,0.303 -37.159,0.726 -49.084,0.959c-5.627,0.109 -11.105,-1.819 -15.422,-5.431c-17.488,-14.631 -63.195,-52.87 -63.195,-52.87" style="fill:none;stroke:#000;stroke-width:19.6px;stroke-linecap:square;"></path><path d="M2839.98,48.31c0,0 2.613,6.526 5.502,13.742c4.62,11.537 2.168,24.705 -6.296,33.806c-1.567,1.684 -3.165,3.403 -4.737,5.093c-8.539,9.181 -21.971,11.918 -33.422,6.809c-2.196,-0.98 -4.365,-1.948 -6.371,-2.843c-6.153,-2.745 -10.156,-8.808 -10.264,-15.544c-0.063,-3.955 -0.134,-8.393 -0.196,-12.273c-0.099,-6.211 3.444,-11.906 9.06,-14.56c12.94,-6.117 36.545,-17.275 51.25,-24.226c8.407,-3.974 17.897,-5.036 26.975,-3.019c3.972,0.883 8.35,1.856 12.517,2.782c11.392,2.531 21.21,9.703 27.088,19.784c2.031,3.485 4.125,7.077 5.968,10.239c3.732,6.401 5.698,13.677 5.698,21.086c0,4.474 0,9.869 0,15.412c0,19.417 -13.349,36.286 -32.246,40.748c-3.341,0.789 -6.618,1.563 -9.647,2.278c-10.044,2.371 -20.61,0.95 -29.67,-3.991c-4.689,-2.558 -8.741,-4.768 -8.741,-4.768c-0,-0 -0.032,-0.017 -0.096,-0.049c-18.243,-9.379 -26.999,-30.598 -20.68,-50.113c6.319,-19.515 25.85,-31.574 46.128,-28.481c27.038,4.126 45.882,7 48.665,7.425c0.238,0.036 0.476,0.075 0.713,0.115c0.624,0.106 2.031,0.346 3.912,0.666c15.249,2.597 26.522,15.633 26.89,31.097c0.113,4.735 0.225,9.461 0.323,13.569c0.196,8.225 -2.036,16.326 -6.417,23.291c-8.524,13.55 -23.036,36.617 -30.692,48.787c-3.34,5.309 -7.831,9.801 -13.141,13.142c-6.168,3.881 -15.172,9.547 -24.484,15.406c-10.046,6.321 -22.302,8.082 -33.721,4.843c-11.419,-3.238 -20.927,-11.171 -26.158,-21.825c-0.539,-1.097 -1.072,-2.182 -1.596,-3.25c-6.759,-13.763 -5.453,-30.12 3.402,-42.637c8.213,-11.607 18.988,-26.837 29.713,-41.996c8.723,-12.329 23.41,-19.004 38.435,-17.469c15.024,1.535 28.057,11.043 34.107,24.882c5.606,12.825 10.525,24.079 13.124,30.025c1.302,2.977 2.252,6.095 2.832,9.292c0.793,4.369 2.011,11.077 3.159,17.405c1.955,10.769 -0.609,21.869 -7.088,30.69c-9.114,12.406 -22.786,31.018 -34.273,46.655c-12.125,16.506 -34.588,21.5 -52.565,11.687c-0.248,-0.136 -0.496,-0.271 -0.745,-0.407c-12.946,-7.068 -21.086,-20.556 -21.305,-35.304c-0.219,-14.748 7.516,-28.472 20.247,-35.921c3.047,-1.782 5.731,-3.353 7.893,-4.618c3.657,-2.14 8.02,-2.724 12.111,-1.621c4.48,1.207 10.733,2.892 16.817,4.532c12.631,3.405 22.944,12.517 27.879,24.632c5.721,14.048 12.739,31.278 14.286,35.076c0.207,0.509 0.405,1.022 0.592,1.539c1.317,3.639 7.065,19.511 12.789,35.319c7.319,20.215 -1.861,42.687 -21.24,51.995c-6.811,3.271 -13.61,6.537 -19.301,9.27c-9.286,4.461 -19.891,5.341 -29.785,2.472c-8.719,-2.528 -20.109,-5.83 -31.355,-9.091c-9.854,-2.857 -17.688,-10.353 -20.975,-20.072c-3.288,-9.719 -1.613,-20.432 4.483,-28.684c0.706,-0.956 1.315,-1.78 1.804,-2.442c0.852,-1.153 2.132,-1.914 3.552,-2.111c6.331,-0.876 25.065,-3.47 41.37,-5.728c16.571,-2.294 32.917,5.496 41.572,19.813c7.931,13.119 17.738,29.342 25.514,42.206c8.177,13.525 8.04,30.502 -0.353,43.893c-5.607,8.947 -12.225,19.508 -18.428,29.405c-11.838,18.89 -36.402,25.19 -55.871,14.331c-5.575,-3.109 -11.311,-6.309 -16.79,-9.364c-17.868,-9.967 -25.916,-31.387 -19.032,-50.653c4.238,-11.86 8.871,-24.824 12.572,-35.183c4.31,-12.062 15.244,-20.514 28.002,-21.647c2.368,-0.21 4.736,-0.42 6.982,-0.62c8.469,-0.752 16.605,3.483 20.846,10.852c11.022,19.148 32.555,56.556 45.311,78.717c6.42,11.154 7.354,24.641 2.533,36.573c-2.877,7.119 -6.209,15.364 -9.333,23.097c-6.615,16.369 -22.788,26.83 -40.43,26.151c-7.812,-0.301 -16.191,-0.624 -23.801,-0.917c-15.709,-0.605 -29.543,-10.519 -35.165,-25.2c-0.38,-0.991 -0.682,-1.78 -0.878,-2.291c-0.165,-0.432 -0.251,-0.891 -0.253,-1.354c-0.017,-4.569 -0.115,-30.986 -0.237,-63.909c-0.07,-18.868 12.489,-35.452 30.67,-40.498c18.181,-5.047 37.491,2.691 47.156,18.896c16.473,27.621 31.369,52.595 39.681,66.532c4.502,7.547 6.514,16.318 5.753,25.073c-1.213,13.956 -3.146,36.184 -4.696,54.014c-1.482,17.049 -13.19,31.479 -29.567,36.442c-20.235,6.133 -48.321,14.645 -71.798,21.76c-11.323,3.432 -23.569,1.913 -33.709,-4.181c-10.141,-6.094 -17.23,-16.194 -19.515,-27.803c-3.596,-18.272 -7.296,-37.077 -9.023,-45.853c-0.665,-3.379 -0.911,-6.827 -0.732,-10.266c0.195,-3.722 0.479,-9.169 0.804,-15.391c0.669,-12.829 7.191,-24.641 17.692,-32.041c10.5,-7.4 23.817,-9.571 36.124,-5.887c3.634,1.088 7.209,2.158 10.625,3.18c16.537,4.95 28.34,19.54 29.727,36.746c1.683,20.874 3.971,49.251 5.736,71.147c1.568,19.446 -10.503,37.397 -29.103,43.282c-5.558,1.759 -11.288,3.572 -16.686,5.28c-15.872,5.022 -33.18,-0.634 -43.025,-14.059c-0.241,-0.329 -0.483,-0.659 -0.725,-0.989c-12.117,-16.524 -9.093,-39.656 6.863,-52.509c2.357,-1.899 4.673,-3.764 6.864,-5.529c9.465,-7.624 21.776,-10.76 33.735,-8.591c15.096,2.737 36.171,6.559 51.21,9.286c11.834,2.146 22.174,9.278 28.384,19.577c5.741,9.52 13.014,21.584 18.964,31.451c6.942,11.514 7.933,25.66 2.664,38.029c-3.051,7.161 -6.499,15.254 -9.555,22.427c-5.303,12.447 -16.293,21.564 -29.505,24.477c-10.172,2.242 -23.046,5.08 -36.352,8.013c-12.025,2.651 -24.458,-2.248 -31.442,-12.389c-6.985,-10.142 -7.13,-23.504 -0.366,-33.793c0.498,-0.758 0.902,-1.372 1.197,-1.821c0.373,-0.568 0.892,-1.027 1.502,-1.328c4.494,-2.22 24.528,-12.117 44.302,-21.885c10.882,-5.376 23.561,-5.765 34.752,-1.066c11.191,4.698 19.792,14.022 23.575,25.555c3.395,10.351 6.8,20.732 9.536,29.076c3.696,11.267 2.44,23.574 -3.455,33.863c-1.309,2.283 -2.664,4.649 -4.003,6.985c-6.945,12.12 -19.476,19.979 -33.411,20.951c-17.203,1.201 -39.961,2.79 -51.583,3.601c-4.981,0.348 -9.984,-0.198 -14.772,-1.612c-8.072,-2.383 -21.589,-6.375 -33.713,-9.955c-15.363,-4.536 -25.907,-18.643 -25.907,-34.661c0,-0.001 0,-0.001 0,-0.002c0,-10.424 4.292,-20.388 11.867,-27.55c7.575,-7.161 17.764,-10.887 28.172,-10.303c7.923,0.445 16.004,0.899 23.185,1.303c14.835,0.833 28.117,9.466 34.901,22.686c7.412,14.442 17.404,33.912 26.13,50.917c5.103,9.942 6.019,21.513 2.544,32.134c-3.476,10.622 -11.053,19.413 -21.046,24.418c-9.544,4.78 -19.217,9.623 -26.775,13.408c-9.203,4.609 -19.781,5.666 -29.714,2.97c-4.116,-1.117 -8.725,-2.368 -13.398,-3.636c-18.431,-5.003 -29.667,-23.617 -25.507,-42.257c0.298,-1.335 0.563,-2.525 0.785,-3.517c0.453,-2.03 1.649,-3.816 3.352,-5.008c5.68,-3.974 19.446,-13.606 30.893,-21.615c11.146,-7.799 25.387,-9.696 38.186,-5.087c14.402,5.185 33.865,12.193 49.664,17.882c16.61,5.981 27.684,21.738 27.684,39.392c-0,1.845 -0,3.687 -0,5.494c-0,14.071 -7.068,27.201 -18.814,34.949c-2.474,1.632 -5.034,3.32 -7.572,4.994c-14.048,9.267 -32.378,8.815 -45.953,-1.131c-2.089,-1.531 -4.241,-3.108 -6.421,-4.705c-9.039,-6.623 -14.385,-17.153 -14.397,-28.359c-0.012,-11.205 5.311,-21.747 14.335,-28.389c3.581,-2.636 6.885,-5.068 9.618,-7.079c4.479,-3.297 10.598,-3.231 15.005,0.16c0,0.001 0.001,0.001 0.001,0.002c11.565,8.9 16.7,23.845 13.049,37.975c-3.652,14.129 -15.385,24.714 -29.815,26.897c-18.041,2.729 -37.016,5.599 -54.79,8.287c-12.696,1.921 -25.281,-4.087 -31.771,-15.166c-6.49,-11.079 -5.576,-24.994 2.307,-35.129c0.001,-0.001 0.001,-0.002 0.001,-0.002" style="fill:none;stroke:#000;stroke-width:19.6px;stroke-linecap:square;"></path><path d="M3145.84,692.843c0,-0 20.59,23.937 31.467,36.583c4.053,4.713 5.264,11.239 3.169,17.092c0,0 -0,0.001 -0,0.002c-7.577,21.173 -25.372,37.06 -47.265,42.197c-21.893,5.137 -44.897,-1.177 -61.1,-16.77c-3.248,-3.125 -6.346,-6.106 -9.224,-8.876c-11.818,-11.373 -15.455,-28.827 -9.163,-43.973c4.726,-11.379 10.341,-24.895 15.239,-36.687c7.617,-18.337 22.727,-32.53 41.504,-38.987c3.632,-1.249 7.006,-2.409 9.7,-3.335c3.965,-1.364 8.291,-1.243 12.174,0.34c2.024,0.826 4.427,1.805 6.998,2.854c14.824,6.043 22.992,22.025 19.205,37.579c-2.778,11.409 -5.781,23.744 -7.591,31.178c-1.077,4.425 -3.696,8.321 -7.387,10.989c-0,-0 -0.001,0 -0.001,0c-20.262,14.648 -47.093,16.491 -69.168,4.752c-22.075,-11.739 -35.548,-35.015 -34.733,-60.004c0.469,-14.359 0.897,-27.485 1.235,-37.843c0.49,-15.002 5.605,-29.486 14.646,-41.467c9.903,-13.125 23.577,-31.248 35.826,-47.481c16.39,-21.721 46.817,-27.008 69.573,-12.088c1.187,0.778 2.21,1.449 3.024,1.983c1.371,0.898 2.372,2.26 2.821,3.836c1.213,4.253 3.834,13.441 6.447,22.607c4.372,15.328 0.181,31.824 -10.977,43.207c-1.936,1.975 -3.798,3.874 -5.447,5.557c-3.955,4.035 -9.63,5.888 -15.205,4.964c-6.982,-1.157 -17.207,-2.851 -27.462,-4.551c-23.166,-3.838 -43.058,-18.618 -53.419,-39.691c-5.713,-11.621 -12.111,-24.632 -17.809,-36.221c-10.254,-20.855 -9.933,-45.352 0.864,-65.93c0.122,-0.233 0.242,-0.463 0.361,-0.69c4.721,-9.009 12.434,-16.09 21.812,-20.025c28.934,-12.065 51.097,16.919 66.994,83.948c0.703,2.974 1.593,5.901 2.665,8.764c4.743,12.69 18.93,50.596 31.01,82.874c5.074,13.558 4.543,28.578 -1.476,41.743c-6.019,13.165 -17.031,23.393 -30.605,28.425c-1.409,0.522 -2.763,1.024 -4.045,1.5c-7.374,2.733 -15.67,0.595 -20.804,-5.362c-5.45,-6.324 -12.992,-15.077 -21.08,-24.462c-12.204,-14.161 -18.035,-32.725 -16.121,-51.321c1.913,-18.596 11.403,-35.583 26.235,-46.962c3.355,-2.574 6.265,-4.806 8.49,-6.513c3.12,-2.394 6.041,-5.036 8.734,-7.902c5.773,-6.143 16.869,-17.949 27.615,-29.383c17.001,-18.089 22.486,-44.153 14.218,-67.56c-1.849,-5.234 -3.648,-10.329 -5.218,-14.773c-3.297,-9.334 -10.689,-16.643 -20.06,-19.834c-6.973,-2.374 -15.708,-5.349 -24.648,-8.393c-26.248,-8.937 -54.95,3.852 -65.857,29.344c-0.575,1.343 -1.104,2.581 -1.576,3.684c-1.48,3.459 -1.145,7.428 0.893,10.591c3.501,5.431 9.288,14.408 14.672,22.76c7.813,12.121 22.45,17.955 36.458,14.532c3.609,-0.881 7.419,-1.812 11.263,-2.751c22.871,-5.588 38.497,-26.702 37.157,-50.208c-0.502,-8.817 -1.028,-18.035 -1.51,-26.5c-1.184,-20.774 -11.202,-40.048 -27.524,-52.953c-2.416,-1.911 -4.721,-3.733 -6.763,-5.348c-5.327,-4.212 -11.431,-7.337 -17.964,-9.195c-3.749,-1.066 -8.266,-2.351 -13.01,-3.701c-20.539,-5.842 -34.385,-25.017 -33.47,-46.351c0.122,-2.83 0.237,-5.521 0.341,-7.935c0.287,-6.684 4.099,-12.714 10.015,-15.839c2.36,-1.246 5.026,-2.655 7.843,-4.143c9.022,-4.766 19.593,-5.662 29.288,-2.482c9.696,3.179 17.683,10.161 22.131,19.344c2.122,4.381 3.788,7.82 4.463,9.213c0.214,0.443 0.512,0.84 0.877,1.17c40.839,36.963 29.602,74.375 -2.165,111.964c-9.151,10.805 -24.855,13.235 -36.843,5.701c-0.274,-0.163 -0.545,-0.333 -0.817,-0.504c-21.159,-13.299 -27.82,-41.064 -14.998,-62.515c5.036,-8.424 9.873,-16.517 13.288,-22.229c3.11,-5.203 8.244,-8.878 14.171,-10.145c8.565,-1.831 21.413,-4.578 31.332,-6.698c9.078,-1.941 16.591,-8.281 20.029,-16.903c0.855,-2.144 1.788,-4.483 2.782,-6.976c8.03,-20.135 5.882,-42.903 -5.771,-61.181c-11.652,-18.279 -31.387,-29.835 -53.03,-31.053c-3.031,-0.171 -5.48,-0.309 -7.17,-0.404c-1.709,-0.096 -3.413,0.256 -4.944,1.021c-2.238,1.118 -5.867,2.932 -9.925,4.96c-13.312,6.653 -19.38,22.339 -14.01,36.218c0.559,1.444 1.099,2.84 1.606,4.15c2.135,5.518 7.443,9.156 13.36,9.156c4.491,0 10.102,0 15.916,0c19.498,0 36.343,-13.628 40.414,-32.696c1.615,-7.563 3.31,-15.502 4.848,-22.706c3.329,-15.589 -2.606,-31.703 -15.252,-41.41c-6.156,-4.725 -12.218,-9.379 -15.84,-12.158c-2.178,-1.672 -4.89,-2.496 -7.63,-2.318c-3.367,0.219 -8.463,0.55 -14.291,0.929c-9.903,0.644 -18.78,6.333 -23.5,15.062c-4.721,8.729 -4.623,19.272 0.26,27.912c0.28,0.496 0.56,0.992 0.841,1.488c13.589,24.047 43.649,33.21 68.341,20.834c6.671,-3.344 13.286,-6.66 19.185,-9.616c13.093,-6.563 21.052,-20.26 20.272,-34.884c-0.601,-11.26 -1.279,-23.965 -1.717,-32.173c-0.308,-5.758 -1.376,-11.449 -3.177,-16.927c-0.54,-1.642 -1.14,-3.464 -1.779,-5.407c-7.6,-23.11 -29.178,-38.729 -53.506,-38.729l-4.317,0c-8.645,0 -16.935,3.435 -23.048,9.547c-6.113,6.113 -9.547,14.404 -9.547,23.048l0,1.386c0,0.279 0.05,0.556 0.148,0.817c0.572,1.523 2.739,7.298 5.525,14.722c4.088,10.893 13.044,19.242 24.198,22.556c11.153,3.314 23.215,1.21 32.588,-5.683c0.471,-0.346 0.726,-0.534 0.726,-0.534c0,-0 26.597,-25.488 46.698,-44.752c4.698,-4.502 6.719,-11.122 5.337,-17.48c-1.382,-6.358 -5.968,-11.542 -12.111,-13.688c-0.001,-0.001 -0.002,-0.001 -0.003,-0.001c-7.456,-2.605 -15.657,-2.016 -22.663,1.629c-7.007,3.645 -12.198,10.021 -14.345,17.622c-1.947,6.891 -3.895,13.785 -5.414,19.16c-1.745,6.176 0.412,12.793 5.461,16.754c7.569,5.938 19.05,14.943 29.118,22.842c13.587,10.658 30.521,16.139 47.777,15.462c2.25,-0.088 4.534,-0.178 6.805,-0.267c18.657,-0.732 35.768,-10.573 45.782,-26.332c1.954,-3.076 3.824,-6.019 5.429,-8.545c3.198,-5.031 4.025,-11.212 2.263,-16.907c-2.351,-7.6 -5.823,-18.826 -8.926,-28.856c-4.156,-13.438 -16.582,-22.601 -30.649,-22.601l-2.899,-0c-21.452,-0 -39.337,16.415 -41.173,37.788c-0.969,11.277 -1.899,22.106 -2.375,27.654c-0.22,2.562 -0.582,5.11 -1.083,7.632c-0.508,2.56 -1.257,6.33 -2.193,11.038c-4.551,22.906 6.003,46.165 26.238,57.824c20.235,11.659 45.65,9.124 63.184,-6.301c1.311,-1.153 2.452,-2.156 3.401,-2.992c2.092,-1.84 3.304,-4.481 3.335,-7.267c0.081,-7.289 0.24,-21.554 0.289,-25.99c0.01,-0.873 -0.279,-1.723 -0.82,-2.409c-0.301,-0.383 -0.679,-0.863 -1.126,-1.431c-11.116,-14.112 -28.499,-21.804 -46.42,-20.539c-17.92,1.264 -34.05,11.322 -43.074,26.856c-8.241,14.186 -15.414,26.535 -18.717,32.221c-1.278,2.201 -2.129,4.624 -2.508,7.141c0,0.001 0,0.002 0,0.003c-2.818,18.749 5.308,37.463 20.931,48.205c15.623,10.742 36.006,11.63 52.504,2.286c3.183,-1.802 6.069,-3.437 8.561,-4.848c6.474,-3.666 12.141,-8.601 16.664,-14.509c3.278,-4.283 7.213,-9.422 10.578,-13.819c4.421,-5.774 4.241,-13.843 -0.431,-19.415c-0,-0.001 -0.001,-0.001 -0.001,-0.002c-3.418,-4.076 -8.81,-5.926 -14.009,-4.807c-5.2,1.119 -9.353,5.024 -10.791,10.144c-2.811,10.009 -5.828,20.753 -7.868,28.016c-1.621,5.773 -2.44,11.742 -2.433,17.739c0.006,5.038 0.014,11.607 0.021,18.174c0.018,15.017 12.197,27.181 27.213,27.181l1.346,0c0.654,0 1.296,-0.167 1.867,-0.486c1.742,-0.975 5.92,-3.311 10.862,-6.074c6.642,-3.715 11.405,-10.064 13.113,-17.48c1.708,-7.416 0.202,-15.208 -4.146,-21.454c-0.308,-0.443 -0.611,-0.878 -0.906,-1.302c-3.347,-4.807 -9.525,-6.736 -15.012,-4.687c-14.323,5.349 -41.105,15.35 -50.879,19c-2.437,0.91 -5.03,1.328 -7.63,1.23c-0.001,-0 -0.002,-0 -0.002,-0c-10.275,-0.39 -19.831,5.254 -24.451,14.44c-4.62,9.185 -3.453,20.222 2.986,28.238c7.338,9.137 14.535,18.097 20.197,25.148c7.455,9.28 17.071,16.591 28.008,21.292c1.599,0.687 3.197,1.374 4.732,2.034c7.435,3.195 15.809,3.437 23.416,0.676c3.137,-1.139 6.581,-2.389 9.914,-3.599c9.799,-3.557 16.205,-13.005 15.882,-23.424c-0,-0 -0,-0.001 -0,-0.001c-0.134,-4.331 -2.044,-8.416 -5.281,-11.297c-3.237,-2.881 -7.516,-4.304 -11.833,-3.935c-1.06,0.09 -2.106,0.18 -3.115,0.266c-5.507,0.47 -9.871,4.848 -10.323,10.358c-0.782,9.54 -2,24.387 -2.932,35.746c-0.859,10.473 1.409,20.966 6.518,30.149c0.646,1.162 1.317,2.369 2.007,3.609c5.332,9.584 14.891,16.073 25.767,17.49c10.876,1.417 21.779,-2.406 29.389,-10.304c1.097,-1.139 2.044,-2.122 2.796,-2.903c1.228,-1.275 1.913,-2.977 1.909,-4.748c-0.007,-4.028 -0.023,-11.918 -0.038,-19.977c-0.029,-14.705 -9.979,-27.538 -24.214,-31.228c-2.077,-0.539 -4.228,-1.097 -6.427,-1.667c-14.305,-3.708 -29.513,-1.125 -41.792,7.098c-12.278,8.224 -20.456,21.303 -22.473,35.943c-0.358,2.597 -0.616,4.473 -0.733,5.318c-0.045,0.331 -0.047,0.666 -0.006,0.998c0.252,2.009 1.232,9.813 2.333,18.593c2.312,18.419 14.575,34.07 31.907,40.72c9.101,3.492 18.448,7.078 24.707,9.479c4.83,1.853 10.155,1.962 15.057,0.307c0,0 0.001,0 0.001,-0c6.647,-2.243 12.113,-7.064 15.17,-13.378c3.057,-6.314 3.449,-13.591 1.087,-20.196c-1.183,-3.306 -2.388,-6.677 -3.552,-9.932c-4.786,-13.381 -17.464,-22.312 -31.675,-22.312l-1.222,0c-0.355,0 -0.704,0.081 -1.022,0.237c-1.439,0.704 -5.908,2.892 -11.013,5.39c-12.114,5.93 -19.795,18.24 -19.795,31.729l-0,20.491c-0,14.843 5.196,29.218 14.686,40.63c2.377,2.859 4.767,5.732 6.931,8.334c5.299,6.373 13.43,9.681 21.674,8.817c5.917,-0.62 13.024,-1.365 19.567,-2.051c11.571,-1.212 20.663,-10.449 21.693,-22.038c0.055,-0.615 0.108,-1.212 0.158,-1.784c0.333,-3.747 -1.887,-7.251 -5.417,-8.55c-6.147,-2.262 -15.869,-5.84 -23.485,-8.643c-7.128,-2.623 -15.087,-1.611 -21.332,2.712c-4.621,3.199 -10.372,7.18 -16.185,11.204c-17.695,12.25 -28.408,32.273 -28.779,53.791c-0.022,1.245 -0.042,2.451 -0.062,3.602c-0.13,7.54 1.436,15.013 4.582,21.866c1.03,2.242 2.15,4.682 3.281,7.146c5.481,11.938 17.361,19.639 30.496,19.769c2.957,0.03 5.748,0.057 8.008,0.08c3.364,0.033 6.534,-1.576 8.493,-4.311c4.076,-5.69 11.479,-16.025 18.2,-25.408c3.764,-5.256 5.228,-11.817 4.053,-18.174c-1.175,-6.357 -4.887,-11.962 -10.281,-15.524c-0,-0.001 -0,-0.001 -0.001,-0.001c-7.792,-5.147 -17.658,-6.006 -26.223,-2.284c-8.565,3.721 -14.669,11.52 -16.223,20.729c-2.59,15.338 -5.22,30.917 -6.586,39.008c-0.637,3.776 -0.976,7.596 -1.012,11.424c-0.04,4.157 -0.096,10.098 -0.154,16.235c-0.148,15.511 10.434,29.071 25.517,32.697c0.6,0.144 1.081,0.259 1.415,0.34c0.351,0.084 0.716,0.086 1.068,0.004c2.618,-0.606 14.45,-3.346 26.55,-6.148c17.841,-4.132 31.649,-18.263 35.367,-36.194c0.147,-0.71 0.271,-1.311 0.368,-1.778c0.15,-0.723 0.088,-1.473 -0.179,-2.161c-0.357,-0.919 -0.935,-2.408 -1.686,-4.342c-4.316,-11.116 -14.992,-18.461 -26.917,-18.516c-11.924,-0.056 -22.668,7.189 -27.088,18.264c-0.837,2.098 -1.509,3.784 -1.97,4.937c-0.457,1.147 -0.654,2.382 -0.576,3.614c0.303,4.766 1.143,17.973 2.031,31.932c1.638,25.773 17.624,48.436 41.352,58.628c0.718,0.308 1.26,0.541 1.589,0.682c0.242,0.104 0.5,0.166 0.762,0.184c0.554,0.037 1.672,0.111 3.268,0.218c14.574,0.974 28.033,-7.813 33.003,-21.548c4.971,-13.734 0.252,-29.1 -11.57,-37.678c-1.017,-0.738 -1.687,-1.225 -1.955,-1.42c-0.088,-0.063 -0.18,-0.121 -0.276,-0.171c-1.562,-0.829 -15.478,-8.214 -23.902,-12.684c-4.23,-2.244 -8.871,-3.605 -13.643,-4c-1.839,-0.152 -3.94,-0.326 -6.198,-0.513c-20.782,-1.721 -40.364,9.947 -48.741,29.044c-1.123,2.56 -2.209,5.036 -3.211,7.319c-3.588,8.178 -5.232,17.077 -4.805,25.997c0.074,1.541 0.151,3.146 0.229,4.776c0.735,15.344 9.362,29.213 22.8,36.655c5.812,3.219 11.727,6.495 16.227,8.987c5.023,2.781 10.826,3.817 16.5,2.945c1.736,-0.267 3.664,-0.563 5.719,-0.879c23.31,-3.584 39.823,-24.667 37.716,-48.157c0,-0.001 -0,-0.002 -0,-0.003c-0.599,-6.675 -4.559,-12.585 -10.506,-15.676c-5.946,-3.091 -13.059,-2.936 -18.866,0.409c-4.822,2.778 -8.844,5.095 -10.472,6.033c-0.512,0.295 -0.948,0.704 -1.275,1.195c-1.051,1.579 -3.643,5.473 -6.559,9.853c-7.26,10.907 -7.888,24.936 -1.63,36.447c1.96,3.605 4.056,7.46 6.147,11.307c9.743,17.922 28.763,28.815 49.151,28.149c0.232,-0.008 0.463,-0.015 0.694,-0.023c14.284,-0.467 25.62,-12.185 25.611,-26.477c-0.001,-1.63 -0.002,-3.148 -0.003,-4.481c-0.002,-3.275 -1.924,-6.245 -4.911,-7.588c-6.547,-2.943 -18.338,-8.245 -27.186,-12.223c-7.223,-3.247 -15.561,-2.854 -22.446,1.059c-11.21,6.371 -29.159,16.571 -44.837,25.482c-18.85,10.713 -28.811,32.218 -24.791,53.524c0.467,2.478 0.925,4.907 1.361,7.217c2.017,10.686 10.396,19.033 21.091,21.007c10.34,1.909 23.294,4.3 33.413,6.167c9.169,1.693 18.011,-4.249 19.907,-13.378c0.123,-0.592 0.235,-1.131 0.332,-1.598c0.248,-1.192 -0.087,-2.431 -0.901,-3.336c-3.651,-4.059 -14.355,-15.957 -23.485,-26.106c-2.705,-3.007 -6.891,-4.202 -10.775,-3.076c-3.884,1.125 -6.783,4.373 -7.461,8.36c0,0.001 0,0.002 -0,0.003c-2.054,12.079 1.444,24.44 9.522,33.652c8.079,9.212 19.879,14.293 32.122,13.833c9.366,-0.352 18.805,-0.707 27.086,-1.018c15.603,-0.587 28.97,-11.347 32.875,-26.465c0.823,-3.186 1.561,-6.041 2.091,-8.096c0.536,-2.075 0.067,-4.28 -1.267,-5.957c-3.102,-3.899 -9.089,-11.423 -14.38,-18.072c-2.03,-2.552 -5.296,-3.786 -8.507,-3.214c-3.211,0.572 -5.85,2.858 -6.874,5.954c-0.001,0 -0.001,0.001 -0.001,0.002c-2.725,8.234 -1.946,17.226 2.154,24.869c4.1,7.643 11.16,13.266 19.527,15.551c14.053,3.838 29.419,8.035 38.703,10.57c5.699,1.556 11.566,2.413 17.471,2.552c7.098,0.166 17.18,0.402 25.404,0.595c8.944,0.21 17.431,-3.942 22.754,-11.132c0.525,-0.708 1.061,-1.433 1.606,-2.168c9.673,-13.063 8.141,-31.278 -3.579,-42.542c-3.815,-3.667 -7.125,-6.848 -8.791,-8.45c-0.756,-0.725 -1.334,-1.615 -1.69,-2.6c-1.12,-3.1 -3.911,-10.82 -7.717,-21.348c-4.757,-13.159 -18.228,-21.049 -32.033,-18.761c-13.804,2.289 -24.009,14.103 -24.266,28.093c0,0.001 0,0.001 0,0.002c-0.207,11.269 4.124,22.147 12.02,30.189c7.895,8.042 18.692,12.572 29.963,12.572c4.373,0 8.622,0 12.486,0c10.331,0 19.247,-7.243 21.362,-17.355c4.309,-20.594 11.135,-53.221 12.92,-61.753c0.291,-1.394 0.737,-2.752 1.327,-4.048c1.063,-2.331 3.029,-6.645 5.632,-12.357c9.071,-19.903 4.827,-43.346 -10.645,-58.806c-15.472,-15.46 -38.918,-19.685 -58.814,-10.599c-6.537,2.986 -13.074,5.971 -19.542,8.925c-14.988,6.846 -25.321,21.012 -27.261,37.375c-1.94,16.363 4.794,32.553 17.766,42.713c0.04,-0.036 0.047,-0.031 0.054,-0.025c9.901,7.759 22.82,10.539 35.037,7.538c12.218,-3.001 22.378,-11.45 27.558,-22.914c7.887,-17.345 15.677,-34.586 20.886,-46.117c4.157,-9.201 6.354,-19.166 6.452,-29.262c0.223,-22.999 0.636,-65.698 0.812,-83.835c0.053,-5.469 -1.943,-10.76 -5.595,-14.832c-0,0 -0.001,0 -0.001,-0c-9.3,-10.368 -23.503,-14.857 -37.073,-11.717c-13.569,3.141 -24.357,13.412 -28.157,26.812c-4.486,15.815 -8.742,30.822 -11.426,40.285c-1.906,6.72 -2.835,13.679 -2.758,20.664c0.148,13.401 0.385,34.832 0.385,34.832c-0,0 0.04,0.284 0.118,0.828c1.906,13.294 13.066,23.31 26.489,23.772c13.422,0.462 25.244,-8.764 28.058,-21.896c2.785,-12.993 5.457,-25.464 7.876,-36.751c2.866,-13.373 -0.088,-27.334 -8.126,-38.399c-8.038,-11.065 -20.401,-18.192 -34.004,-19.602c-0.001,-0 -0.001,-0 -0.001,-0c-11.801,-1.223 -22.62,-7.126 -30.036,-16.387c-7.415,-9.261 -10.809,-21.108 -9.423,-32.892c1.049,-8.906 2.062,-17.514 2.83,-24.04c0.853,-7.251 5.277,-13.596 11.786,-16.904c13.612,-6.92 37.593,-19.109 53.598,-27.245c9.596,-4.877 21.266,-2.762 28.539,5.174c0,0.001 0,0.001 0.001,0.002c10.747,11.727 14.789,28.117 10.726,43.496c-4.064,15.38 -15.673,27.635 -30.81,32.524c-4.837,1.562 -9.166,2.96 -12.646,4.084c-5.548,1.792 -11.613,0.912 -16.423,-2.383c-6.352,-4.35 -15.554,-10.653 -23.155,-15.859c-8.293,-5.68 -12.628,-15.586 -11.172,-25.531c1.551,-10.596 3.438,-23.489 4.281,-29.25c0.292,-1.996 1.033,-3.901 2.168,-5.569c3.613,-5.314 12.601,-18.536 24.085,-35.428c10.711,-15.754 30.761,-22.208 48.651,-15.66c17.889,6.548 29.035,24.421 27.044,43.367c-0,0.002 -0.001,0.005 -0.001,0.007c-1.218,11.591 -9.14,21.381 -20.222,24.99c-11.082,3.609 -23.249,0.362 -31.06,-8.288c-15.048,-16.668 -29.603,-32.787 -35.717,-39.559c-1.916,-2.122 -4.661,-3.305 -7.52,-3.239c-3.618,0.084 -9.051,0.21 -14.913,0.345c-17.329,0.401 -32.157,-12.364 -34.338,-29.56c-0.566,-4.46 -1.156,-9.115 -1.743,-13.744c-3.002,-23.668 11.028,-46.192 33.596,-53.934c10.386,-3.563 20.514,-7.037 26.976,-9.254c4.558,-1.563 9.505,-1.574 14.07,-0.032c10.9,3.684 32.411,10.954 49.739,16.81c15.638,5.286 26.304,19.784 26.694,36.286c0,0.002 0,0.003 0,0.005c0.629,26.579 -18.727,49.425 -45.048,53.171c-26.321,3.746 -51.282,-12.793 -58.094,-38.492c-1.492,-5.645 -2.924,-11.162 -4.314,-16.562c-0.061,-0.235 -0.099,-0.476 -0.113,-0.719c-0.297,-4.85 -3.462,-56.512 -4.113,-67.154c-0.081,-1.311 -0.198,-2.619 -0.352,-3.923c-0.679,-5.732 -1.134,-11.317 -1.384,-16.764c-1.234,-29.276 21.363,-54.073 50.627,-55.555c29.264,-1.482 54.252,20.904 55.982,50.154c0.198,2.544 0.305,4.345 0.36,5.275c0.029,0.483 0.006,0.967 -0.068,1.444c-0.653,4.234 -4.043,26.197 -6.122,39.664c-1.167,7.564 -3.995,14.776 -8.281,21.117c-47.751,70.532 -83.12,18.218 -116.175,-57.062c-5.963,-13.529 -7.664,-28.554 -4.878,-43.074c0.627,-3.281 1.233,-6.436 1.734,-9.05c0.851,-4.432 0.814,-8.988 -0.109,-13.405c-0.562,-2.694 -1.26,-6.037 -2.029,-9.718c-5.018,-24.027 8.641,-48.03 31.859,-55.989c1.235,-0.423 2.473,-0.847 3.713,-1.273c23.348,-8.002 49.136,1.062 62.342,21.913c22.3,35.134 43.942,3.495 52.088,70.201c0,0 0.006,0.058 0.018,0.17c2.315,22.873 -11.174,44.405 -32.766,52.301c-21.592,7.897 -45.789,0.148 -58.777,-18.823c-15.266,-22.297 -28.694,-41.912 -37.482,-54.747c-7.058,-10.309 -11.343,-22.26 -12.444,-34.705c-0.785,-8.869 -1.785,-20.17 -2.867,-32.406c-1.99,-22.497 7.159,-44.542 24.493,-59.019c17.334,-14.476 40.657,-19.55 62.439,-13.582c0,-0 0.001,0 0.002,0c12.205,3.344 21.936,12.56 25.938,24.565c4.002,12.005 1.747,25.216 -6.01,35.214c-1.759,2.268 -2.955,3.809 -3.313,4.27c-0.075,0.096 -0.142,0.199 -0.2,0.305c-0.642,1.169 -4.751,8.644 -11.089,20.176c-8.122,14.777 -25.827,21.396 -41.65,15.572c-15.824,-5.825 -25.012,-22.344 -21.614,-38.86c0.098,-0.48 0.166,-0.807 0.199,-0.971c0.017,-0.082 0.039,-0.163 0.064,-0.242c8.666,-26.982 19.778,-54.399 46.364,-58.864" style="fill:none;stroke:#000;stroke-width:19.6px;stroke-linecap:square;"></path><path d="M812.619,16.827l82.89,640.624l4.737,-0l-33.157,-362.349l-18.946,-278.275l213.147,0l-0,827.719l-286.564,0l-74.601,-640.624l-4.737,0l47.366,640.624l-213.147,0l0,-827.719l283.012,0Z" style="fill-rule:nonzero;"></path></g></svg>