<?xml version="1.0" standalone="no"?>
<!DOCTYPE svg PUBLIC "-//W3C//DTD SVG 20010904//EN"
 "http://www.w3.org/TR/2001/REC-SVG-20010904/DTD/svg10.dtd">
<svg version="1.0" xmlns="http://www.w3.org/2000/svg"
 width="700.000000pt" height="700.000000pt" viewBox="0 0 700.000000 700.000000"
 preserveAspectRatio="xMidYMid meet">
<metadata>
Created by potrace 1.14, written by Peter Selinger 2001-2017
</metadata>
<g transform="translate(0.000000,700.000000) scale(0.100000,-0.100000)"
fill="#000000" stroke="none">
<path d="M3407 6714 c-1 -1 -45 -4 -97 -8 -567 -37 -1168 -260 -1640 -606
-166 -123 -338 -275 -451 -401 -41 -45 -83 -91 -94 -103 -78 -83 -261 -340
-342 -481 -166 -286 -310 -663 -368 -960 -16 -81 -45 -278 -52 -350 -16 -161
-8 -594 12 -715 2 -14 7 -45 10 -70 19 -147 78 -389 138 -565 105 -308 280
-636 480 -900 329 -436 792 -797 1298 -1014 214 -91 553 -193 689 -207 19 -2
48 -6 65 -10 33 -8 46 -10 123 -18 126 -14 158 -17 270 -21 l119 -4 -1 93 -1
92 59 -38 c93 -60 158 -81 256 -82 74 -1 92 3 141 27 52 25 110 77 149 134 14
20 25 22 170 26 85 3 165 8 178 11 182 42 287 93 381 183 l65 63 66 -14 c137
-28 327 -6 465 52 207 89 364 215 479 387 64 95 83 134 137 285 34 96 41 128
41 192 0 103 -34 202 -97 276 -23 27 -26 40 -29 129 -2 54 -5 104 -7 112 -3 9
8 19 26 25 122 42 341 251 428 408 90 162 116 376 68 545 -9 29 -6 34 25 58
76 58 133 144 151 227 16 78 5 201 -23 243 -9 14 -67 63 -128 110 -61 46 -123
95 -138 107 l-28 23 16 45 c32 91 -1 266 -73 388 -38 65 -123 154 -183 194
-32 22 -34 27 -31 70 5 95 -111 301 -237 420 -81 76 -139 118 -223 159 l-61
31 23 26 c13 14 30 32 36 40 7 7 24 32 37 55 94 161 89 366 -12 523 -68 105
-149 164 -296 215 -101 35 -178 41 -283 21 l-76 -14 -55 61 c-167 189 -425
276 -667 226 -44 -9 -87 -21 -96 -26 -13 -7 -29 3 -71 45 -72 73 -166 131
-262 163 -68 22 -100 26 -198 27 -97 1 -118 4 -119 16 -1 8 -2 29 -3 45 l-1
30 -78 0 c-43 1 -79 0 -80 -1z m438 -266 c86 -28 205 -109 205 -139 0 -23 -41
-29 -97 -15 -99 25 -114 27 -250 33 l-133 6 -1 36 c0 20 -2 46 -3 59 -3 27 6
34 59 43 60 9 152 0 220 -23z m753 -192 c91 -27 172 -71 234 -129 l27 -25 -62
-11 c-34 -6 -75 -13 -92 -16 -81 -13 -141 -36 -185 -71 -12 -10 -21 -7 -50 17
-19 17 -62 50 -94 75 -49 37 -63 55 -78 96 -10 29 -16 54 -13 56 2 3 28 10 57
17 67 15 189 11 256 -9z m-755 -92 c20 -4 37 -10 37 -13 0 -12 -64 -68 -95
-84 -16 -8 -54 -17 -84 -21 -30 -4 -72 -15 -93 -26 l-38 -18 -1 26 c-1 31 -1
108 0 136 1 17 9 18 119 13 64 -3 134 -9 155 -13z m277 -92 l55 -28 0 -84 c-1
-92 -13 -135 -72 -258 l-35 -73 -57 54 c-85 82 -169 132 -285 171 -75 25 -72
33 14 42 79 9 165 57 238 133 37 39 72 70 77 70 6 1 35 -12 65 -27z m1220 -93
c124 -39 199 -98 248 -198 23 -49 27 -68 27 -146 0 -78 -4 -97 -27 -145 -15
-30 -45 -74 -67 -97 -21 -23 -46 -51 -54 -63 -13 -18 -21 -20 -65 -14 -55 7
-53 5 -67 94 -18 117 -31 141 -103 187 -31 21 -58 38 -59 38 -3 1 -11 51 -18
105 -3 25 -13 91 -23 146 l-18 102 60 9 c67 11 73 10 166 -18z m-371 -51 c5
-18 12 -53 15 -78 7 -54 15 -107 22 -138 4 -22 3 -23 -38 -16 -24 5 -88 8
-143 7 l-100 -1 -40 65 c-22 36 -48 74 -57 85 -10 12 -18 24 -18 27 0 11 74
40 115 46 23 3 52 8 65 10 14 3 45 8 70 11 25 3 47 8 49 10 2 2 14 4 27 4 17
0 25 -8 33 -32z m-609 -13 c10 -13 9 -19 -6 -36 -10 -11 -24 -33 -32 -47 -7
-15 -10 -20 -8 -11 2 9 8 37 11 63 8 49 15 55 35 31z m164 -181 c21 -31 34
-59 30 -64 -5 -4 -30 -11 -56 -14 l-48 -7 0 39 c0 41 17 102 28 102 4 0 24
-25 46 -56z m-227 -45 l-2 -71 -36 -12 -36 -13 36 83 c20 46 37 84 38 84 1 0
1 -32 0 -71z m-644 26 c114 -30 271 -132 307 -200 15 -27 14 -28 -33 -70 -54
-48 -110 -68 -179 -66 -55 2 -124 30 -157 64 -21 23 -23 34 -22 139 0 154 -1
148 14 148 7 0 39 -7 70 -15z m1363 -185 c13 -5 23 -13 22 -17 -1 -5 2 -28 6
-53 24 -152 23 -155 -81 -174 -81 -15 -109 -14 -99 3 5 8 -35 175 -53 224 -6
16 -11 30 -11 32 0 15 166 4 216 -15z m-343 -88 c23 -70 51 -192 44 -198 -1
-1 -24 -6 -51 -12 -41 -9 -56 -7 -90 8 -23 10 -56 24 -73 30 -31 12 -33 15
-34 64 -1 28 -3 76 -4 107 l-4 56 82 15 c45 7 87 12 93 10 7 -2 23 -38 37 -80z
m-362 -24 c1 -24 3 -53 4 -65 3 -27 -12 -52 -22 -38 -52 73 -74 107 -71 110 6
6 72 34 81 35 4 0 8 -19 8 -42z m-204 -105 c2 -6 -8 -13 -22 -15 -27 -6 -32 1
-13 20 14 14 30 11 35 -5z m-359 -86 c39 -1 71 -5 69 -10 -1 -5 -44 -30 -94
-56 -50 -27 -105 -58 -122 -70 -22 -16 -31 -18 -32 -9 -1 16 -1 182 0 185 1 1
25 -8 54 -18 31 -12 81 -21 125 -22z m1475 -74 c3 -10 8 -36 11 -58 4 -22 9
-52 12 -67 4 -22 1 -27 -23 -32 -78 -17 -129 -115 -134 -255 -1 -28 -6 -51
-10 -51 -4 0 -14 -3 -22 -6 -11 -4 -20 12 -37 63 -12 37 -38 97 -57 133 -20
36 -30 66 -25 68 6 2 37 20 69 41 54 35 105 89 146 154 20 31 63 37 70 10z
m226 -72 c24 -89 27 -131 8 -131 -32 0 -47 27 -62 114 -19 111 -19 104 9 99
21 -4 27 -16 45 -82z m-1222 63 c2 -6 -15 -23 -38 -39 -108 -71 -167 -152
-214 -289 -16 -49 -35 -91 -42 -93 -31 -11 -40 253 -11 332 14 37 20 41 84 63
120 41 213 51 221 26z m703 -18 c0 -2 -11 -11 -25 -20 -21 -14 -25 -14 -25 -2
0 8 10 17 23 19 12 2 23 5 25 6 1 0 2 -1 2 -3z m780 -99 c68 -50 131 -115 179
-187 42 -63 85 -149 78 -156 -5 -6 -195 76 -292 127 -55 28 -69 40 -66 55 2
10 4 65 5 121 1 116 -4 114 96 40z m-1197 -31 c38 -29 121 -66 148 -66 32 0
31 -21 -2 -116 -105 -300 -237 -395 -449 -324 -110 37 -137 55 -134 87 1 15 2
33 3 40 1 15 32 25 98 29 112 7 213 75 264 179 25 52 31 76 31 129 0 37 2 66
5 66 2 0 19 -11 36 -24z m-764 -103 c0 -60 5 -123 11 -142 l9 -34 -26 24 c-15
13 -32 29 -38 35 -5 6 -38 30 -72 54 -67 46 -77 65 -40 79 12 5 49 27 82 49
33 23 63 41 67 41 4 1 7 -47 7 -106z m571 66 c0 -82 -63 -149 -152 -162 -48
-7 -49 4 -2 74 31 48 123 129 145 129 5 0 9 -19 9 -41z m968 -166 c11 -62 9
-67 -27 -78 -23 -7 -23 -6 -18 47 11 103 30 117 45 31z m-419 -78 c28 -74 27
-92 -6 -109 -57 -29 -122 -93 -170 -166 -55 -83 -83 -101 -210 -136 -80 -22
-82 -22 -99 -3 -16 18 -16 19 7 20 69 2 141 35 209 96 80 71 142 176 195 326
31 87 31 88 74 -28z m694 -19 c18 -12 126 -62 309 -144 38 -17 46 -30 29 -47
-5 -6 -24 -37 -42 -70 -17 -33 -47 -86 -66 -118 -33 -55 -36 -57 -67 -51 -62
11 -151 11 -211 -2 -33 -6 -61 -10 -63 -9 -2 2 2 32 9 66 6 35 11 125 11 199
0 132 1 136 26 163 30 31 35 32 65 13z m-1936 -58 c23 -24 53 -66 67 -93 27
-53 50 -148 41 -174 -5 -17 -154 -116 -162 -108 -3 4 -7 376 -4 410 2 15 18 5
58 -35z m1695 -115 c4 -65 -8 -173 -29 -256 -14 -57 -21 -69 -42 -74 -20 -5
-30 1 -53 28 -52 62 -62 167 -20 212 11 12 28 46 37 75 10 29 20 51 22 48 2
-2 16 0 31 4 47 14 51 12 54 -37z m818 -122 c61 -61 101 -130 120 -211 15 -61
20 -128 10 -132 -3 -1 -32 16 -65 39 -73 49 -151 86 -227 108 -32 9 -58 19
-58 22 0 2 30 58 67 123 76 135 70 134 153 51z m-1215 4 c3 -28 8 -61 10 -75
3 -14 7 -47 11 -75 6 -53 29 -149 39 -165 3 -5 -14 -23 -37 -40 -24 -17 -76
-63 -115 -102 -40 -40 -73 -67 -73 -61 0 16 -105 118 -158 153 -39 26 -82 83
-82 110 0 4 19 12 43 19 117 33 184 79 242 166 36 55 104 130 110 123 2 -2 7
-26 10 -53z m-775 -226 l35 -18 -48 -1 c-47 0 -48 1 -82 55 -19 30 -35 57 -35
60 0 4 21 -12 48 -35 26 -23 63 -50 82 -61z m-251 -13 c1 -6 -10 -11 -24 -13
-28 -4 -30 4 -13 42 l12 26 12 -23 c7 -13 13 -27 13 -32z m-248 -80 c-38 -68
-81 -117 -81 -92 0 36 81 146 107 146 3 0 -9 -24 -26 -54z m2237 -17 c12 -5
22 -6 22 -4 0 9 128 -43 169 -69 44 -28 48 -32 29 -33 -7 0 -47 -10 -88 -21
-41 -11 -118 -32 -170 -46 -52 -14 -108 -29 -124 -34 -17 -5 -62 -3 -106 3
-111 16 -170 9 -247 -28 l-45 -22 -23 28 c-19 24 -20 33 -11 53 6 13 14 24 19
24 4 0 7 6 7 13 0 6 7 20 15 31 12 16 31 19 142 22 144 5 203 19 285 69 53 33
69 35 126 14z m-1816 -174 c72 -116 115 -230 120 -312 l3 -48 -60 3 c-107 6
-285 81 -347 146 -49 52 -63 115 -42 186 18 60 76 116 131 125 21 4 42 8 47 9
6 1 26 2 45 1 35 -1 39 -5 103 -110z m297 85 c27 -6 55 -18 62 -26 7 -8 14
-47 16 -87 4 -63 0 -84 -30 -172 -65 -183 -66 -185 -73 -93 -8 102 -50 221
-117 332 -20 33 -34 62 -32 66 5 8 106 -3 174 -20z m705 -78 c13 -26 12 -29
-28 -69 -22 -22 -72 -65 -110 -93 -62 -46 -71 -50 -77 -34 -3 11 0 31 7 45 23
46 161 179 185 179 5 0 15 -12 23 -28z m1352 -163 c151 -115 149 -113 145
-194 -2 -50 -44 -138 -78 -165 l-27 -21 -13 28 c-7 15 -22 43 -33 61 -43 69
-60 98 -79 133 -46 84 -161 169 -260 191 l-55 12 115 32 c63 18 120 33 127 33
8 1 78 -49 158 -110z m-1778 46 l30 -45 -32 -75 c-30 -72 -39 -81 -85 -90 -27
-5 -27 -4 9 97 16 47 30 104 31 126 3 48 7 47 47 -13z m-1058 -41 c0 -11 14
-48 30 -82 29 -57 68 -99 135 -148 l29 -21 -35 -1 c-20 -1 -58 -6 -84 -12 -45
-10 -50 -9 -74 14 -24 23 -26 30 -24 113 1 48 2 111 3 138 0 36 3 46 10 35 5
-8 10 -24 10 -36z m1615 -20 c15 -24 15 -28 0 -66 -14 -37 -25 -88 -29 -143
-1 -11 4 -42 11 -70 7 -27 13 -53 13 -57 0 -4 -47 -7 -105 -7 -58 0 -110 -3
-115 -6 -12 -7 -19 6 -45 91 l-23 74 67 44 c67 44 81 55 159 127 23 21 44 39
46 39 2 0 11 -12 21 -26z m473 -19 c17 0 32 -3 32 -8 0 -4 -31 -50 -69 -102
l-69 -95 -33 41 c-55 68 -109 142 -109 151 0 4 21 14 47 21 37 11 60 11 108 3
33 -6 75 -11 93 -11z m384 -85 c68 -19 117 -68 190 -189 37 -62 68 -117 68
-120 0 -4 -33 -16 -72 -26 -40 -10 -111 -31 -158 -46 l-84 -27 -46 38 c-75 63
-190 109 -278 113 -19 1 -13 11 73 129 65 91 83 109 118 122 50 17 137 20 189
6z m-672 -136 c66 -83 80 -103 73 -107 -11 -6 -84 0 -91 8 -15 14 -42 103 -42
135 l1 35 22 -26 c12 -15 29 -35 37 -45z m-594 -87 l22 -72 -27 -22 -26 -22
-31 31 -32 30 15 56 c13 53 39 90 52 76 3 -3 15 -38 27 -77z m-236 13 c0 -6
-7 -24 -15 -40 -11 -21 -13 -42 -9 -71 l7 -42 -58 7 c-33 4 -60 8 -62 10 -2 2
10 32 27 67 24 51 36 65 57 70 43 10 53 10 53 -1z m-385 -33 c1 -1 -2 -17 -7
-36 l-9 -34 -35 34 c-19 18 -34 36 -34 39 0 6 81 3 85 -3z m975 -163 c-88 -22
-134 -22 -138 -1 -3 15 6 17 95 16 l98 -1 -55 -14z m-1341 -65 c89 -34 160
-63 159 -65 -2 -1 -38 -23 -80 -47 -100 -60 -191 -95 -261 -103 l-57 -6 -1 48
c-2 269 -6 248 40 241 21 -2 111 -33 200 -68z m1751 61 c0 -5 -4 -10 -9 -10
-6 0 -13 5 -16 10 -3 6 1 10 9 10 9 0 16 -4 16 -10z m230 -32 l45 -21 -35 -6
c-56 -10 -80 -2 -80 25 0 29 12 30 70 2z m605 -45 c13 -51 15 -68 16 -128 2
-124 -47 -275 -118 -364 -70 -88 -211 -218 -263 -244 -57 -29 -65 -26 -75 22
-2 10 -9 37 -16 60 l-12 41 55 55 c118 117 163 270 127 432 -7 32 -13 62 -14
68 0 9 241 82 276 84 10 1 20 -10 24 -26z m-1960 -17 c11 -2 37 -6 58 -10 29
-5 37 -12 38 -29 0 -12 3 -44 5 -72 2 -27 1 -45 -3 -39 -15 22 -145 114 -189
134 -24 11 -44 23 -44 27 0 5 87 -1 135 -11z m1007 -26 c34 -23 72 -43 85 -46
13 -4 23 -10 23 -15 0 -13 -89 -188 -111 -221 l-19 -26 -58 20 c-31 11 -91 29
-132 39 -69 17 -79 23 -128 76 -46 49 -53 62 -50 92 3 30 7 35 33 38 76 8 150
26 212 52 38 16 71 29 75 30 4 1 35 -17 70 -39z m-604 -115 c45 -48 78 -94 70
-96 -2 0 -24 -3 -49 -5 -41 -5 -48 -2 -63 21 -20 30 -34 135 -19 135 6 0 33
-25 61 -55z m1120 6 c25 -82 6 -185 -48 -259 -54 -74 -65 -78 -167 -47 -148
45 -163 50 -164 55 0 3 28 64 63 135 l63 130 55 0 c30 0 80 5 110 11 30 7 60
12 66 13 6 1 16 -16 22 -38z m-1536 -122 c53 -50 67 -79 39 -79 -5 0 -35 -12
-67 -27 -33 -15 -63 -27 -68 -28 -6 0 -22 55 -36 122 l-27 122 49 -26 c27 -15
77 -53 110 -84z m-298 39 c4 -24 7 -44 7 -45 1 -2 10 -42 20 -90 11 -49 21
-99 23 -113 4 -22 -14 -40 -147 -145 -136 -108 -158 -122 -217 -137 -70 -17
-179 -60 -217 -84 -21 -13 -23 -13 -24 3 0 10 -1 106 -2 215 l-2 196 90 -5
c175 -11 278 40 402 199 25 32 49 56 53 53 4 -3 10 -24 14 -47z m1007 -235
c32 -32 59 -61 59 -64 0 -6 -100 -39 -118 -39 -7 0 -21 9 -32 20 -19 19 -20
25 -9 80 8 41 16 60 27 60 8 0 41 -26 73 -57z m-545 -55 c29 -83 26 -99 -21
-113 -22 -6 -73 -28 -113 -49 -78 -39 -77 -40 -87 28 -3 21 -8 49 -11 62 -5
19 2 27 48 51 55 28 148 71 160 72 3 1 14 -23 24 -51z m948 -32 l29 -12 -52
-13 c-41 -10 -55 -10 -67 -1 -13 11 -13 15 2 32 18 19 28 18 88 -6z m-198
-164 c-13 -13 -20 -12 -60 4 -25 11 -46 22 -46 25 0 4 17 14 38 22 36 15 38
15 60 -11 20 -22 21 -28 8 -40z m462 3 c7 -25 12 -50 12 -55 0 -6 -37 -10 -88
-10 -85 0 -89 1 -117 30 -21 22 -25 31 -14 35 11 4 169 41 189 44 3 1 11 -19
18 -44z m-1578 5 c0 -32 -2 -33 -49 -24 l-31 7 32 23 c41 31 48 30 48 -6z
m859 -69 c33 -23 64 -41 68 -41 4 0 22 -10 38 -21 17 -12 22 -18 10 -14 -11 4
-27 8 -35 10 -70 14 -100 29 -140 70 -56 57 -28 55 59 -4z m-456 -25 c-5 -22
-8 -23 -36 -15 -18 5 -34 9 -37 10 -8 1 54 28 66 29 7 0 9 -10 7 -24z m308
-99 c19 -25 83 -60 142 -78 37 -11 65 -24 62 -29 -3 -5 -20 -3 -38 5 -17 7
-54 16 -81 20 -31 5 -72 23 -112 48 -62 39 -62 40 -47 64 l16 24 26 -23 c14
-13 28 -26 32 -31z m-770 14 c18 -6 16 -10 -14 -56 -18 -28 -41 -68 -51 -90
-11 -22 -22 -47 -26 -56 -4 -8 -16 -48 -25 -88 l-18 -73 -61 7 c-60 7 -184 41
-198 53 -22 21 149 295 190 305 30 7 184 6 203 -2z m334 -66 c44 -9 81 -17 82
-19 2 -2 -14 -22 -34 -45 -33 -37 -47 -45 -103 -56 -84 -18 -80 -19 -74 8 2
12 7 48 11 79 4 45 9 56 22 53 9 -2 52 -10 96 -20z m1075 15 c0 -12 -17 -12
-45 0 -17 7 -15 9 13 9 17 1 32 -3 32 -9z m294 -9 c10 -35 16 -92 9 -88 -5 3
-27 10 -50 16 -31 9 -47 20 -58 42 -9 16 -14 33 -11 38 3 4 28 8 55 8 38 1 51
-3 55 -16z m-2214 -110 c-37 -74 -42 -80 -60 -71 -11 6 -20 14 -21 18 -5 45
-2 65 11 77 20 18 103 65 108 61 2 -2 -15 -40 -38 -85z m1695 6 c147 -36 302
-81 308 -90 11 -16 2 -174 -12 -209 -12 -32 -57 -44 -125 -35 -69 10 -89 24
-110 75 -22 53 -71 133 -108 175 -18 21 -23 36 -20 63 5 38 1 37 67 21z m-388
-144 c57 -86 78 -180 70 -317 -7 -108 -11 -140 -30 -226 l-12 -55 -65 -18
c-36 -9 -76 -19 -90 -22 -14 -3 -100 -20 -193 -40 -197 -41 -213 -42 -237 -13
-25 33 -24 41 7 45 129 16 255 112 314 237 39 85 45 119 48 291 1 83 5 153 9
157 10 9 93 27 117 25 12 -1 36 -26 62 -64z m886 10 c2 -5 -4 -21 -15 -38
l-18 -30 2 38 c2 33 19 50 31 30z m-1228 -141 c-3 -154 -9 -183 -48 -243 -54
-84 -154 -132 -256 -124 -59 5 -73 24 -100 138 l-22 89 26 43 c21 36 34 46 77
60 84 28 228 107 270 148 15 16 40 26 49 21 3 -2 5 -61 4 -132z m1383 -88 c4
-50 -1 -77 -21 -135 -68 -196 -124 -294 -227 -398 -193 -197 -458 -297 -676
-257 l-33 7 16 44 c13 39 23 49 74 76 78 42 175 132 219 203 28 47 46 63 95
88 116 59 200 129 254 212 14 23 29 43 32 46 3 3 8 10 10 17 2 6 33 31 69 55
36 23 85 69 110 100 l45 57 14 -27 c7 -14 16 -54 19 -88z m-747 -1 c42 -45 44
-49 46 -114 1 -37 -4 -89 -11 -116 -10 -40 -18 -51 -48 -65 -46 -22 -93 -34
-85 -22 3 5 8 30 11 54 4 25 9 61 12 80 7 52 7 188 0 240 l-7 45 19 -28 c11
-16 39 -49 63 -74z m-1495 66 c69 -24 67 -24 119 -33 74 -14 70 -8 69 -105 -1
-88 -1 -90 -44 -152 -56 -82 -59 -85 -126 -119 -48 -24 -67 -28 -131 -26 l-76
1 1 101 1 100 61 127 c34 70 62 127 64 127 2 0 29 -9 62 -21z m1739 -226 l-40
-35 -3 27 c-6 43 2 52 44 47 l39 -5 -40 -34z m-1370 -215 c12 -5 29 -23 39
-39 9 -16 32 -49 51 -74 19 -25 30 -45 25 -45 -10 0 -161 -25 -210 -35 -29 -6
-60 -11 -110 -19 -19 -3 -46 -8 -60 -11 -24 -5 -112 -21 -167 -31 -16 -3 -41
-8 -58 -12 -55 -14 -69 -10 -68 21 1 15 1 42 2 60 l1 33 63 2 c96 3 137 12
206 44 71 34 124 78 166 138 l28 40 35 -31 c19 -17 44 -35 57 -41z m816 -191
c-5 -5 -41 -11 -78 -13 l-68 -3 64 14 c36 8 67 17 69 20 3 2 9 2 14 -1 6 -4 6
-10 -1 -17z m-548 -103 c3 -3 -21 -24 -53 -46 -76 -51 -173 -155 -219 -238
-42 -73 -40 -73 -156 -44 -77 19 -150 54 -211 101 -52 39 -107 93 -101 99 7 7
519 102 652 121 22 3 42 7 44 9 7 6 37 5 44 -2z m310 -164 l98 -37 -38 -33
c-44 -39 -135 -82 -213 -100 -74 -18 -79 -19 -198 -25 l-104 -5 19 29 c57 88
150 168 244 210 33 15 48 17 68 9 14 -6 70 -28 124 -48z m-1012 -207 c55 -38
221 -114 244 -112 3 0 21 -3 40 -7 l35 -6 -26 -20 c-37 -30 -96 -40 -152 -27
-133 32 -279 167 -264 245 l4 24 37 -33 c20 -18 57 -47 82 -64z"/>
</g>
</svg>
